<svg width="976" height="727" viewBox="0 0 976 727" fill="none" xmlns="http://www.w3.org/2000/svg">
<g opacity="0.67">
<path d="M266.228 327.646L251.189 333.058L265.948 323.042C265.827 321.514 265.679 319.974 265.499 318.421L257.558 320.07L265.073 315.047C263.354 303.078 259.527 288.057 254.277 272.724L225.007 284.922L252.977 268.999C245.633 248.399 235.82 227.648 225.17 213.337L209.438 225.326L221.982 209.274C212.29 197.636 202.056 191.712 192.454 196.292C180.788 201.858 177.444 228.846 181.036 261.389L188.916 261.238L181.211 262.901C182.868 277.144 185.837 292.387 190.003 307.334L220.053 296.383L191.362 312.063C197.709 333.426 206.502 353.87 217.404 369.537L229.252 356.744L219.626 372.623C228.805 384.94 239.385 393.87 251.189 397.239C251.189 397.239 267.893 366.93 266.228 327.646" fill="#03673D"/>
<path d="M252.911 397.239C252.911 397.239 269.615 366.93 267.949 327.646L252.911 333.058L267.669 323.042C267.549 321.514 267.4 319.974 267.22 318.421L259.279 320.07L266.795 315.047C265.075 303.078 261.249 288.057 255.998 272.726L226.728 284.922L254.698 269C247.354 248.399 237.541 227.648 226.892 213.337L211.159 225.328L223.703 209.274C214.012 197.636 203.777 191.712 194.175 196.292C194.175 196.292 237.855 308.72 252.061 396.971C252.345 397.058 252.627 397.157 252.911 397.239Z" fill="#04AD66"/>
<path d="M243.517 421.942L232.389 424.745L242.552 418.8C241.507 415.576 240.259 412.213 238.758 408.7C235.667 401.472 231.246 393.202 226.123 385.204L216.112 393.418L223.165 380.729C207.637 358.004 187.227 339.632 177.192 357.508C173.068 364.855 172.796 376.55 175.644 389.698L198.421 388.835L176.462 393.181C178.736 402.153 182.386 411.659 187.197 420.838L194.884 417.105L188.261 422.825C193.331 432.119 199.59 441 206.808 448.554L222.481 430.094L208.975 450.754C218.468 460.09 229.496 467.097 241.588 469.825C241.588 469.825 252.594 453.158 243.517 421.942" fill="#10794D"/>
<path d="M240.691 469.601C240.992 469.674 241.289 469.756 241.591 469.824C241.591 469.824 252.597 453.157 243.52 421.942L232.391 424.746L242.555 418.801C241.509 415.576 240.261 412.214 238.759 408.7C235.67 401.472 231.248 393.202 226.126 385.203L216.115 393.419L223.166 380.729C208.531 359.307 189.559 341.768 179.024 354.798C187.462 367.083 223.013 420.298 240.691 469.601Z" fill="#04AD66"/>
<path d="M209.25 456.26C203.037 449.923 191.952 442.145 179.083 434.995C173.502 443.898 167.272 453.952 166.2 456.155C166.047 456.548 165.99 456.683 166.059 456.48C166.083 456.405 166.132 456.294 166.2 456.155C167.102 453.845 171.47 442.22 175.009 432.786C167.289 428.695 159.07 424.896 150.962 421.796L146.55 444.402L148.582 420.905C123.299 411.645 99.7256 409.645 96.7232 427.575C95.8933 432.531 97.5027 438.037 100.952 443.8C110.643 443.188 124.661 442.205 124.661 442.205L104.223 448.618C111.719 458.59 124.033 469.07 138.31 478.648L150.575 452.946L140.55 480.128C155.588 489.978 172.564 498.765 188.263 504.91C189.594 498.571 190.568 493.979 190.568 493.979L190.766 505.87C193.788 507.009 196.753 508.042 199.641 508.963L200.94 503.481L201.792 509.631C216.171 513.984 228.398 515.342 235.404 512.185C235.404 512.185 240.974 488.616 209.25 456.26" fill="#007248"/>
<path d="M296.329 287.036C311.479 246.741 332.202 238.33 340.67 239.161C354.712 237.166 355.45 263.597 354.063 277.062H332.817L354.063 281.55C353.694 303.093 348.367 326.1 345.75 334.91L319.422 329.424L345.75 338.9C339.098 366.029 329.122 391.096 324.965 400.239L298.176 386.774L323.579 403.231L320.346 409.215L312.956 407.719L319.422 411.21C307.968 436.344 286.629 446.617 277.391 448.612C269.632 438.638 267.384 419.522 267.23 411.21L281.086 407.719H267.23C265.752 393.357 270.309 368.489 272.773 357.85L283.396 362.837L273.234 355.356L274.62 350.37L297.252 357.85L276.468 343.887C278.685 329.923 289.4 302.495 294.481 290.526L308.799 292.521L296.329 287.036Z" fill="#096B42"/>
<path d="M319.645 412.055C307.952 436.935 286.686 447.488 277.514 449.654C291.271 347.164 327.67 266.768 344.15 239.382C355.5 241.61 355.758 265.995 354.468 277.908L333.403 276.98L354.468 281.158C353.092 305.666 348.736 327.575 346.73 335.466L318.356 328.968L345.44 338.716C338.905 369.166 328.96 392.56 324.804 400.451L298.58 386.526L323.944 403.236L320.505 409.735L313.197 407.878L319.645 412.055Z" fill="#0EA867"/>
<path fill-rule="evenodd" clip-rule="evenodd" d="M263.481 592.876C263.481 592.878 263.481 592.879 262.816 592.838L263.481 592.879C263.459 593.231 263.167 593.505 262.814 593.504C262.461 593.503 262.17 593.227 262.15 592.874C259.907 552.229 244.383 521.643 224.655 498.812C207.331 479.485 187.305 465.04 167.526 454.262C167.536 454.244 167.546 454.227 167.557 454.209C153.647 446.74 141.688 442.038 134.774 439.32C132.581 438.458 130.895 437.795 129.815 437.307C117.695 433.023 106.557 430.019 97.293 427.931C97.3039 427.837 97.3121 427.743 97.3202 427.649L97.3202 427.649C97.3333 427.497 97.3465 427.346 97.3714 427.196C100.347 409.906 123.811 411.858 148.982 420.813L147.032 442.867C147.053 442.876 147.074 442.885 147.095 442.893L151.351 421.673C159.423 424.672 167.606 428.344 175.295 432.295C172.454 439.643 169.081 448.359 167.418 452.614C167.69 452.759 167.962 452.905 168.236 453.052C170.601 449.087 175.455 441.432 179.903 434.483C192.878 441.543 204.054 449.222 210.318 455.475C242.307 487.41 236.706 510.651 236.706 510.651C236.426 510.774 236.134 510.889 235.835 510.996C249.156 530.049 259.302 553.569 262.61 582.481C262.789 577.383 262.972 570.521 263.063 562.182C263.272 542.933 262.987 515.812 261.01 484.327C257.056 421.348 246.335 340.953 219.287 271.187C219.154 270.844 219.324 270.458 219.667 270.324C220.011 270.191 220.397 270.362 220.53 270.705C247.65 340.656 258.383 421.207 262.341 484.244C264.32 515.767 264.605 542.922 264.396 562.197C264.291 571.835 264.062 579.503 263.86 584.762C263.759 587.392 263.664 589.42 263.595 590.791C263.56 591.477 263.532 591.998 263.512 592.348C263.502 592.523 263.495 592.656 263.489 592.744L263.483 592.844L263.482 592.87L263.481 592.876Z" fill="#128E5A"/>
<path d="M201.958 389.598C201.958 389.598 262.815 481.285 262.815 592.837C272.016 398.004 318.786 291.834 318.786 291.834" stroke="#014D2D" stroke-miterlimit="10" stroke-linecap="round" stroke-linejoin="round"/>
<path d="M282.692 561.985H233.879C233.879 561.985 220.736 674.334 262.979 687.374C305.221 700.415 282.692 561.985 282.692 561.985Z" fill="#F52D29"/>
<path d="M291.273 561.985H245.507C245.507 561.985 235.151 674.334 268.434 687.374C321.367 693.811 291.273 561.985 291.273 561.985Z" fill="#F80700"/>
</g>
<g opacity="0.76">
<path d="M301.658 35.9724H285.87V103.051H301.658V35.9724Z" fill="#FF1F55"/>
<path d="M320.37 35.9724H304.582V103.051H320.37V35.9724Z" fill="#FFC702"/>
<path d="M332.038 37.1728L318.665 46.2368L351.733 103.052L365.106 93.9883L332.038 37.1728Z" fill="#3D99EE"/>
<path d="M455.226 117.838H284.86C281.226 117.838 277.74 116.28 275.171 113.507C272.601 110.734 271.157 106.973 271.157 103.051H468.926C468.926 106.972 467.483 110.733 464.914 113.506C462.344 116.279 458.86 117.838 455.226 117.838V117.838Z" fill="#6F2A1A"/>
<path d="M458.466 38.4563H383.041V103.05H458.466V38.4563Z" fill="#BDD8F5"/>
<path d="M453.424 44.8013H388.088V96.6928H453.424V44.8013Z" fill="#FB4C47"/>
<path d="M420.755 87.3978C429.273 87.3978 436.179 79.9459 436.179 70.7536C436.179 61.5612 429.273 54.1094 420.755 54.1094C412.237 54.1094 405.332 61.5612 405.332 70.7536C405.332 79.9459 412.237 87.3978 420.755 87.3978Z" fill="#FFC700"/>
<path d="M439.371 96.6929H388.088V71.8459C396.941 71.4842 410.017 72.6462 422.372 80.3105C429.03 84.4396 434.819 90.0186 439.371 96.6929V96.6929Z" fill="#1DB776"/>
<path d="M453.422 62.5654V96.6934H412.305C414.94 90.7555 418.327 85.2419 422.369 80.311C429.388 71.7929 439.401 64.4548 453.422 62.5654Z" fill="#11915B"/>
<path d="M311.155 130.675H298.861L300.559 103.051H309.457L311.155 130.675Z" fill="#592A3C"/>
<path d="M441.226 130.675H428.932L430.63 103.05H439.528L441.226 130.675Z" fill="#592A3C"/>
<path d="M699.796 88.5574H524.471V0H699.796V88.5574ZM531.989 80.4465H692.28V8.11307H531.987L531.989 80.4465Z" fill="#925C50"/>
<path d="M692.28 8.11328H531.987V80.4467H692.28V8.11328Z" fill="white"/>
<path d="M567.631 61.6142C581.138 58.199 589.523 43.614 586.358 29.0375C583.194 14.461 569.678 5.41297 556.171 8.82809C542.664 12.2432 534.279 26.8283 537.444 41.4048C540.609 55.9812 554.124 65.0293 567.631 61.6142Z" fill="#FFC700"/>
<path d="M531.987 57.6102L579.638 34.646C583.434 32.8161 587.621 32.1397 591.748 32.6898C595.874 33.2398 599.783 34.9955 603.052 37.7672L653.41 80.446H531.989L531.987 57.6102Z" fill="#11915B"/>
<path d="M615.185 48.0507L651.077 35.2449C654.915 33.8755 659.021 33.6301 662.976 34.5339C666.931 35.4377 670.592 37.4583 673.586 40.3891L692.279 58.6868V80.4511H653.409L615.185 48.0507Z" fill="#1DB776"/>
</g>
<path opacity="0.89" d="M438.637 213.461C437.003 213.41 435.591 214.77 435.191 216.64C432.656 216.853 429.762 216.926 426.586 216.709C424.811 216.585 423.132 216.385 421.557 216.137C421.566 215.81 421.571 215.479 421.571 215.149C421.571 213.54 421.467 211.96 421.264 210.414C422.064 209.749 423.067 209.05 424.279 208.451C426.384 207.404 428.356 207.032 429.872 206.926C430.618 208.761 432.326 209.828 433.969 209.364C435.814 208.84 436.868 206.578 436.324 204.309C435.78 202.039 433.845 200.62 431.999 201.144C430.317 201.622 429.291 203.544 429.534 205.6C428.204 206.42 426.229 207.308 423.783 207.373C422.571 207.408 421.515 207.232 420.658 207.005C420.115 204.605 419.331 202.304 418.337 200.135C419.39 199.102 420.636 198.007 422.095 196.95C424.208 195.414 426.246 194.315 428.035 193.527C429.201 195.007 431.064 195.5 432.498 194.597C434.146 193.565 434.614 191.075 433.537 189.043C432.458 187.011 430.241 186.206 428.593 187.242C427.156 188.141 426.62 190.139 427.212 191.977C425.676 193.272 423.786 194.639 421.518 195.858C419.974 196.692 418.497 197.325 417.162 197.807C416.071 195.82 414.789 193.968 413.355 192.277C413.907 190.101 414.84 187.559 416.429 185.011C417.92 182.628 419.579 180.889 420.988 179.666C422.538 180.71 424.487 180.548 425.598 179.174C426.86 177.618 426.57 175.101 424.949 173.551C423.332 171.998 420.996 172.001 419.74 173.558C418.624 174.932 418.717 177.05 419.869 178.596C418.959 180.228 417.584 182.252 415.561 184.181C413.333 186.309 411.09 187.583 409.385 188.341C407.447 186.726 405.331 185.355 403.068 184.271C403.398 183.282 403.832 182.287 404.401 181.309C404.857 180.534 405.348 179.852 405.846 179.257C407.571 180.018 409.495 179.47 410.363 177.876C411.341 176.096 410.628 173.678 408.771 172.48C406.917 171.281 404.623 171.753 403.649 173.537C402.795 175.104 403.246 177.163 404.623 178.451C404.336 179.277 403.987 180.135 403.573 181.009C403.099 182.015 402.581 182.941 402.037 183.799C401.809 183.699 401.578 183.602 401.349 183.513C398.653 182.418 395.785 181.726 392.795 181.491C392.305 180.052 391.877 178.457 391.578 176.705C390.967 173.13 391.079 170.019 391.361 167.682C393.119 167.316 394.438 165.814 394.438 164.016C394.438 161.943 392.688 160.262 390.53 160.262C388.375 160.262 386.625 161.943 386.625 164.016C386.625 165.846 387.991 167.368 389.792 167.7C390.183 170.002 390.44 173.226 389.834 176.963C389.566 178.608 389.172 180.107 388.71 181.464C385.844 181.64 383.086 182.242 380.48 183.211C380.116 182.585 379.792 181.928 379.502 181.153C378.924 179.619 378.674 178.18 378.575 176.982C380.26 176.028 381.131 174.027 380.533 172.256C379.882 170.309 377.707 169.383 375.681 170.187C373.656 170.992 372.543 173.223 373.196 175.17C373.76 176.851 375.456 177.768 377.214 177.471C377.727 178.617 378.217 179.939 378.606 181.44C378.809 182.235 378.964 183.012 379.082 183.773C376.718 184.791 374.498 186.119 372.461 187.709C371.387 186.866 370.291 185.887 369.209 184.74C366.716 182.1 365.051 179.392 363.957 177.222C365.169 175.765 365.38 173.68 364.366 172.244C363.202 170.6 360.875 170.426 359.165 171.856C357.454 173.285 357.009 175.777 358.173 177.42C359.199 178.873 361.137 179.175 362.752 178.239C364.332 179.776 366.381 182.202 367.97 185.687C368.694 187.281 369.201 188.832 369.553 190.278C369.226 190.604 368.899 190.941 368.584 191.285C366.989 193.019 365.569 194.94 364.349 197.018C363.631 196.793 362.887 196.521 362.126 196.188C359.644 195.103 357.722 193.72 356.33 192.515C356.922 190.641 356.347 188.618 354.874 187.742C353.203 186.746 351.008 187.605 349.971 189.662C348.934 191.719 349.447 194.194 351.121 195.19C352.591 196.067 354.462 195.507 355.601 193.961C357.291 194.597 359.393 195.616 361.568 197.29C362.216 197.79 362.813 198.304 363.366 198.822C361.644 202.192 360.444 205.916 359.872 209.871C358.384 210.01 356.781 210.075 355.062 210.018C352.608 209.935 350.391 209.623 348.455 209.216C348.41 207.147 347.137 205.416 345.409 205.219C343.516 205.003 341.794 206.718 341.572 209.051C341.344 211.384 342.702 213.45 344.595 213.667C346.283 213.859 347.827 212.52 348.306 210.579C350.295 210.623 352.527 210.816 354.944 211.268C356.615 211.581 358.167 211.981 359.596 212.424C359.528 213.322 359.494 214.23 359.494 215.149C359.494 217.33 359.683 219.464 360.049 221.532C358.407 222.715 356.136 224.057 353.251 224.999C350.72 225.825 348.441 226.106 346.627 226.167C345.976 224.328 344.356 223.181 342.713 223.525C340.842 223.918 339.653 226.104 340.064 228.407C340.473 230.71 342.321 232.258 344.195 231.865C345.812 231.526 346.914 229.846 346.92 227.909C348.779 227.252 350.971 226.635 353.468 226.233C356.339 225.772 358.911 225.706 361.075 225.809C361.946 228.662 363.163 231.344 364.665 233.798C363.957 234.408 363.163 235.011 362.278 235.574C360.574 236.652 358.939 237.323 357.522 237.756C356.558 236.091 354.767 235.308 353.22 235.989C351.453 236.767 350.673 239.161 351.487 241.333C351.994 242.697 353.008 243.654 354.13 243.981C354.792 244.178 355.493 244.154 356.15 243.864C356.347 243.778 356.53 243.671 356.699 243.544C357.993 242.615 358.539 240.689 357.993 238.851C359.334 238.099 360.9 237.354 362.709 236.739C363.867 236.345 364.975 236.058 366.017 235.843C366.967 237.178 368.009 238.431 369.131 239.588C369.238 239.698 369.342 239.808 369.449 239.911C368.691 241.75 367.55 243.985 365.828 246.251C364.143 248.468 362.391 250.083 360.917 251.223C359.438 250.083 357.502 250.107 356.311 251.385C354.955 252.842 355.085 255.376 356.604 257.046C358.117 258.713 360.45 258.885 361.805 257.428C362.98 256.165 363.039 254.085 362.036 252.47C363.197 250.827 364.71 248.975 366.643 247.146C368.716 245.183 370.765 243.73 372.548 242.659C374.909 244.484 377.518 245.961 380.305 247.019C380.192 248.158 380.004 249.388 379.696 250.679C379.029 253.492 378.023 255.748 377.11 257.408C375.324 257.019 373.557 257.907 372.951 259.608C372.264 261.54 373.337 263.792 375.349 264.639C377.361 265.487 379.55 264.605 380.237 262.67C380.838 260.989 380.102 259.068 378.578 258.042C379.009 256.041 379.688 253.675 380.77 251.134C381.3 249.894 381.863 248.765 382.441 247.735C384.585 248.365 386.822 248.751 389.127 248.858C389.504 250.82 389.809 253.017 389.955 255.418C390.175 258.988 389.997 262.149 389.685 264.76C387.932 265.13 386.625 266.631 386.625 268.424C386.625 270.496 388.375 272.177 390.533 272.177C392.691 272.177 394.438 270.496 394.438 268.424C394.438 266.637 393.136 265.139 391.395 264.763C391.102 262.094 390.941 258.94 391.108 255.418C391.223 253.041 391.471 250.848 391.787 248.865C394.196 248.765 396.534 248.362 398.769 247.69C398.96 248.048 399.152 248.42 399.332 248.802C400.544 251.327 401.197 253.693 401.552 255.586C399.997 256.568 399.208 258.475 399.763 260.176C400.406 262.129 402.569 263.073 404.607 262.287C406.638 261.499 407.765 259.277 407.126 257.325C406.559 255.593 404.787 254.657 402.975 255.015C402.144 253.462 401.178 251.116 400.842 248.113C400.8 247.742 400.769 247.377 400.749 247.019C403.24 246.082 405.581 244.805 407.734 243.241C409.126 244.47 410.591 245.937 412.048 247.68C414.285 250.359 415.911 253 417.086 255.245C415.894 256.699 415.685 258.768 416.697 260.197C417.86 261.839 420.185 262.012 421.898 260.583C423.608 259.153 424.056 256.664 422.893 255.018C421.887 253.599 420.01 253.276 418.416 254.14C416.7 252.249 414.798 249.856 412.963 246.915C411.777 245.014 410.8 243.169 409.991 241.437C410.859 240.676 411.69 239.866 412.476 239.009C413.769 237.604 414.95 236.078 415.992 234.447C417.92 235.032 420.148 235.889 422.509 237.177C424.786 238.413 426.682 239.773 428.212 241.041C427.632 242.88 428.184 244.87 429.618 245.758C431.275 246.788 433.481 245.968 434.555 243.933C435.625 241.895 435.149 239.412 433.492 238.382C432.044 237.484 430.173 237.997 429.01 239.505C427.302 238.799 425.231 237.728 423.084 236.085C420.853 234.381 419.171 232.552 417.948 230.975C418.773 229.295 419.469 227.528 420.024 225.689C420.951 225.724 421.926 225.813 422.943 225.979C425.55 226.406 427.722 227.208 429.393 228.007C429.249 229.97 430.269 231.767 431.889 232.218C433.732 232.735 435.668 231.313 436.206 229.04C436.741 226.767 435.679 224.508 433.836 223.992C432.208 223.537 430.514 224.584 429.768 226.392C427.99 226.233 425.719 225.81 423.234 224.763C422.287 224.364 421.416 223.919 420.622 223.455C421.019 221.75 421.298 219.997 421.442 218.2C423.048 218.059 424.758 217.969 426.553 217.966C429.728 217.955 432.608 218.203 435.138 218.568C435.442 220.459 436.78 221.898 438.415 221.953C440.319 222.012 441.917 220.159 441.976 217.814C442.038 215.469 440.545 213.52 438.637 213.461" fill="#FA5752" fill-opacity="0.82"/>
<path opacity="0.93" d="M151.591 120.638C149.08 120.558 146.91 122.658 146.296 125.545C142.399 125.875 137.953 125.987 133.074 125.652C130.346 125.461 127.766 125.152 125.346 124.769C125.359 124.264 125.367 123.754 125.367 123.243C125.367 120.76 125.207 118.32 124.895 115.933C126.125 114.907 127.666 113.828 129.528 112.902C132.762 111.286 135.792 110.711 138.122 110.547C139.269 113.381 141.893 115.028 144.417 114.311C147.253 113.503 148.872 110.01 148.036 106.506C147.201 103.003 144.226 100.812 141.39 101.62C138.806 102.359 137.23 105.326 137.602 108.5C135.559 109.765 132.524 111.137 128.766 111.238C126.904 111.291 125.281 111.02 123.964 110.669C123.129 106.963 121.925 103.411 120.397 100.062C122.016 98.4671 123.93 96.7761 126.172 95.1438C129.42 92.7727 132.55 91.0766 135.299 89.8596C137.091 92.1451 139.953 92.9056 142.157 91.5122C144.69 89.9177 145.408 86.0732 143.754 82.9368C142.096 79.7995 138.689 78.5555 136.156 80.1556C133.948 81.5434 133.126 84.6278 134.035 87.4667C131.675 89.466 128.77 91.5765 125.285 93.459C122.912 94.7456 120.644 95.7237 118.592 96.4678C116.916 93.3999 114.946 90.5397 112.743 87.9293C113.591 84.5691 115.024 80.6447 117.466 76.7108C119.756 73.0314 122.306 70.3467 124.471 68.4585C126.852 70.07 129.848 69.8198 131.554 67.6984C133.494 65.2956 133.048 61.409 130.558 59.0161C128.073 56.6185 124.484 56.6237 122.553 59.0265C120.839 61.1484 120.981 64.4182 122.752 66.8054C121.354 69.3255 119.241 72.4515 116.132 75.429C112.708 78.7154 109.262 80.6825 106.642 81.8523C103.664 79.3582 100.412 77.242 96.9357 75.5676C97.4423 74.0417 98.109 72.505 98.9836 70.9952C99.6849 69.799 100.438 68.7456 101.205 67.8266C103.854 69.0015 106.811 68.1553 108.145 65.6939C109.647 62.9453 108.552 59.2129 105.699 57.3625C102.85 55.5122 99.3256 56.2406 97.8276 58.9949C96.5158 61.4142 97.2085 64.5932 99.3256 66.5817C98.884 67.8578 98.3471 69.1822 97.7107 70.5321C96.9833 72.085 96.1867 73.5153 95.3511 74.8392C95.0005 74.685 94.6455 74.536 94.2948 74.3983C90.1515 72.7074 85.7441 71.6389 81.1506 71.2766C80.3972 69.0545 79.7392 66.5916 79.2802 63.8866C78.3408 58.3667 78.514 53.5625 78.9469 49.9545C81.6485 49.3893 83.6746 47.0712 83.6746 44.2937C83.6746 41.0935 80.9861 38.4986 77.6697 38.4986C74.3577 38.4986 71.6691 41.0935 71.6691 44.2937C71.6691 47.1194 73.7689 49.4692 76.5354 49.9824C77.1372 53.5375 77.5312 58.5152 76.6003 64.2848C76.189 66.8248 75.5829 69.1396 74.8729 71.2345C70.4698 71.506 66.2313 72.4349 62.2266 73.932C61.6681 72.9656 61.1702 71.9511 60.7243 70.7544C59.8367 68.3852 59.4514 66.1631 59.2999 64.3141C61.8889 62.8412 63.2267 59.7512 62.3088 57.0173C61.3087 54.0105 57.9664 52.5806 54.8536 53.8231C51.7407 55.0657 50.0305 58.51 51.035 61.5164C51.9009 64.1112 54.5072 65.5269 57.2087 65.069C57.9967 66.8385 58.75 68.8795 59.3475 71.1971C59.6592 72.425 59.8973 73.625 60.0792 74.799C56.4468 76.3717 53.0352 78.4221 49.905 80.876C48.2554 79.5748 46.5713 78.0636 44.9088 76.2922C41.0773 72.2155 38.5185 68.0342 36.8387 64.6845C38.7004 62.4354 39.0251 59.2162 37.4665 56.9979C35.6784 54.4603 32.1023 54.1921 29.4743 56.3995C26.8464 58.6065 26.1623 62.4534 27.9504 64.9905C29.5263 67.2334 32.5049 67.6998 34.9857 66.2553C37.4145 68.6283 40.5621 72.373 43.0039 77.7547C44.1165 80.2162 44.8958 82.61 45.437 84.8425C44.9348 85.3467 44.4326 85.867 43.9477 86.3977C41.4972 89.0758 39.3152 92.041 37.4405 95.2503C36.3365 94.9021 35.1935 94.4826 34.0246 93.9675C30.2103 92.2922 27.2576 90.1571 25.1189 88.2968C26.0281 85.403 25.1449 82.2803 22.8806 80.9271C20.3133 79.3889 16.9406 80.7161 15.3474 83.8918C13.7541 87.0679 14.5421 90.8897 17.1138 92.4274C19.3738 93.7807 22.2485 92.9161 23.9976 90.5298C26.5953 91.5108 29.825 93.0849 33.1674 95.6693C34.1631 96.4413 35.081 97.2354 35.9295 98.0343C33.2842 103.238 31.4399 108.989 30.561 115.095C28.2751 115.308 25.8116 115.41 23.1707 115.321C19.3997 115.194 15.9924 114.711 13.0181 114.082C12.9488 110.889 10.9919 108.216 8.338 107.912C5.42861 107.578 2.78331 110.227 2.44128 113.829C2.0906 117.43 4.17738 120.621 7.08677 120.955C9.68011 121.252 12.0527 119.185 12.7887 116.188C15.8452 116.256 19.2742 116.554 22.9888 117.252C25.5562 117.735 27.9417 118.352 30.1367 119.036C30.0328 120.423 29.9809 121.825 29.9809 123.243C29.9809 126.612 30.2709 129.906 30.8338 133.099C28.3097 134.925 24.8202 136.997 20.3868 138.452C16.499 139.728 12.9965 140.162 10.2083 140.255C9.20822 137.416 6.71877 135.645 4.19471 136.177C1.31996 136.784 -0.507066 140.158 0.125032 143.714C0.752802 147.27 3.59294 149.661 6.47202 149.053C8.95712 148.529 10.6499 145.936 10.6586 142.946C13.516 141.93 16.8843 140.979 20.7202 140.358C25.1319 139.646 29.0847 139.544 32.4097 139.702C33.7475 144.108 35.6178 148.248 37.9254 152.038C36.8387 152.98 35.6178 153.91 34.2584 154.779C31.6391 156.444 29.128 157.48 26.9503 158.149C25.4696 155.578 22.7161 154.37 20.3392 155.421C17.6247 156.623 16.4254 160.318 17.6766 163.673C18.4559 165.778 20.0145 167.256 21.7376 167.761C22.755 168.064 23.8331 168.027 24.8418 167.58C25.1449 167.448 25.4263 167.282 25.6861 167.086C27.6733 165.651 28.5132 162.677 27.6733 159.84C29.7341 158.678 32.1413 157.528 34.9208 156.579C36.7002 155.97 38.4017 155.527 40.0036 155.196C41.4626 157.257 43.0645 159.191 44.7876 160.977C44.9521 161.147 45.1123 161.317 45.2768 161.476C44.1122 164.316 42.3588 167.766 39.7135 171.265C37.1245 174.689 34.4316 177.183 32.1673 178.942C29.8943 177.183 26.92 177.22 25.0886 179.192C23.0062 181.441 23.2053 185.355 25.5389 187.933C27.8638 190.506 31.4486 190.772 33.531 188.523C35.3364 186.572 35.4273 183.361 33.886 180.867C35.6698 178.331 37.9947 175.47 40.9647 172.647C44.1511 169.617 47.2987 167.373 50.0392 165.72C53.6673 168.537 57.6763 170.818 61.9582 172.451C61.785 174.21 61.4949 176.108 61.023 178.102C59.9969 182.446 58.4513 185.929 57.0485 188.491C54.3037 187.891 51.5891 189.262 50.6583 191.888C49.6019 194.872 51.2514 198.349 54.3426 199.656C57.4339 200.966 60.7978 199.604 61.8542 196.616C62.7764 194.021 61.6464 191.054 59.3042 189.47C59.9666 186.38 61.01 182.728 62.6725 178.805C63.4864 176.89 64.3523 175.146 65.2399 173.556C68.5346 174.529 71.9721 175.125 75.5136 175.29C76.0938 178.32 76.5614 181.713 76.7865 185.418C77.1242 190.932 76.8515 195.812 76.3709 199.843C73.678 200.414 71.6691 202.732 71.6691 205.5C71.6691 208.699 74.3577 211.295 77.674 211.295C80.9904 211.295 83.6746 208.699 83.6746 205.5C83.6746 202.741 81.6744 200.428 78.9988 199.848C78.5486 195.727 78.3018 190.857 78.5573 185.418C78.7348 181.749 79.1157 178.363 79.6006 175.301C83.3023 175.146 86.8957 174.524 90.329 173.488C90.6234 174.04 90.9178 174.614 91.1949 175.205C93.0565 179.102 94.061 182.755 94.6065 185.679C92.2166 187.194 91.0044 190.139 91.8573 192.766C92.8444 195.781 96.1694 197.238 99.2996 196.025C102.421 194.808 104.153 191.378 103.17 188.363C102.3 185.69 99.5767 184.244 96.7928 184.796C95.5157 182.398 94.0307 178.778 93.5155 174.141C93.4505 173.567 93.4029 173.003 93.3726 172.451C97.1998 171.004 100.798 169.032 104.105 166.618C106.244 168.516 108.495 170.781 110.734 173.472C114.171 177.608 116.669 181.686 118.475 185.152C116.643 187.396 116.323 190.592 117.877 192.798C119.665 195.334 123.237 195.6 125.869 193.394C128.497 191.187 129.186 187.343 127.398 184.801C125.852 182.611 122.969 182.111 120.518 183.446C117.882 180.527 114.959 176.832 112.141 172.291C110.318 169.356 108.816 166.507 107.573 163.832C108.907 162.657 110.184 161.407 111.392 160.084C113.379 157.914 115.193 155.559 116.795 153.039C119.756 153.943 123.181 155.267 126.809 157.255C130.307 159.164 133.221 161.264 135.572 163.22C134.68 166.06 135.528 169.133 137.732 170.504C140.278 172.095 143.668 170.829 145.317 167.687C146.962 164.54 146.231 160.705 143.685 159.116C141.46 157.728 138.585 158.521 136.797 160.849C134.173 159.759 130.991 158.106 127.692 155.57C124.263 152.938 121.678 150.115 119.8 147.679C121.068 145.085 122.137 142.358 122.99 139.518C124.415 139.572 125.913 139.71 127.476 139.965C131.48 140.625 134.818 141.863 137.386 143.097C137.165 146.127 138.732 148.902 141.222 149.599C144.053 150.396 147.027 148.2 147.854 144.691C148.677 141.182 147.045 137.695 144.213 136.897C141.711 136.195 139.109 137.812 137.962 140.603C135.23 140.358 131.74 139.705 127.922 138.088C126.467 137.472 125.129 136.785 123.908 136.068C124.519 133.436 124.947 130.729 125.168 127.954C127.636 127.736 130.264 127.598 133.022 127.593C137.901 127.577 142.326 127.959 146.213 128.523C146.681 131.442 148.738 133.664 151.249 133.75C154.175 133.84 156.63 130.979 156.721 127.358C156.816 123.738 154.522 120.729 151.591 120.638Z" fill="#FA5752" fill-opacity="0.9"/>
<path d="M867.619 56.0613C866.118 56.0128 864.821 57.2859 864.453 59.0362C862.124 59.236 859.465 59.3037 856.548 59.1007C854.917 58.9849 853.375 58.7976 851.928 58.5656C851.935 58.2594 851.941 57.95 851.941 57.6406C851.941 56.1353 851.845 54.656 851.658 53.2088C852.394 52.5869 853.315 51.9326 854.428 51.3714C856.362 50.3919 858.174 50.0435 859.566 49.9437C860.252 51.6619 861.821 52.6606 863.33 52.2259C865.025 51.7359 865.994 49.6183 865.494 47.4942C864.994 45.3703 863.216 44.0421 861.521 44.5322C859.975 44.98 859.033 46.7787 859.256 48.7028C858.034 49.4701 856.219 50.3016 853.973 50.363C852.859 50.3951 851.889 50.2305 851.102 50.0177C850.602 47.7714 849.883 45.618 848.969 43.5876C849.937 42.6208 851.081 41.5957 852.422 40.6062C854.363 39.1687 856.235 38.1405 857.879 37.4027C858.95 38.7883 860.661 39.2493 861.979 38.4046C863.493 37.438 863.923 35.1074 862.934 33.2061C861.943 31.3041 859.905 30.55 858.391 31.52C857.071 32.3613 856.579 34.2311 857.123 35.9521C855.712 37.1642 853.975 38.4436 851.891 39.5848C850.473 40.3647 849.117 40.9577 847.89 41.4087C846.888 39.549 845.71 37.8151 844.393 36.2326C844.9 34.1956 845.757 31.8165 847.217 29.4317C848.586 27.2012 850.111 25.5737 851.405 24.429C852.828 25.4059 854.62 25.2543 855.64 23.9682C856.799 22.5116 856.533 20.1555 855.044 18.7049C853.558 17.2514 851.413 17.2546 850.258 18.7112C849.233 19.9975 849.318 21.9797 850.377 23.4269C849.541 24.9546 848.278 26.8497 846.419 28.6547C844.372 30.6469 842.311 31.8395 840.745 32.5486C838.964 31.0366 837.02 29.7537 834.942 28.7387C835.245 27.8137 835.643 26.8821 836.166 25.9668C836.586 25.2417 837.036 24.6031 837.494 24.046C839.078 24.7582 840.846 24.2452 841.644 22.7531C842.542 21.0868 841.887 18.8242 840.181 17.7025C838.478 16.5808 836.371 17.0223 835.475 18.692C834.691 20.1587 835.105 22.0858 836.371 23.2913C836.107 24.0649 835.786 24.8677 835.405 25.6861C834.97 26.6275 834.494 27.4945 833.994 28.2971C833.785 28.2036 833.573 28.1133 833.363 28.0299C830.886 27.0048 828.251 26.3571 825.504 26.1374C825.054 24.7903 824.66 23.2973 824.386 21.6574C823.824 18.3112 823.928 15.3988 824.187 13.2116C825.802 12.8689 827.013 11.4637 827.013 9.77994C827.013 7.83987 825.406 6.26684 823.423 6.26684C821.443 6.26684 819.835 7.83987 819.835 9.77994C819.835 11.4929 821.091 12.9174 822.745 13.2285C823.105 15.3836 823.34 18.4013 822.784 21.8989C822.538 23.4386 822.175 24.8419 821.751 26.1119C819.118 26.2765 816.584 26.8396 814.19 27.7472C813.856 27.1614 813.558 26.5463 813.292 25.8209C812.761 24.3846 812.531 23.0375 812.44 21.9167C813.988 21.0238 814.788 19.1505 814.239 17.4932C813.641 15.6704 811.643 14.8036 809.782 15.5568C807.921 16.3101 806.898 18.3981 807.499 20.2206C808.016 21.7936 809.575 22.6518 811.19 22.3743C811.661 23.447 812.111 24.6842 812.468 26.0892C812.655 26.8336 812.797 27.5611 812.906 28.2727C810.734 29.2261 808.694 30.4692 806.823 31.9567C805.837 31.1679 804.83 30.2518 803.836 29.178C801.545 26.7066 800.015 24.1718 799.011 22.1412C800.124 20.7777 800.318 18.8262 799.386 17.4814C798.317 15.9431 796.179 15.7805 794.608 17.1187C793.037 18.4566 792.628 20.7886 793.697 22.3267C794.639 23.6864 796.42 23.9691 797.903 23.0934C799.355 24.532 801.237 26.8021 802.697 30.0646C803.362 31.5567 803.828 33.0079 804.152 34.3613C803.851 34.667 803.551 34.9824 803.261 35.3041C801.796 36.9276 800.491 38.7252 799.371 40.6707C798.711 40.4596 798.027 40.2053 797.328 39.893C795.048 38.8774 793.282 37.5831 792.004 36.4554C792.547 34.7011 792.019 32.8081 790.666 31.9877C789.131 31.0552 787.114 31.8598 786.162 33.785C785.209 35.7104 785.68 38.0272 787.218 38.9594C788.569 39.7798 790.288 39.2556 791.333 37.809C792.886 38.4037 794.817 39.358 796.816 40.9247C797.411 41.3927 797.96 41.8741 798.467 42.3584C796.886 45.5128 795.783 48.9992 795.258 52.7007C793.891 52.8303 792.418 52.8917 790.839 52.8381C788.584 52.7609 786.547 52.4682 784.769 52.0871C784.727 50.1513 783.557 48.5307 781.971 48.3463C780.231 48.1439 778.65 49.7496 778.445 51.9334C778.236 54.1166 779.483 56.051 781.223 56.2534C782.773 56.4335 784.192 55.1801 784.632 53.3637C786.459 53.4047 788.509 53.5853 790.73 54.0085C792.265 54.3013 793.691 54.6752 795.004 55.0901C794.942 55.9308 794.911 56.781 794.911 57.6406C794.911 59.6825 795.084 61.6796 795.421 63.6151C793.912 64.7222 791.825 65.9784 789.175 66.8601C786.85 67.6337 784.756 67.8969 783.089 67.9534C782.491 66.2321 781.003 65.1586 779.494 65.4809C777.775 65.8491 776.682 67.8943 777.06 70.05C777.436 72.206 779.134 73.6552 780.855 73.287C782.341 72.9693 783.353 71.3971 783.358 69.5844C785.067 68.969 787.08 68.3921 789.374 68.0156C792.012 67.5841 794.375 67.5224 796.363 67.6182C797.163 70.2892 798.281 72.799 799.661 75.0963C799.011 75.6672 798.281 76.2312 797.468 76.7582C795.902 77.7676 794.401 78.3955 793.099 78.8012C792.213 77.2423 790.567 76.5099 789.146 77.1471C787.523 77.8757 786.806 80.1156 787.554 82.1495C788.02 83.4257 788.952 84.3218 789.982 84.628C790.59 84.8118 791.235 84.7892 791.838 84.5182C792.019 84.4379 792.188 84.3379 792.343 84.2186C793.531 83.3489 794.033 81.5462 793.531 79.826C794.763 79.1218 796.202 78.4245 797.864 77.8493C798.928 77.4802 799.945 77.2113 800.903 77.0106C801.775 78.2605 802.733 79.4329 803.763 80.5156C803.862 80.6183 803.957 80.7215 804.056 80.8181C803.36 82.5394 802.311 84.6312 800.73 86.7522C799.182 88.8276 797.572 90.3395 796.218 91.4062C794.859 90.3395 793.081 90.3619 791.986 91.5576C790.741 92.9213 790.86 95.2935 792.255 96.8568C793.645 98.4166 795.788 98.5778 797.033 97.2143C798.113 96.0316 798.167 94.0849 797.245 92.5729C798.312 91.0357 799.702 89.3015 801.478 87.59C803.383 85.7529 805.265 84.3926 806.903 83.3905C809.072 85.0986 811.469 86.4812 814.029 87.471C813.926 88.5377 813.752 89.6884 813.47 90.8969C812.857 93.5303 811.933 95.6416 811.094 97.1951C809.453 96.831 807.83 97.6622 807.273 99.2545C806.642 101.063 807.628 103.171 809.476 103.964C811.324 104.757 813.336 103.932 813.967 102.12C814.519 100.547 813.843 98.7487 812.443 97.7884C812.839 95.9154 813.462 93.7012 814.456 91.3228C814.943 90.1623 815.461 89.1051 815.991 88.1411C817.961 88.7309 820.017 89.0922 822.134 89.192C822.481 91.0291 822.76 93.0856 822.895 95.3322C823.097 98.6744 822.934 101.633 822.646 104.077C821.036 104.423 819.835 105.828 819.835 107.506C819.835 109.445 821.443 111.019 823.426 111.019C825.408 111.019 827.013 109.445 827.013 107.506C827.013 105.834 825.817 104.431 824.218 104.08C823.948 101.582 823.801 98.6294 823.954 95.3322C824.06 93.108 824.288 91.0552 824.578 89.1986C826.791 89.1051 828.939 88.7278 830.992 88.0995C831.168 88.4344 831.344 88.7826 831.51 89.1404C832.623 91.5031 833.223 93.7176 833.549 95.4902C832.12 96.4086 831.396 98.1941 831.906 99.7864C832.496 101.614 834.484 102.497 836.355 101.762C838.222 101.024 839.257 98.9451 838.669 97.1174C838.149 95.4968 836.521 94.6199 834.856 94.9551C834.093 93.5014 833.205 91.3064 832.897 88.4955C832.858 88.1477 832.83 87.8059 832.812 87.471C835.1 86.5942 837.251 85.3985 839.228 83.935C840.507 85.0857 841.853 86.4588 843.191 88.0898C845.247 90.5973 846.74 93.0696 847.82 95.1708C846.725 96.5313 846.533 98.4682 847.462 99.8059C848.532 101.343 850.667 101.504 852.241 100.167C853.812 98.829 854.224 96.4989 853.155 94.958C852.23 93.6304 850.507 93.3273 849.041 94.1365C847.465 92.3668 845.718 90.1268 844.033 87.3741C842.943 85.5949 842.045 83.8676 841.302 82.2461C842.099 81.5338 842.863 80.7763 843.585 79.974C844.773 78.6587 845.858 77.2308 846.815 75.7033C848.586 76.251 850.633 77.0536 852.803 78.259C854.894 79.4163 856.636 80.6891 858.042 81.8753C857.508 83.5966 858.016 85.4596 859.333 86.2911C860.855 87.2551 862.882 86.4878 863.868 84.583C864.852 82.6751 864.415 80.3508 862.893 79.3873C861.562 78.546 859.843 79.0263 858.774 80.4379C857.206 79.777 855.303 78.7749 853.331 77.2374C851.281 75.642 849.735 73.9304 848.612 72.454C849.37 70.8813 850.01 69.228 850.519 67.5067C851.371 67.5391 852.267 67.6228 853.201 67.7774C855.596 68.1774 857.591 68.9283 859.126 69.6761C858.994 71.513 859.931 73.1955 861.42 73.6176C863.113 74.1011 864.891 72.77 865.385 70.6427C865.877 68.5154 864.901 66.4013 863.208 65.9179C861.712 65.4921 860.156 66.4724 859.471 68.1642C857.837 68.0159 855.751 67.6196 853.468 66.6396C852.598 66.266 851.798 65.8499 851.068 65.4149C851.433 63.8195 851.689 62.1785 851.822 60.4965C853.297 60.3643 854.868 60.2806 856.517 60.2772C859.434 60.2674 862.08 60.4994 864.404 60.8412C864.684 62.6109 865.913 63.958 867.415 64.0096C869.164 64.0644 870.632 62.3302 870.687 60.1352C870.743 57.9403 869.372 56.116 867.619 56.0613" fill="#FA5752" fill-opacity="0.75"/>
<path d="M969.08 373.79C965.685 373.681 962.76 376.554 961.929 380.503C956.675 380.953 950.671 381.106 944.08 380.648C940.414 380.386 936.929 379.964 933.669 379.441C933.688 378.75 933.697 378.052 933.697 377.354C933.697 373.958 933.471 370.62 933.056 367.353C934.717 365.949 936.793 364.473 939.312 363.208C943.673 360.997 947.754 360.212 950.905 359.986C952.449 363.862 955.998 366.117 959.392 365.135C963.221 364.03 965.415 359.251 964.277 354.459C963.148 349.666 959.14 346.67 955.311 347.775C951.826 348.786 949.696 352.844 950.201 357.186C947.447 358.917 943.348 360.793 938.274 360.931C935.773 361.004 933.579 360.633 931.8 360.154C930.672 355.084 929.056 350.226 926.988 345.645C929.173 343.463 931.755 341.15 934.78 338.917C939.159 335.673 943.384 333.353 947.095 331.687C949.515 334.815 953.37 335.855 956.35 333.95C959.772 331.767 960.729 326.509 958.499 322.218C956.268 317.928 951.673 316.226 948.251 318.415C945.28 320.313 944.161 324.531 945.389 328.415C942.202 331.149 938.283 334.036 933.579 336.611C930.383 338.372 927.322 339.71 924.55 340.728C922.284 336.531 919.639 332.618 916.659 329.047C917.806 324.451 919.738 319.084 923.034 313.702C926.13 308.67 929.561 304.996 932.478 302.414C935.692 304.618 939.737 304.276 942.039 301.374C944.657 298.087 944.062 292.771 940.694 289.499C937.344 286.219 932.505 286.225 929.895 289.513C927.593 292.415 927.774 296.888 930.166 300.152C928.279 303.6 925.426 307.877 921.237 311.95C916.614 316.444 911.973 319.135 908.434 320.735C904.407 317.324 900.019 314.429 895.333 312.139C896.011 310.051 896.913 307.95 898.096 305.884C899.044 304.247 900.064 302.807 901.094 301.549C904.66 303.156 908.66 302 910.457 298.633C912.479 294.873 910.998 289.767 907.152 287.237C903.306 284.706 898.557 285.702 896.534 289.469C894.765 292.779 895.695 297.127 898.557 299.847C897.961 301.593 897.238 303.404 896.372 305.25C895.388 307.375 894.322 309.332 893.194 311.142C892.715 310.931 892.246 310.728 891.767 310.539C886.187 308.226 880.237 306.764 874.035 306.269C873.014 303.229 872.129 299.86 871.506 296.16C870.242 288.61 870.477 282.039 871.064 277.104C874.712 276.33 877.438 273.16 877.438 269.36C877.438 264.982 873.818 261.433 869.349 261.433C864.87 261.433 861.241 264.982 861.241 269.36C861.241 273.225 864.067 276.439 867.805 277.141C868.617 282.005 869.15 288.813 867.904 296.705C867.344 300.179 866.523 303.345 865.566 306.212C859.616 306.583 853.9 307.854 848.501 309.902C847.752 308.58 847.075 307.192 846.47 305.555C845.278 302.312 844.763 299.274 844.556 296.745C848.05 294.73 849.847 290.503 848.619 286.764C847.264 282.652 842.759 280.695 838.552 282.395C834.353 284.095 832.042 288.806 833.405 292.919C834.579 296.467 838.091 298.404 841.73 297.777C842.795 300.198 843.815 302.989 844.61 306.16C845.043 307.84 845.359 309.482 845.603 311.088C840.7 313.239 836.105 316.044 831.879 319.401C829.658 317.62 827.383 315.553 825.135 313.131C819.961 307.554 816.512 301.833 814.246 297.252C816.756 294.176 817.199 289.772 815.095 286.738C812.684 283.266 807.854 282.9 804.305 285.919C800.766 288.939 799.845 294.2 802.247 297.671C804.387 300.738 808.396 301.376 811.754 299.4C815.023 302.647 819.275 307.769 822.562 315.131C824.069 318.498 825.117 321.772 825.857 324.825C825.18 325.515 824.494 326.227 823.835 326.953C820.539 330.616 817.587 334.672 815.059 339.062C813.569 338.587 812.025 338.011 810.445 337.307C805.308 335.016 801.326 332.095 798.437 329.55C799.665 325.592 798.464 321.322 795.412 319.47C791.954 317.365 787.404 319.181 785.255 323.526C783.097 327.869 784.162 333.097 787.638 335.201C790.681 337.052 794.563 335.869 796.92 332.605C800.423 333.947 804.793 336.1 809.298 339.636C810.644 340.692 811.872 341.778 813.018 342.87C809.452 349.988 806.96 357.855 805.777 366.207C802.698 366.498 799.376 366.638 795.809 366.516C790.717 366.343 786.122 365.682 782.104 364.822C782.013 360.454 779.377 356.798 775.802 356.382C771.865 355.924 768.299 359.548 767.829 364.475C767.369 369.402 770.177 373.767 774.104 374.223C777.607 374.63 780.804 371.802 781.806 367.702C785.923 367.794 790.546 368.202 795.557 369.158C799.033 369.819 802.238 370.662 805.208 371.599C805.064 373.496 805.001 375.414 805.001 377.354C805.001 381.961 805.389 386.466 806.147 390.834C802.735 393.333 798.04 396.167 792.053 398.157C786.808 399.903 782.086 400.497 778.321 400.625C776.966 396.74 773.608 394.317 770.204 395.044C766.331 395.874 763.866 400.49 764.714 405.354C765.563 410.219 769.4 413.489 773.274 412.659C776.632 411.941 778.917 408.394 778.926 404.304C782.781 402.916 787.331 401.613 792.505 400.765C798.446 399.79 803.782 399.65 808.278 399.867C810.075 405.895 812.603 411.557 815.718 416.74C814.246 418.029 812.612 419.301 810.761 420.49C807.231 422.768 803.845 424.185 800.902 425.101C798.915 421.582 795.195 419.93 791.981 421.368C788.325 423.012 786.708 428.066 788.388 432.656C789.444 435.536 791.548 437.558 793.877 438.249C795.25 438.663 796.703 438.613 798.067 438.002C798.464 437.82 798.852 437.594 799.204 437.325C801.877 435.363 803.014 431.295 801.886 427.413C804.667 425.824 807.917 424.25 811.655 422.952C814.066 422.12 816.359 421.512 818.517 421.06C820.485 423.88 822.652 426.526 824.972 428.968C825.189 429.201 825.415 429.434 825.631 429.651C824.06 433.536 821.695 438.256 818.128 443.041C814.634 447.725 811.005 451.135 807.944 453.544C804.883 451.135 800.865 451.187 798.401 453.885C795.584 456.961 795.855 462.314 799.006 465.842C802.139 469.361 806.978 469.726 809.786 466.649C812.233 463.979 812.35 459.587 810.273 456.176C812.675 452.706 815.808 448.794 819.808 444.932C824.115 440.787 828.358 437.718 832.06 435.456C836.953 439.31 842.362 442.43 848.131 444.663C847.905 447.07 847.517 449.666 846.876 452.394C845.486 458.336 843.409 463.1 841.522 466.606C837.811 465.783 834.145 467.66 832.89 471.253C831.473 475.333 833.703 480.089 837.874 481.878C842.037 483.667 846.569 481.805 848.005 477.718C849.242 474.169 847.725 470.111 844.556 467.943C845.45 463.718 846.867 458.72 849.106 453.353C850.208 450.736 851.372 448.35 852.564 446.176C857.015 447.507 861.647 448.322 866.432 448.547C867.209 452.693 867.841 457.332 868.148 462.402C868.608 469.943 868.238 476.62 867.588 482.132C863.958 482.911 861.241 486.081 861.241 489.871C861.241 494.25 864.861 497.798 869.349 497.798C873.818 497.798 877.438 494.25 877.438 489.871C877.438 486.096 874.739 482.932 871.127 482.139C870.522 476.503 870.197 469.842 870.54 462.402C870.775 457.382 871.29 452.75 871.94 448.561C876.942 448.35 881.79 447.5 886.422 446.081C886.819 446.837 887.208 447.623 887.587 448.431C890.106 453.761 891.46 458.758 892.191 462.758C888.968 464.831 887.325 468.86 888.49 472.453C889.808 476.576 894.304 478.569 898.521 476.91C902.728 475.245 905.075 470.554 903.748 466.431C902.574 462.773 898.9 460.793 895.144 461.55C893.419 458.27 891.415 453.317 890.72 446.976C890.629 446.19 890.566 445.42 890.53 444.663C895.686 442.685 900.543 439.987 905.012 436.685C907.892 439.281 910.926 442.379 913.942 446.059C918.582 451.717 921.959 457.296 924.397 462.037C921.923 465.107 921.499 469.478 923.584 472.496C926.004 475.965 930.825 476.329 934.374 473.31C937.913 470.293 938.834 465.035 936.432 461.558C934.347 458.561 930.455 457.877 927.151 459.703C923.593 455.71 919.648 450.656 915.847 444.445C913.391 440.43 911.359 436.533 909.689 432.874C911.486 431.267 913.201 429.557 914.845 427.746C917.517 424.779 919.964 421.557 922.131 418.11C926.13 419.347 930.744 421.158 935.638 423.877C940.36 426.489 944.296 429.361 947.465 432.038C946.265 435.922 947.402 440.125 950.382 442.001C953.813 444.176 958.39 442.445 960.611 438.147C962.832 433.842 961.839 428.597 958.408 426.422C955.411 424.525 951.519 425.609 949.118 428.794C945.578 427.302 941.281 425.041 936.83 421.572C932.207 417.972 928.713 414.11 926.185 410.779C927.891 407.231 929.336 403.5 930.491 399.616C932.405 399.689 934.437 399.878 936.532 400.227C941.94 401.129 946.445 402.823 949.912 404.51C949.614 408.656 951.727 412.452 955.077 413.405C958.905 414.496 962.914 411.492 964.033 406.693C965.144 401.893 962.95 397.121 959.112 396.03C955.754 395.069 952.242 397.281 950.68 401.099C947.005 400.765 942.283 399.87 937.127 397.659C935.177 396.815 933.372 395.877 931.728 394.895C932.55 391.296 933.128 387.593 933.426 383.797C936.757 383.499 940.297 383.31 944.025 383.302C950.598 383.281 956.575 383.804 961.821 384.575C962.453 388.568 965.225 391.608 968.611 391.725C972.565 391.848 975.879 387.935 975.996 382.983C976.123 378.031 973.026 373.914 969.08 373.79" fill="#FA5752" fill-opacity="0.92"/>
<path d="M738.301 256.776V625.742" stroke="#925D51" stroke-width="5.81" stroke-miterlimit="10"/>
<path d="M671.639 255.464C671.639 255.464 729.799 282.087 804.363 252.332L764.096 153.673L704.45 152.106L671.639 255.464Z" fill="#AC6352"/>
<path d="M779.882 192.35C756.447 221.007 718.387 233.074 678.451 234.005L671.639 255.464C671.639 255.464 729.799 282.087 804.364 252.332L779.882 192.35Z" fill="#984B39"/>
<rect x="221.157" y="682.478" width="602.338" height="15.1658" rx="7.58292" fill="#925D51"/>
<path fill-rule="evenodd" clip-rule="evenodd" d="M522.85 352.448C522.18 352.335 521.5 352.28 520.812 352.28H367.734H367.601C357.027 352.28 348.478 352.279 348.478 394.213V618.986C348.478 613.336 351.182 614.919 355.428 617.407C358.765 619.362 363.054 621.875 367.734 621.875H520.812C522.278 621.875 523.707 621.628 525.079 621.228H675.054C681.559 621.228 687.522 618.723 692.161 616.774C698.063 614.294 701.821 612.715 701.821 618.347V394.254C701.821 352.447 689.936 352.447 675.238 352.448H675.054H522.85Z" fill="#F5C827"/>
<g opacity="0.699997">
<g opacity="0.699997">
<path d="M360.784 469.361V618.575C360.784 607.851 368.525 621.646 378.074 621.646H515.53C522.488 621.646 528.482 614.332 531.225 614.505V618.575C531.225 616.534 531.505 615.385 532.019 614.857C532.538 615.385 532.82 616.534 532.82 618.575V614.503C535.545 614.359 541.473 621.646 548.353 621.646H684.511C693.971 621.646 701.639 607.851 701.639 618.575V379.681C701.639 377.291 701.613 375.055 701.57 372.913L360.784 469.361Z" fill="#DCB21D"/>
</g>
</g>
<path d="M376.064 580.266C376.064 595.411 368.045 607.687 358.154 607.687H318.752C308.86 607.687 300.84 595.411 300.84 580.266V481.553C300.84 466.409 308.86 454.132 318.752 454.132H358.154C368.045 454.132 376.064 466.409 376.064 481.553V580.266Z" fill="#EBAFB2"/>
<path d="M392.446 591.203C392.446 607.674 380.811 621.027 366.459 621.027H309.29C294.937 621.027 283.303 607.674 283.303 591.203V483.838C283.303 467.366 294.937 454.014 309.29 454.014H366.459C380.811 454.014 392.446 467.366 392.446 483.838V591.203Z" fill="#CAA41E"/>
<path d="M793.655 591.458C793.655 607.981 782.181 621.375 768.028 621.375H711.65C697.497 621.375 686.024 607.981 686.024 591.458V483.757C686.024 467.234 697.497 453.84 711.65 453.84H768.028C782.181 453.84 793.655 467.234 793.655 483.757V591.458Z" fill="#CAA41E"/>
<path d="M325.703 717.519C325.703 722.754 322.54 726.999 318.638 726.999C314.734 726.999 311.57 722.754 311.57 717.519V684.765C311.57 679.53 314.734 675.285 318.638 675.285C322.54 675.285 325.703 679.53 325.703 684.765V717.519Z" fill="#925D51"/>
<path d="M764.626 715.823C764.626 721.059 761.462 725.304 757.559 725.304C753.656 725.304 750.493 721.059 750.493 715.823V683.069C750.493 677.834 753.656 673.589 757.559 673.589C761.462 673.589 764.626 677.834 764.626 683.069V715.823Z" fill="#925D51"/>
<path d="M776.453 454.014H756.638C746.688 454.014 738.623 466.296 738.623 481.448V618.617H336.007V481.448C336.007 466.296 327.942 454.014 317.993 454.014H298.178C288.229 454.014 280.164 466.296 280.164 481.448V669.37C280.164 677.3 282.386 684.421 285.919 689.431C289.206 694.799 293.879 698.175 299.08 698.175L776.453 696.804C786.403 696.804 794.468 684.521 794.468 669.37V481.448C794.468 466.296 786.403 454.014 776.453 454.014Z" fill="#F5C827"/>
<path d="M438.621 468.427H365.305C362.515 468.427 360.254 471.275 360.254 474.788V567.142C360.254 570.655 362.515 573.503 365.305 573.503H438.621C441.41 573.503 443.671 570.655 443.671 567.142V474.788C443.671 471.275 441.41 468.427 438.621 468.427Z" fill="white"/>
<path d="M722.338 478.465L655.666 465.901C653.129 465.423 650.618 467.847 650.057 471.315L635.305 562.482C634.744 565.951 636.345 569.15 638.881 569.628L705.554 582.192C708.091 582.669 710.602 580.245 711.163 576.777L725.915 485.61C726.476 482.142 724.875 478.943 722.338 478.465Z" fill="white"/>
<path fill-rule="evenodd" clip-rule="evenodd" d="M521.253 639.573C521.237 639.573 521.221 639.573 521.205 639.573H352.956C343.327 639.573 335.521 626.214 335.521 609.733V582.878C335.521 566.398 343.327 553.038 352.956 553.038H521.205C522.671 553.038 524.094 553.348 525.454 553.93H714.763C728.3 553.93 739.274 567.152 739.274 583.463V610.041C739.274 626.351 728.3 639.573 714.763 639.573H521.253Z" fill="#FFE792"/>
<path d="M479.075 308.005C476.564 307.787 474.224 306.549 472.505 304.56C468.013 299.358 461.58 287.262 470.793 265.778C487.946 225.77 550.673 231.772 565.635 260.844C576.28 281.525 586.87 285.629 581.156 291.851C575.643 297.857 510.311 310.728 479.075 308.005Z" fill="#FF504A"/>
<path d="M589.635 548.368C589.567 548.379 589.494 548.389 589.426 548.399C575.861 550.533 562.104 552.493 548.308 553.644C547.518 553.707 546.726 553.773 545.933 553.826C531.334 554.946 516.695 555.115 502.208 553.575C497.457 553.071 492.718 552.375 488.029 551.449C477.546 549.382 470.481 538.685 472.178 527.329C473.777 516.668 474.821 506.567 475.509 497.073C475.611 495.661 475.711 494.267 475.793 492.886C476.488 481.802 476.714 471.596 476.788 462.324C476.791 461.536 476.797 460.756 476.8 459.985C476.8 459.636 476.807 459.288 476.807 458.948C476.81 458.418 476.81 457.894 476.81 457.376C476.816 457.022 476.816 456.673 476.816 456.332C476.816 455.609 476.819 454.904 476.816 454.199C476.826 452.031 476.819 449.925 476.826 447.882V447.338C476.829 440.263 476.856 433.929 477.119 428.376C477.128 428.123 477.138 427.876 477.157 427.627C477.215 426.474 477.269 425.33 477.321 424.203C477.367 423.11 477.417 422.027 477.453 420.956C477.562 417.949 477.636 415.051 477.68 412.284C477.707 409.956 477.707 407.725 477.674 405.609C477.633 403.261 477.556 401.061 477.433 399.022C477.385 398.348 477.343 397.652 477.292 396.937C477.215 395.854 477.132 394.73 477.045 393.575C476.993 392.874 476.938 392.167 476.871 391.449C476.843 391.135 476.819 390.817 476.791 390.495C476.788 390.415 476.778 390.338 476.774 390.265C476.736 389.821 476.698 389.378 476.662 388.927C476.621 388.489 476.58 388.052 476.54 387.609C476.476 386.837 476.405 386.051 476.326 385.257C475.988 381.555 475.596 377.67 475.197 373.687C475.066 372.439 474.938 371.172 474.809 369.903C474.602 367.938 474.394 365.951 474.192 363.974C474.053 362.697 473.919 361.42 473.787 360.145C471.763 340.939 469.86 322.551 470.536 316.716C471.708 306.612 517.033 279.941 517.033 279.941L544.239 279.018C544.239 279.018 582.427 295.627 589.472 305.653C589.51 305.702 589.542 305.754 589.576 305.8C591.174 308.161 592.18 311.442 592.756 315.498C593.271 319.064 593.454 323.224 593.416 327.889C593.399 331.21 593.265 334.789 593.066 338.585C592.857 342.608 592.571 346.879 592.257 351.35C592.167 352.651 592.073 353.969 591.978 355.302C591.88 356.658 591.787 358.025 591.691 359.409C591.63 360.303 591.568 361.206 591.507 362.112C591.341 364.501 591.179 366.934 591.032 369.399C590.985 370.195 590.933 370.998 590.885 371.804C590.854 372.311 590.827 372.827 590.802 373.338C590.772 373.861 590.743 374.382 590.716 374.908V374.918C590.691 375.402 590.663 375.88 590.642 376.362C590.609 376.887 590.587 377.413 590.564 377.941C590.518 378.908 590.47 379.877 590.434 380.854C590.396 381.659 590.366 382.473 590.338 383.285C590.327 383.429 590.322 383.58 590.322 383.726C590.297 384.251 590.278 384.777 590.265 385.298L590.258 385.572L590.251 385.703C590.232 386.39 590.21 387.088 590.193 387.779C590.168 388.61 590.149 389.439 590.13 390.265C590.122 390.647 590.119 391.04 590.112 391.428C590.103 391.77 590.1 392.125 590.094 392.472C590.094 392.649 590.09 392.819 590.09 393C590.081 393.478 590.075 393.957 590.07 394.449C590.064 395.264 590.062 396.09 590.062 396.937V398.275C590.064 400.616 590.087 403.063 590.13 405.609C590.146 406.659 590.168 407.725 590.19 408.807C590.213 409.952 590.242 411.11 590.269 412.284C590.338 414.749 590.412 417.268 590.505 419.832C590.515 420.207 590.526 420.578 590.541 420.956C590.548 421.109 590.551 421.261 590.557 421.414C590.586 422.25 590.616 423.089 590.652 423.939C590.701 425.16 590.753 426.394 590.798 427.627C590.851 428.962 590.936 430.377 591.044 431.869C591.179 433.735 591.35 435.714 591.559 437.805C591.604 438.293 591.656 438.789 591.712 439.286C591.797 440.088 591.88 440.905 591.984 441.735C592.041 442.256 592.098 442.773 592.163 443.303C592.202 443.637 592.241 443.972 592.284 444.309C592.434 445.566 592.596 446.858 592.768 448.173C592.787 448.319 592.806 448.464 592.823 448.61C592.912 449.276 593.008 449.945 593.093 450.626C593.268 451.924 593.457 453.249 593.648 454.59C593.705 454.967 593.757 455.35 593.812 455.73C594.143 458.015 594.5 460.358 594.872 462.753C594.937 463.171 595.008 463.6 595.074 464.027C595.222 464.97 595.375 465.921 595.528 466.878C596.064 470.212 596.632 473.622 597.225 477.087C597.917 481.094 598.638 485.17 599.386 489.277C599.997 492.656 600.631 496.053 601.272 499.45C602.77 507.397 604.328 515.34 605.866 523.004C608.264 534.937 600.825 546.606 589.635 548.368Z" fill="white"/>
<path d="M592.758 315.499C572.882 320.098 554.443 321.411 539.879 321.411C537.233 321.411 534.716 321.368 532.339 321.295C509.839 320.585 495.204 317.063 494.59 316.917L495.65 311.86L496.707 306.804H496.71C496.997 306.874 511.351 310.285 532.875 310.94C547.413 311.381 567.501 310.596 589.474 305.653C589.511 305.703 589.544 305.752 589.577 305.8C591.174 308.161 592.182 311.443 592.758 315.499Z" fill="#1DB776" fill-opacity="0.56"/>
<path d="M593.416 327.89C593.397 331.21 593.263 334.789 593.064 338.585C573.625 343.046 555.502 344.36 540.912 344.36C537.299 344.36 533.904 344.28 530.757 344.146C508.272 343.196 493.674 339.518 493.064 339.361L495.275 329.27C495.419 329.308 509.768 332.906 531.388 333.795C547.096 334.445 569.304 333.728 593.416 327.89Z" fill="#1DB776" fill-opacity="0.56"/>
<path d="M592.259 351.35C592.169 352.651 592.074 353.969 591.98 355.302C591.882 356.658 591.789 358.025 591.693 359.409C591.631 360.303 591.57 361.206 591.506 362.112C573.192 366.108 556.065 367.332 541.963 367.332C537.356 367.332 533.079 367.203 529.183 366.999C506.714 365.805 492.153 361.969 491.543 361.809L493.847 351.742C493.989 351.778 508.304 355.53 529.908 356.654C545.668 357.473 567.988 356.991 592.259 351.35Z" fill="#1DB776" fill-opacity="0.56"/>
<path d="M590.719 374.908V374.918C590.694 375.403 590.667 375.88 590.645 376.362C590.613 376.888 590.591 377.412 590.566 377.94C590.52 378.907 590.474 379.876 590.437 380.854C590.4 381.659 590.369 382.473 590.342 383.285C590.331 383.428 590.325 383.58 590.325 383.726C590.299 384.251 590.282 384.777 590.269 385.298L590.26 385.572C572.926 389.187 556.668 390.335 543.013 390.335C537.401 390.335 532.233 390.144 527.605 389.846C505.152 388.412 490.627 384.418 490.02 384.251L492.417 374.211H492.42C492.551 374.249 496.179 375.235 502.46 376.382C508.741 377.53 517.674 378.838 528.425 379.514C544.154 380.503 566.438 380.263 590.719 374.908Z" fill="#1DB776" fill-opacity="0.56"/>
<path d="M490.987 396.683L489.745 401.689L490.99 396.683H490.987ZM590.134 405.608C590.092 403.063 590.068 400.616 590.065 398.275C565.429 403.531 542.833 403.545 526.946 402.371C505.458 400.79 491.251 396.756 490.99 396.683L489.745 401.689L488.5 406.695C489.104 406.868 503.588 411.02 526.026 412.695C531.366 413.097 537.427 413.366 544.062 413.366C557.552 413.366 573.383 412.247 590.192 408.806C590.172 407.725 590.15 406.659 590.134 405.608Z" fill="#1DB776" fill-opacity="0.56"/>
<path d="M591.047 431.868C574.398 435.289 558.657 436.426 545.105 436.426C537.439 436.426 530.476 436.062 524.446 435.548C502.026 433.624 487.58 429.319 486.975 429.138L488.268 424.146L489.556 419.153H489.558C489.788 419.223 503.964 423.414 525.461 425.234C541.754 426.612 565.121 426.818 590.559 421.413C590.588 422.251 590.619 423.09 590.654 423.938C590.703 425.159 590.755 426.394 590.802 427.628C590.854 428.961 590.939 430.376 591.047 431.868Z" fill="#1DB776" fill-opacity="0.56"/>
<path d="M593.65 454.59C576.509 458.281 560.223 459.512 546.14 459.512C537.434 459.512 529.574 459.041 522.869 458.395C500.462 456.231 486.055 451.77 485.451 451.583L488.127 441.627V441.623C488.266 441.667 502.428 446.035 523.977 448.092C540.926 449.713 565.566 450.146 592.286 444.308C592.436 445.567 592.598 446.858 592.77 448.172C592.789 448.318 592.808 448.463 592.827 448.61C592.914 449.275 593.01 449.945 593.095 450.626C593.27 451.925 593.46 453.248 593.65 454.59Z" fill="#1DB776" fill-opacity="0.56"/>
<path d="M597.227 477.087C579.24 481.243 562.052 482.624 547.16 482.624C537.415 482.624 528.653 482.033 521.286 481.243C498.895 478.836 484.527 474.221 483.926 474.024L486.695 464.098C486.834 464.141 500.958 468.663 522.491 470.954C540.415 472.861 566.957 473.532 595.53 466.877C596.066 470.211 596.632 473.622 597.227 477.087Z" fill="#1DB776" fill-opacity="0.56"/>
<path d="M601.272 499.451C582.27 504.196 564.01 505.768 548.172 505.768C537.38 505.768 527.716 505.039 519.706 504.089C497.334 501.439 483.001 496.668 482.404 496.467L483.836 491.517L485.263 486.569L485.266 486.573C485.488 486.644 499.557 491.296 521.007 493.814C540.014 496.043 568.743 496.987 599.386 489.277C599.997 492.655 600.631 496.052 601.272 499.451Z" fill="#1DB776" fill-opacity="0.56"/>
<path d="M528.106 534.422C529.026 491.677 522.247 441.941 522.304 399.185C522.356 360.849 524.95 322.789 524.922 284.453C516.452 285.141 512.813 286.702 512.813 286.702C512.813 286.702 504.713 294.164 478.358 303.437C453.505 312.18 458.124 411.292 459.635 466.764C461.144 522.239 460.545 557.409 509.402 564.15C513.991 564.784 518.499 565.342 522.913 565.811C522.987 553.125 527.833 547.138 528.106 534.422Z" fill="#FB4C47"/>
<path d="M475.103 421.714C474.578 421.714 474.105 421.318 473.991 420.739C473.859 420.076 474.251 419.422 474.867 419.279C475.489 419.135 490.155 415.53 495.211 396.571C495.383 395.917 496.015 395.543 496.621 395.728C497.225 395.916 497.575 396.599 497.4 397.251C491.956 417.674 476.016 421.532 475.34 421.687C475.261 421.706 475.18 421.714 475.103 421.714Z" fill="#B63A37"/>
<path d="M517.755 526.001C517.282 526.001 516.885 525.603 516.858 525.085C512.925 448.544 509.796 373.725 514.647 299.876C514.683 299.341 515.115 298.941 515.607 298.977C516.104 299.014 516.476 299.479 516.441 300.014C511.595 373.749 514.722 448.502 518.654 524.976C518.681 525.513 518.301 525.971 517.806 526C517.788 526.001 517.773 526.001 517.755 526.001Z" fill="#B63A37"/>
<path d="M612.91 342.258C614.088 302.77 596.472 292.347 561.318 286.655C561.181 286.632 561.047 286.61 560.91 286.59C560.345 293.113 560.552 299.739 560.946 306.252C561.577 316.668 562.696 327.024 563.084 337.457C564.709 380.993 568.655 410.563 565.415 467.704C562.979 510.651 569.337 533.193 570.451 565.736C590.407 562.444 606.113 553.675 615.785 535.88C633.929 502.493 611.734 381.747 612.91 342.258Z" fill="#FB4C47"/>
<path d="M608.781 420.383C608.696 420.383 608.613 420.374 608.526 420.352C608.291 420.294 584.917 414.101 580.967 377.398C580.894 376.724 581.342 376.112 581.968 376.036C582.597 375.952 583.159 376.441 583.23 377.115C586.997 412.111 608.814 417.9 609.035 417.953C609.649 418.104 610.032 418.765 609.892 419.427C609.772 419.996 609.302 420.383 608.781 420.383Z" fill="#B63A37"/>
<path d="M573.133 518.979C572.701 518.979 572.319 518.642 572.246 518.165C570.598 507.36 571.231 478.368 571.844 450.334C572.309 429.007 572.749 408.863 572.235 396.728C570.499 355.643 565.299 298.264 565.247 297.69C565.198 297.157 565.56 296.682 566.053 296.629C566.544 296.578 566.988 296.966 567.036 297.499C567.088 298.075 572.292 355.502 574.032 396.637C574.547 408.841 574.107 429.017 573.64 450.38C573.03 478.326 572.399 507.223 574.021 517.85C574.101 518.378 573.77 518.879 573.279 518.966C573.23 518.974 573.182 518.979 573.133 518.979Z" fill="#B63A37"/>
<path d="M541.171 196.088L523.885 202.866C523.885 202.866 518.7 210.587 511.901 208.995C509.174 208.354 506.189 206.217 503.172 201.489C492.634 184.958 518.052 162.056 533.329 165.905C540.821 167.791 542.853 175.093 542.974 182.042C543.102 189.256 541.171 196.088 541.171 196.088Z" fill="#002014"/>
<path d="M541.171 196.088L523.884 202.866C523.884 202.866 518.699 210.587 511.9 208.995C511.9 200.433 523.023 184.78 542.973 182.042C543.101 189.256 541.171 196.088 541.171 196.088Z" fill="#FFD339"/>
<path d="M540.884 163.065C540.571 163.065 540.232 163.104 539.865 163.183C538.969 163.377 538.389 163.847 538.04 164.662C536.487 168.293 539.762 176.939 542.103 182.048C543.549 176.381 545.282 166.908 542.833 163.923C542.361 163.35 541.719 163.065 540.884 163.065ZM542.375 186.311C541.986 186.311 541.622 186.085 541.429 185.71C540.601 184.108 533.422 169.878 536.072 163.682C536.709 162.192 537.875 161.224 539.441 160.887C542.109 160.313 543.642 161.378 544.456 162.37C548.711 167.557 543.962 183.686 543.407 185.508C543.271 185.949 542.908 186.262 542.48 186.306C542.445 186.31 542.41 186.311 542.375 186.311Z" fill="#FFD339"/>
<path d="M555.5 168.823C555.398 168.823 555.294 168.83 555.19 168.847C551.526 169.373 547.099 177.763 544.759 183.07C549.624 180.859 557.341 176.634 558.366 172.793C558.596 171.928 558.441 171.163 557.882 170.383C557.128 169.336 556.347 168.823 555.5 168.823ZM542.679 186.386C542.387 186.386 542.102 186.26 541.895 186.025C541.597 185.688 541.512 185.194 541.677 184.765C542.362 182.996 548.541 167.442 554.903 166.526C556.122 166.351 557.924 166.627 559.593 168.946C560.574 170.308 560.87 171.863 560.449 173.44C558.699 179.997 544.645 185.688 543.049 186.316C542.928 186.364 542.803 186.386 542.679 186.386Z" fill="#FFD339"/>
<path d="M510.594 211.425C506.818 210.815 502.573 208.643 499.908 202.64C493.614 188.472 508.667 176.515 508.82 176.396C509.127 176.156 509.556 176.232 509.778 176.563C510.001 176.895 509.931 177.359 509.624 177.6C509.48 177.712 495.351 188.952 501.146 201.998C506.317 213.638 517.702 209.543 518.183 209.361C518.544 209.228 518.933 209.434 519.058 209.821C519.181 210.207 518.992 210.63 518.632 210.764C518.564 210.79 514.882 212.116 510.594 211.425Z" fill="#002014"/>
<path d="M560.677 213.176C560.677 213.176 567.424 243.763 558.053 263.561C548.684 283.359 539.269 288.751 552.724 294.902C566.18 301.05 581.488 289.337 591.761 295.43C604.163 302.784 590.257 241.059 584.059 214.937C577.714 188.208 547.586 185.217 547.586 185.217L560.677 213.176Z" fill="#002014"/>
<path d="M578.511 235.154C578.511 235.154 590.566 205.344 567.963 191.311C545.359 177.279 522.528 187.877 516.445 204.032C510.363 220.188 519.677 230.815 519.677 230.815L578.511 235.154Z" fill="#002014"/>
<path d="M539.772 298.097C546.296 300.053 548.906 296.931 550.909 294.608L552.257 281.979L553.046 274.613L553.21 273.528L550.21 273.169L528.078 266.276L525.085 281.449L523.662 288.643C526.507 291.543 530.287 295.253 539.772 298.097Z" fill="#FBB990"/>
<path d="M552.256 281.978C545.397 285.317 531.871 283.8 525.083 281.449C525.059 281.445 525.042 281.437 525.018 281.428L528.076 266.275L550.209 273.168L553.208 273.527L553.044 274.612L552.256 281.978Z" fill="#181818"/>
<path d="M570.327 235.338C570.327 235.338 583.469 231.214 580.891 243.749C578.05 257.552 567.588 253.634 565.787 252.74L570.327 235.338Z" fill="#FB9476"/>
<path d="M560.885 258.263C560.158 263.515 563.524 268.426 568.387 269.211C573.252 269.995 577.801 266.362 578.528 261.109C579.148 256.629 576.784 252.406 573.06 250.771C573.054 250.78 573.047 250.79 573.041 250.805C572.415 250.982 572.284 251.503 572.226 252.07C575.528 253.339 577.652 257 577.116 260.882C576.506 265.291 572.686 268.345 568.599 267.687C564.516 267.028 561.686 262.9 562.297 258.492C562.571 256.499 563.501 254.786 564.815 253.569C565.156 253.256 565.522 252.973 565.908 252.728C565.564 252.392 565.238 252.002 564.949 251.556C564.594 251.795 564.247 252.065 563.929 252.362C562.342 253.814 561.215 255.871 560.885 258.263Z" fill="white"/>
<path d="M571.797 248.642C571.771 248.639 571.746 248.632 571.721 248.625C571.341 248.518 571.111 248.097 571.21 247.685C572.672 241.601 576.821 239.493 576.996 239.406C577.354 239.231 577.778 239.399 577.942 239.788C578.105 240.174 577.949 240.631 577.592 240.808C577.436 240.886 573.875 242.73 572.592 248.073C572.498 248.458 572.153 248.7 571.797 248.642Z" fill="#FA7764"/>
<path d="M576.499 246.081C576.297 246.049 576.11 245.925 575.996 245.722C575.976 245.688 575.097 244.183 573.84 244.166C573.448 244.164 573.131 243.813 573.134 243.388C573.14 242.962 573.462 242.621 573.856 242.627C575.905 242.649 577.162 244.827 577.214 244.918C577.419 245.283 577.311 245.756 576.975 245.978C576.827 246.075 576.658 246.107 576.499 246.081Z" fill="#FA7764"/>
<path d="M577.534 233.618C576.717 238.604 575.458 243.448 573.892 247.991C573.187 250.05 572.411 252.044 571.59 253.961C565.799 267.474 557.475 277.211 550.826 278.053C540.299 279.39 528.35 273.837 522.491 259.015C521.534 256.594 520.531 253.668 520.051 250.222C519.986 249.743 519.923 249.253 519.87 248.752C518.152 233.353 521.77 211.399 521.77 211.399C530.398 197.491 548.948 201.198 559.708 203.11C570.476 205.025 581.282 210.803 577.534 233.618Z" fill="#FFC29C"/>
<path d="M547.914 270.095C545.629 269.727 544.279 268.608 544.22 268.561C543.91 268.298 543.853 267.815 544.096 267.479C544.337 267.144 544.784 267.083 545.094 267.343C545.118 267.362 546.327 268.336 548.345 268.603C550.401 268.874 551.779 268.361 551.792 268.356C552.163 268.215 552.571 268.424 552.704 268.823C552.836 269.221 552.645 269.662 552.276 269.805C552.208 269.833 550.587 270.451 548.173 270.132C548.084 270.122 547.999 270.108 547.914 270.095Z" fill="#FB9476"/>
<path d="M507.846 417.898C507.389 417.898 506.963 417.583 506.815 417.088C505.265 411.933 504.195 406.118 504.15 405.873C504.035 405.238 504.416 404.623 505.005 404.497C505.59 404.373 506.162 404.785 506.277 405.42C506.288 405.48 507.369 411.346 508.878 416.366C509.062 416.98 508.75 417.641 508.181 417.84C508.07 417.879 507.957 417.898 507.846 417.898Z" fill="#108A57"/>
<path d="M513.636 415.801C513.183 415.801 512.762 415.494 512.609 415.006C510.996 409.875 509.855 404.079 509.808 403.835C509.683 403.202 510.059 402.581 510.645 402.448C511.231 402.313 511.805 402.718 511.929 403.35C511.94 403.41 513.092 409.257 514.662 414.253C514.855 414.866 514.55 415.53 513.984 415.738C513.867 415.78 513.751 415.801 513.636 415.801Z" fill="#108A57"/>
<path d="M519.429 413.703C518.983 413.703 518.565 413.403 518.407 412.923C516.732 407.816 515.521 402.039 515.471 401.795C515.34 401.165 515.706 400.539 516.291 400.397C516.873 400.256 517.455 400.651 517.585 401.283C517.598 401.341 518.82 407.169 520.451 412.141C520.651 412.751 520.355 413.419 519.792 413.635C519.672 413.681 519.549 413.703 519.429 413.703Z" fill="#108A57"/>
<path d="M525.216 411.606C524.774 411.606 524.361 411.313 524.199 410.84C522.461 405.759 521.18 400 521.127 399.756C520.986 399.128 521.346 398.496 521.929 398.347C522.511 398.197 523.095 398.585 523.235 399.213C523.248 399.271 524.541 405.081 526.233 410.029C526.44 410.635 526.153 411.31 525.591 411.533C525.468 411.582 525.341 411.606 525.216 411.606Z" fill="#108A57"/>
<path d="M531.008 409.508C530.573 409.508 530.161 409.222 529.996 408.757C528.196 403.7 526.843 397.96 526.788 397.718C526.64 397.092 526.991 396.455 527.572 396.297C528.152 396.138 528.742 396.518 528.889 397.145C528.903 397.201 530.267 402.994 532.019 407.918C532.234 408.521 531.956 409.198 531.396 409.43C531.268 409.483 531.137 409.508 531.008 409.508Z" fill="#108A57"/>
<path d="M536.796 407.412C536.365 407.412 535.958 407.132 535.79 406.674C533.927 401.643 532.505 395.92 532.445 395.678C532.29 395.055 532.634 394.413 533.213 394.246C533.791 394.079 534.384 394.45 534.539 395.075C534.553 395.133 535.99 400.907 537.802 405.806C538.024 406.407 537.753 407.088 537.198 407.328C537.065 407.384 536.93 407.412 536.796 407.412Z" fill="#108A57"/>
<path d="M542.586 405.314C542.16 405.314 541.758 405.041 541.584 404.592C539.66 399.584 538.167 393.88 538.104 393.64C537.941 393.018 538.277 392.371 538.854 392.196C539.43 392.02 540.029 392.383 540.19 393.006C540.206 393.064 541.712 398.819 543.587 403.694C543.816 404.29 543.554 404.977 543 405.223C542.865 405.285 542.724 405.314 542.586 405.314Z" fill="#108A57"/>
<path d="M573.781 280.529C573.56 283.582 573.035 286.63 572.072 289.479C571.827 290.208 571.551 290.921 571.242 291.619V291.623C569.689 295.171 567.339 298.298 563.885 300.584C563.885 300.584 547.044 308.313 527.204 298.827H527.201C526.075 298.287 524.938 297.69 523.791 297.034C522.79 296.462 521.787 295.844 520.781 295.178C512.164 289.479 508.748 281.798 507.814 274.483C507.731 273.831 507.666 273.185 507.62 272.536C507.254 267.379 508.026 262.519 508.948 258.816C509.011 258.57 509.073 258.329 509.134 258.095C510.133 254.322 511.225 251.921 511.225 251.921C511.225 251.921 515.685 249.828 521.536 248.868C523.761 248.504 526.189 248.303 528.649 248.444C531.442 248.601 534.279 249.2 536.913 250.498C555.724 259.764 565.251 263.902 570.709 255.948C570.709 255.948 571.657 258.908 572.521 263.365C572.644 263.999 572.762 264.658 572.881 265.346C573.199 267.236 573.485 269.322 573.672 271.52C573.92 274.399 574.005 277.463 573.781 280.529Z" fill="#0CAD69"/>
<path d="M572.882 265.345C572.631 265.764 572.349 266.188 572.039 266.611C569.657 269.861 565.026 273.604 556.335 273.604C555.802 273.604 555.256 273.59 554.693 273.559C546.266 273.125 539.695 269.369 533.34 265.737C525.754 261.403 518.586 257.307 509.077 259.469L508.949 258.815L508.823 258.161C508.929 258.139 509.034 258.115 509.137 258.095C518.924 255.989 526.212 260.152 533.919 264.557C540.154 268.117 546.603 271.804 554.752 272.221C562.137 272.606 567.613 270.454 571.032 265.831C571.645 265.001 572.134 264.162 572.522 263.365C572.647 263.997 572.763 264.657 572.882 265.345Z" fill="#108E59"/>
<path d="M572.069 289.479C571.825 290.207 571.549 290.921 571.24 291.619V291.622C568.089 293.575 564.313 294.914 559.946 295.622C557.464 296.027 554.791 296.227 551.938 296.227C548.224 296.227 544.207 295.886 539.921 295.205C527.06 293.151 516.065 288.67 515.953 288.622L516.396 287.372C516.505 287.418 527.391 291.856 540.123 293.884C550.251 295.491 563.375 295.83 572.069 289.479Z" fill="#108E59"/>
<path d="M542.334 396.621L504.201 410.066C504.201 410.066 503.696 407.667 502.915 403.587C502.742 402.678 502.553 401.682 502.356 400.611C501.816 397.714 501.196 394.259 500.542 390.404C500.378 389.427 500.212 388.427 500.045 387.401C499.515 384.176 498.973 380.726 498.446 377.119C498.301 376.12 498.154 375.11 498.012 374.087C497.539 370.715 497.08 367.238 496.662 363.708C496.541 362.685 496.421 361.658 496.306 360.626C495.915 357.134 495.568 353.613 495.281 350.12C495.191 349.075 495.111 348.031 495.036 346.991C494.773 343.352 494.581 339.764 494.485 336.296C494.456 335.228 494.434 334.172 494.423 333.128C494.379 329.243 494.469 325.538 494.726 322.117C494.809 320.995 494.912 319.908 495.033 318.856C495.117 318.093 495.216 317.347 495.32 316.622C495.819 313.233 496.509 310.16 497.344 307.371C497.691 306.199 498.066 305.081 498.462 304.01C505.521 284.867 519.385 281.094 519.385 281.094C529.653 282.194 534.167 294.04 534.167 294.04C532.014 296.255 530.459 299.298 529.393 302.949C529.117 303.895 528.872 304.883 528.663 305.906C528.092 308.648 527.745 311.658 527.584 314.861C527.532 315.856 527.5 316.869 527.485 317.896C527.439 320.889 527.535 324.019 527.748 327.235C527.813 328.24 527.89 329.25 527.977 330.266C528.243 333.363 528.606 336.524 529.043 339.696C529.183 340.707 529.328 341.714 529.48 342.724C529.956 345.88 530.498 349.041 531.087 352.159C531.273 353.162 531.468 354.158 531.664 355.152C532.298 358.358 532.973 361.505 533.664 364.543C533.887 365.532 534.113 366.508 534.343 367.472C535.107 370.732 535.886 373.843 536.635 376.733C536.892 377.726 537.149 378.696 537.4 379.634C538.325 383.099 539.193 386.173 539.934 388.722C540.24 389.773 540.522 390.731 540.779 391.595C541.737 394.786 542.334 396.621 542.334 396.621Z" fill="#0CAD69"/>
<path d="M529.389 302.949C529.113 303.896 528.869 304.882 528.659 305.905C521.909 305.006 509.649 304.17 497.34 307.371C497.687 306.2 498.062 305.079 498.458 304.01C504.576 302.581 510.452 302.106 515.301 302.054C521.026 301.987 525.951 302.467 529.389 302.949Z" fill="#108E59"/>
<path d="M527.581 314.862C527.529 315.855 527.497 316.868 527.482 317.895C519.426 317.522 506.773 317.873 494.723 322.116C494.806 320.996 494.909 319.909 495.03 318.855C503.018 316.204 510.982 315.196 517.235 314.879C521.132 314.682 524.654 314.724 527.581 314.862Z" fill="#108E59"/>
<path d="M527.973 330.266C519.375 330.423 506.464 331.584 494.481 336.297C494.453 335.229 494.431 334.172 494.418 333.128C503.24 329.791 512.256 328.326 519.167 327.705C522.312 327.421 525.21 327.286 527.743 327.237C527.809 328.24 527.887 329.249 527.973 330.266Z" fill="#108E59"/>
<path d="M529.48 342.724C520.599 343.369 507.379 345.174 495.28 350.121C495.191 349.074 495.111 348.032 495.037 346.991C507.205 342.125 520.178 340.34 529.043 339.697C529.183 340.706 529.329 341.714 529.48 342.724Z" fill="#108E59"/>
<path d="M531.66 355.151C522.636 356.255 509.015 358.639 496.659 363.709C496.538 362.686 496.418 361.659 496.303 360.626C508.717 355.613 522.08 353.255 531.083 352.158C531.269 353.163 531.465 354.159 531.66 355.151Z" fill="#108E59"/>
<path d="M534.342 367.472C525.294 369.013 511.184 371.996 498.444 377.12C498.299 376.12 498.154 375.111 498.011 374.087C510.708 369.054 524.606 366.096 533.663 364.542C533.886 365.533 534.111 366.508 534.342 367.472Z" fill="#108E59"/>
<path d="M537.404 379.635C528.455 381.602 513.779 385.241 500.546 390.404C500.382 389.428 500.215 388.428 500.048 387.402C513.223 382.307 527.684 378.709 536.639 376.732C536.896 377.725 537.153 378.695 537.404 379.635Z" fill="#108E59"/>
<path d="M540.778 391.594C532.112 393.949 516.773 398.365 502.916 403.587C502.741 402.678 502.553 401.682 502.354 400.61C516.131 395.441 531.26 391.084 539.932 388.722C540.24 389.772 540.521 390.731 540.778 391.594Z" fill="#108E59"/>
<path d="M527.204 298.827H527.201C526.919 298.81 526.628 298.774 526.327 298.713C525.411 298.526 524.569 297.938 523.79 297.034C517.234 289.399 515.545 259.267 515.545 259.267C515.545 259.267 518.002 252.709 521.536 248.87C523.76 248.505 526.188 248.304 528.649 248.446C529.158 254.104 530.921 272.143 532.971 277.107C535.329 282.807 535.028 299.278 527.204 298.827Z" fill="#128E5A"/>
<path d="M573.782 280.529C564.202 288.556 543.293 283.935 524.201 277.861C517.678 275.785 512.244 274.816 507.814 274.484C507.733 273.832 507.667 273.185 507.621 272.538C515.92 273.098 527.038 275.617 540.811 278.995C561.237 284.003 570.541 275.55 573.675 271.521C573.923 274.401 574.006 277.466 573.782 280.529Z" fill="#108E59"/>
<path d="M559.938 239.697C559.623 241.873 560.276 243.792 561.399 243.982C562.526 244.175 563.696 242.562 564.012 240.385C564.136 239.526 564.11 238.712 563.964 238.025C565.967 238.457 566.827 237.214 566.827 237.214C565.497 237.192 563.802 236.596 563.002 236.286C562.72 236.172 562.547 236.099 562.547 236.099C561.424 235.906 560.255 237.515 559.938 239.697Z" fill="#181818"/>
<path d="M562.548 236.098C562.548 236.098 562.72 236.171 563.005 236.286C562.864 236.19 562.712 236.125 562.548 236.098Z" fill="#181818"/>
<path d="M573.895 247.991C573.189 250.05 572.414 252.044 571.593 253.961C570.688 253.969 569.716 253.901 568.715 253.748C564.241 253.065 560.82 250.95 561.074 249.026C561.328 247.104 565.16 246.101 569.629 246.782C571.224 247.026 572.686 247.451 573.895 247.991Z" fill="#FD9B7E"/>
<path d="M541.057 245.251C540.801 247.195 536.931 248.208 532.411 247.517C527.891 246.824 524.434 244.689 524.691 242.744C524.945 240.801 528.817 239.787 533.335 240.478C537.855 241.171 541.312 243.306 541.057 245.251Z" fill="#FD9B7E"/>
<path d="M522.398 232.957C522.643 231.117 521.917 229.291 520.526 228.198C517.077 225.489 512.458 223.955 510.17 228.879C505.921 238.02 513.641 250.269 520.318 248.655L522.398 232.957Z" fill="#FBB990"/>
<path d="M523.798 248.055C523.669 248.184 523.541 248.309 523.41 248.423C523.027 248.765 522.636 249.056 522.237 249.298C521.505 249.746 520.764 250.037 520.054 250.223C519.987 249.741 519.925 249.252 519.875 248.751C520.382 248.62 520.904 248.43 521.42 248.149C521.838 247.936 522.256 247.665 522.653 247.33C522.811 247.195 522.972 247.049 523.122 246.897C523.371 246.635 523.727 246.693 523.913 247.02C524.1 247.34 524.054 247.81 523.798 248.055Z" fill="#FB9476"/>
<path d="M517.336 242.301C516.986 242.245 516.719 241.913 516.729 241.521C516.867 235.35 513.242 232.055 513.205 232.023C512.903 231.752 512.857 231.269 513.106 230.94C513.355 230.61 513.803 230.56 514.109 230.829C514.279 230.981 518.312 234.604 518.156 241.557C518.146 241.983 517.818 242.32 517.426 242.308C517.394 242.308 517.366 242.304 517.336 242.301Z" fill="#FB9476"/>
<path d="M512.78 237.978C512.616 237.951 512.461 237.864 512.346 237.719C512.089 237.397 512.12 236.914 512.418 236.635C512.502 236.556 514.506 234.712 516.757 235.356C517.137 235.465 517.364 235.887 517.263 236.299C517.161 236.71 516.768 236.951 516.389 236.846C514.875 236.413 513.366 237.787 513.35 237.801C513.186 237.953 512.977 238.01 512.78 237.978Z" fill="#FB9476"/>
<path d="M554.723 247.937H554.728H554.723ZM551.142 251.826C550.853 251.78 550.598 251.545 550.539 251.182C550.484 250.841 550.669 250.508 550.959 250.358C552.714 249.459 554.406 248.303 554.701 247.814C554.458 246.409 553.495 240.828 553.143 238.784C553.07 238.365 553.326 237.967 553.714 237.889C554.1 237.81 554.472 238.084 554.545 238.502C554.909 240.613 555.923 246.489 556.125 247.652C556.196 248.054 556.408 249.275 551.552 251.759C551.419 251.827 551.276 251.848 551.142 251.826" fill="#FB9476"/>
<path d="M542.082 236.817C541.793 238.998 540.65 240.626 539.524 240.456C538.395 240.284 537.712 238.371 537.999 236.188C538.112 235.33 538.358 234.559 538.683 233.948C536.65 233.73 536.165 232.269 536.165 232.269C537.442 232.667 539.226 232.633 540.074 232.589C540.375 232.568 540.56 232.551 540.56 232.551C541.686 232.723 542.37 234.63 542.082 236.817Z" fill="#181818"/>
<path d="M540.565 232.552C540.565 232.552 540.38 232.569 540.078 232.587C540.238 232.541 540.4 232.524 540.565 232.552Z" fill="#181818"/>
<path d="M570.245 236.215C569.836 235.304 569.3 234.396 568.721 233.579C568.138 232.756 567.482 232.009 566.78 231.352C566.083 230.684 565.317 230.138 564.523 229.7C563.741 229.233 562.886 228.978 562.062 228.748L561.976 228.726C561.079 228.477 560.54 227.49 560.77 226.523C560.999 225.554 561.913 224.97 562.809 225.218C562.913 225.247 563.019 225.29 563.112 225.337C564.154 225.872 565.165 226.46 566.028 227.243C566.902 227.999 567.682 228.852 568.335 229.787C568.996 230.713 569.557 231.696 570.021 232.719C570.483 233.749 570.857 234.783 571.122 235.908C571.185 236.176 571.037 236.446 570.789 236.514C570.573 236.574 570.354 236.458 570.261 236.249L570.245 236.215Z" fill="#111111"/>
<path d="M531.809 229.608C532.527 228.547 533.325 227.626 534.213 226.754C535.099 225.889 536.072 225.111 537.126 224.439C538.171 223.754 539.319 223.214 540.524 222.819C541.729 222.387 543.01 222.228 544.301 222.138C545.224 222.073 546.02 222.83 546.08 223.826C546.139 224.822 545.44 225.682 544.517 225.746C544.426 225.753 544.334 225.75 544.246 225.741L544.139 225.729C543.152 225.619 542.128 225.528 541.106 225.697C540.083 225.826 539.05 226.087 538.051 226.506C537.05 226.911 536.069 227.432 535.135 228.062C534.211 228.69 533.303 229.431 532.525 230.237L532.5 230.262C532.317 230.453 532.026 230.444 531.849 230.247C531.691 230.07 531.68 229.799 531.809 229.608Z" fill="#111111"/>
<path d="M530.999 209.669C530.999 209.669 544.231 229.167 575.145 228.213C591.776 227.701 577.332 199.66 552.541 198.083C527.748 196.508 530.999 209.669 530.999 209.669Z" fill="#002014"/>
<path d="M575.224 225.162C575.224 225.162 577.082 240.032 573.895 247.991C573.895 247.991 579.872 234.68 578.008 226.267C576.144 217.854 575.224 225.162 575.224 225.162Z" fill="#181818"/>
<path d="M539.289 209.727C539.289 209.727 524.554 236.847 528.159 258.74C531.761 280.63 537.024 298.058 522.491 299.693C508.108 301.312 498.569 295.213 485.691 300.711H485.687C485.553 300.771 485.421 300.827 485.284 300.888C484.946 301.038 484.643 301.128 484.364 301.169C482.134 301.479 481.707 298.336 482.543 292.972C482.841 291.075 483.293 288.906 483.878 286.51C486.591 275.416 492.171 259.545 498.231 244.292C502.992 232.313 508.05 220.713 512.253 212.111C513.784 208.978 515.204 206.247 516.451 204.031C529.752 180.474 559.376 187.116 559.376 187.116L539.289 209.727Z" fill="#002014"/>
<path d="M513.137 213.142C513.001 213.409 505.498 228.308 498.229 244.291C492.298 257.33 486.524 271.095 485.027 278.23C484.384 281.304 484.029 284.062 483.875 286.511C483.386 294.34 484.953 299.004 485.683 300.71C485.551 300.77 485.417 300.827 485.281 300.887C484.944 301.039 484.639 301.129 484.36 301.168C483.782 299.787 482.884 297.081 482.54 292.971C482.219 289.172 482.373 284.169 483.685 277.901C487.056 261.822 510.916 214.439 511.929 212.43C512.003 212.282 512.118 212.176 512.251 212.112C512.44 212.018 512.665 212.018 512.861 212.136C513.195 212.33 513.32 212.781 513.137 213.142Z" fill="#002014"/>
<g opacity="0.399994">
<g opacity="0.399994">
<g opacity="0.399994">
<g opacity="0.399994">
<g opacity="0.399994">
<g opacity="0.399994">
<path opacity="0.399994" d="M556.776 228.254C556.776 228.254 540.725 222.991 536.153 242.045C531.58 261.097 547.402 269.652 557.439 267.558C567.477 265.462 574.08 231.486 556.776 228.254Z" fill="#FFC29C"/>
</g>
</g>
</g>
</g>
</g>
</g>
<path d="M540.767 226.231C534.763 226.231 529.881 231.504 529.881 237.987C529.881 244.467 534.763 249.741 540.767 249.741C546.771 249.741 551.654 244.467 551.654 237.987C551.654 231.504 546.771 226.231 540.767 226.231ZM540.767 251.358C533.937 251.358 528.381 245.36 528.381 237.987C528.381 230.612 533.937 224.613 540.767 224.613C547.597 224.613 553.153 230.612 553.153 237.987C553.153 245.36 547.597 251.358 540.767 251.358Z" fill="white"/>
<path d="M568.206 232.239C562.202 232.239 557.32 237.512 557.32 243.993C557.32 250.475 562.202 255.749 568.206 255.749C574.21 255.749 579.093 250.475 579.093 243.993C579.093 237.512 574.21 232.239 568.206 232.239ZM568.206 257.366C561.376 257.366 555.82 251.368 555.82 243.993C555.82 236.62 561.376 230.621 568.206 230.621C575.037 230.621 580.593 236.62 580.593 243.993C580.593 251.368 575.037 257.366 568.206 257.366Z" fill="white"/>
<path d="M556.526 240.521C555.206 238.324 552.775 239.254 552.67 239.295L552.156 237.776C553.416 237.279 556.213 237.028 557.783 239.639L556.526 240.521Z" fill="white"/>
<path d="M576.223 547.678C572.758 550.364 568.036 558.387 559.835 561.203C513.25 577.208 469.777 546.146 469.777 546.146C467.195 532.37 468.793 516.719 473.09 510.989C471.739 508.954 472.633 506.521 472.633 506.521L452.119 465.459C452.615 465.796 484.299 487.421 507.776 502.741H507.786C514.551 507.152 520.634 511.042 525.091 513.744C531.893 517.866 540.575 518.27 549.081 517.005C565.661 514.531 581.567 505.71 581.567 505.71C581.567 505.71 621.238 480.453 631.251 481.325C639.035 481.999 610.867 528.345 576.223 547.678Z" fill="#108E59"/>
<path d="M488.481 589.225C488.481 589.225 485.974 589.732 481.898 590.635C480.738 590.892 479.451 591.176 478.061 591.494C476.216 591.915 474.188 592.385 472.024 592.904C470.791 593.199 469.514 593.509 468.2 593.831C451.868 597.847 430.242 603.957 421.533 609.93C420.923 610.349 420.33 610.765 419.761 611.182C406.491 620.814 403.777 629.132 401.315 627.445C398.746 625.688 398.171 618.475 402.362 613.732C405.264 610.446 407.295 605.653 411.192 600.471C412.246 599.07 413.435 597.64 414.815 596.203C420.91 589.861 430.664 583.308 436.112 578.269C436.463 577.946 436.796 577.625 437.11 577.314C441.593 572.849 443.342 563.661 451.524 560.868C455.522 559.506 460.313 560.038 464.936 561.354C465.757 561.587 466.574 561.848 467.377 562.123C468.58 562.539 469.757 562.995 470.891 563.467C472.457 564.129 473.942 564.826 475.297 565.509C476.595 566.162 477.778 566.803 478.796 567.378C481.255 568.769 482.775 569.803 482.775 569.803L488.481 589.225Z" fill="white"/>
<path d="M464.931 561.354C460.096 568.187 448.96 581.249 436.107 578.271C436.459 577.945 436.792 577.627 437.105 577.314C441.589 572.849 443.339 563.661 451.52 560.868C455.518 559.506 460.309 560.039 464.931 561.354Z" fill="#80D7B2"/>
<path d="M419.76 611.181C406.49 620.813 403.776 629.131 401.316 627.446C398.745 625.689 398.171 618.474 402.362 613.732C405.265 610.445 407.296 605.654 411.192 600.472C414.475 602.987 417.967 606.553 419.76 611.181Z" fill="#80D7B2"/>
<path d="M481.895 590.634C480.734 590.89 479.449 591.176 478.058 591.494C475.641 586.73 474.429 580.92 474.503 574.293C474.541 570.944 474.897 567.901 475.293 565.509C476.592 566.162 477.774 566.803 478.792 567.378C478.504 569.393 478.272 571.79 478.245 574.373C478.19 579.595 478.986 585.576 481.895 590.634Z" fill="#80D7B2"/>
<path d="M470.888 563.467C469.754 562.995 468.577 562.539 467.374 562.123C466.593 564.57 465.475 568.693 464.97 573.54C464.152 581.397 465.262 588.297 468.197 593.831C469.511 593.509 470.788 593.199 472.021 592.904C465.814 582.638 469.228 568.727 470.888 563.467Z" fill="#80D7B2"/>
<path d="M684.306 514.679C666.818 537.74 627.497 561.328 585.443 575.015C570.841 579.767 558.305 583.334 547.606 586.008C539.181 588.117 531.892 589.667 525.636 590.799C501.482 595.174 492.604 593.352 492.604 593.352C492.604 593.352 477.699 588.177 484.09 562.036C484.09 562.036 512.344 555.024 534.237 543.34C538.7 540.959 542.902 538.381 546.543 535.628C547.396 534.983 548.245 534.327 549.084 533.661C569.431 517.569 586.829 495.71 632.682 475.951C632.682 475.951 656.665 460.226 675.943 467.277C678.818 468.326 681.54 469.842 684 471.933C697.97 483.801 696.113 499.121 684.306 514.679Z" fill="#0CAD69"/>
<path d="M598.656 567.95L589.541 569.302L534.244 543.34C538.707 540.958 542.907 538.382 546.55 535.628C547.402 534.983 548.252 534.327 549.091 533.661L598.656 567.95Z" fill="#108E59"/>
<path d="M547.611 586.007C539.186 588.117 531.897 589.666 525.641 590.799C508.044 585.639 486.975 576.012 486.975 576.012L488.347 564.212L547.611 586.007Z" fill="#108E59"/>
<path d="M684.305 514.68C669.871 493.735 672.739 476.196 675.942 467.277C678.818 468.328 681.539 469.842 684 471.933C697.968 483.801 696.112 499.121 684.305 514.68Z" fill="#108E59"/>
<path d="M486.493 569.832C501.199 566.723 531.442 553.395 567.395 534.18C594.284 519.808 625.372 501.289 630.091 494.589C632.639 490.97 633.365 487.946 632.247 485.603C630.573 482.097 625.382 481.505 623.008 481.421C622.396 481.399 621.895 481.936 621.914 482.598C621.931 483.197 622.371 483.681 622.928 483.701C625.26 483.792 629.304 484.41 630.37 486.649C631.256 488.51 629.793 491.243 628.408 493.208C624.603 498.612 598.55 514.983 566.458 532.135C538.825 546.905 503.199 563.976 486.088 567.595L486.493 569.832Z" fill="#108E59"/>
<path d="M489.67 558.779C490.763 572.725 493.596 585.487 500.472 595.489C500.472 595.489 494.069 600.036 488.528 596.308C484.297 593.461 476.792 571.412 480.435 559.994C484.146 558.022 487.303 557.419 489.67 558.779Z" fill="#108E59"/>
<path d="M590.936 594.855C590.936 594.855 593.407 595.536 597.419 596.726C598.561 597.063 599.829 597.441 601.196 597.855C603.011 598.405 605.006 599.018 607.134 599.689C608.346 600.07 609.603 600.469 610.893 600.883C626.948 606.045 648.158 613.67 656.485 620.243C657.07 620.706 657.636 621.163 658.18 621.619C670.836 632.168 673.042 640.657 675.599 639.151C678.27 637.579 679.28 630.42 675.386 625.392C672.688 621.908 670.951 616.982 667.378 611.535C666.411 610.064 665.312 608.552 664.022 607.021C658.324 600.261 648.987 593.035 643.857 587.622C643.526 587.274 643.212 586.932 642.919 586.596C638.716 581.825 637.525 572.535 629.531 569.169C625.625 567.527 620.812 567.718 616.12 568.706C615.284 568.881 614.453 569.082 613.636 569.301C612.409 569.632 611.209 570.003 610.048 570.395C608.446 570.945 606.922 571.535 605.528 572.12C604.192 572.681 602.975 573.237 601.923 573.741C599.386 574.953 597.805 575.876 597.805 575.876L590.936 594.855Z" fill="white"/>
<path d="M616.12 568.705C620.531 575.867 630.853 589.685 643.858 587.621C643.526 587.274 643.214 586.931 642.919 586.598C638.716 581.825 637.526 572.535 629.532 569.168C625.625 567.528 620.814 567.719 616.12 568.705Z" fill="#80D7B2"/>
<path d="M658.178 621.619C670.834 632.167 673.04 640.659 675.597 639.15C678.268 637.579 679.278 630.42 675.384 625.392C672.686 621.908 670.951 616.982 667.376 611.535C663.947 613.813 660.247 617.127 658.178 621.619Z" fill="#80D7B2"/>
<path d="M597.42 596.726C598.562 597.063 599.828 597.441 601.197 597.854C603.895 593.272 605.458 587.56 605.786 580.941C605.95 577.597 605.78 574.535 605.529 572.121C604.194 572.681 602.974 573.236 601.923 573.74C602.091 575.77 602.176 578.177 602.047 580.759C601.785 585.973 600.628 591.883 597.42 596.726Z" fill="#80D7B2"/>
<path d="M607.135 599.689C608.348 600.07 609.603 600.469 610.894 600.882C614.157 595.568 615.684 588.762 615.343 580.863C615.132 575.991 614.266 571.799 613.635 569.301C612.41 569.632 611.21 570.003 610.049 570.394C611.387 575.758 613.949 589.881 607.135 599.689Z" fill="#80D7B2"/>
<path d="M595.614 568.399C600.405 594.938 585.221 599.047 585.221 599.047C585.221 599.047 562.595 602.052 493.693 574.193C453.967 558.133 417.338 533.033 400.416 509.497C387.99 492.217 386.191 475.774 401.591 464.37C405.139 461.743 409.116 460.238 413.256 459.536C432.321 456.306 454.843 470.16 454.843 470.16C501.242 494.063 489.629 502.277 528.322 528.89C550.451 544.109 595.614 568.399 595.614 568.399Z" fill="#0CAD69"/>
<path d="M413.256 459.536C413.994 468.51 415.259 498.514 400.416 509.497C387.99 492.217 386.19 475.774 401.592 464.37C405.14 461.743 409.116 460.238 413.256 459.536Z" fill="#108E59"/>
<path d="M592.748 576.01C578.261 571.869 548.89 556.433 514.179 534.72C488.219 518.48 458.319 497.805 454.017 490.787C451.692 486.995 451.152 483.926 452.408 481.668C454.291 478.287 459.508 478.064 461.882 478.147C462.494 478.169 462.961 478.74 462.902 479.397C462.849 479.995 462.379 480.446 461.824 480.429C459.489 480.354 455.419 480.684 454.219 482.845C453.221 484.638 454.517 487.468 455.779 489.528C459.248 495.188 484.256 513.365 515.239 532.748C541.918 549.437 576.433 568.988 593.289 573.805L592.748 576.01Z" fill="#108E59"/>
<path d="M590.243 564.756C588.307 578.596 584.708 591.128 577.24 600.623C577.24 600.623 583.355 605.612 589.108 602.285C593.502 599.744 602.327 578.272 599.386 566.62C595.801 564.39 592.688 563.567 590.243 564.756Z" fill="#108E59"/>
<path d="M659.714 459.047C654.57 466.154 647.473 470.13 641.84 474.197C628.291 483.979 600.801 490.163 602.867 456.466C604.936 422.771 628.545 436.426 611.175 377.245C603.762 351.994 598.655 299.944 598.655 299.944C598.655 299.944 637.46 329.297 660.421 401.688C662.211 407.327 663.564 412.475 664.542 417.18C668.983 438.553 665.641 450.87 659.714 459.047Z" fill="#FB4C47"/>
<path d="M659.712 459.047C651.293 442.818 658.275 426.775 664.539 417.18C668.98 438.553 665.638 450.87 659.712 459.047Z" fill="#B63A37"/>
<path d="M602.777 462.497C602.348 462.497 601.962 462.175 601.87 461.703C601.814 461.416 600.509 454.559 603.099 445.442C605.479 437.073 611.749 425.165 628.111 415.969C628.569 415.712 629.128 415.904 629.365 416.395C629.603 416.887 629.425 417.493 628.971 417.748C613.229 426.597 607.196 437.955 604.908 445.926C602.424 454.567 603.675 461.22 603.687 461.286C603.795 461.828 603.473 462.361 602.971 462.475C602.905 462.49 602.84 462.497 602.777 462.497Z" fill="#B63A37"/>
<path d="M616.876 425.779C616.75 425.793 616.617 425.778 616.49 425.732C616.001 425.555 615.739 424.986 615.905 424.461C618.917 414.78 620.847 410.635 620.928 410.463C621.159 409.969 621.718 409.772 622.177 410.024C622.634 410.274 622.817 410.877 622.585 411.371C622.565 411.411 620.626 415.583 617.666 425.1C617.545 425.487 617.229 425.742 616.876 425.779Z" fill="#B63A37"/>
<path d="M617.926 421.37C617.413 421.37 616.997 420.92 616.997 420.367C616.997 400.644 592.587 355.987 592.34 355.537C592.078 355.061 592.223 354.444 592.664 354.162C593.106 353.879 593.675 354.037 593.939 354.512C594.956 356.365 618.855 400.097 618.855 420.367C618.855 420.92 618.44 421.37 617.926 421.37Z" fill="#B63A37"/>
<path d="M600.647 370.685C600.453 370.685 600.258 370.62 600.091 370.486C596.932 367.937 588.939 365.682 588.859 365.66C588.362 365.522 588.064 364.974 588.193 364.439C588.321 363.901 588.829 363.579 589.324 363.719C589.666 363.814 597.752 366.092 601.204 368.878C601.614 369.21 601.699 369.839 601.392 370.283C601.209 370.545 600.93 370.685 600.647 370.685Z" fill="#B63A37"/>
<path d="M589.271 511.54C589.422 513.321 589.564 515.182 589.766 516.684C590.146 519.522 590.745 521.075 592.052 518.376C592.343 517.768 592.578 516.992 592.77 516.1C593.896 510.893 593.525 501.728 594.046 499.731C594.634 497.461 597.086 491.006 597.301 490.642C597.191 490.911 596.085 494.858 595.957 497.293C595.836 499.576 595.957 502.351 595.957 507.974C595.957 510.426 596.041 512.961 596.328 514.805V514.811C596.697 517.194 597.41 518.409 598.733 516.755C599.384 515.941 599.801 514.513 600.072 512.822C600.785 508.43 600.529 502.229 600.905 500.199C601.409 497.478 603.455 493.082 603.586 492.806C602.81 495.605 602.81 495.329 602.379 499.007C602.075 501.577 601.52 508.413 602.108 511.477C602.357 512.798 602.825 513.421 603.617 512.697C604.852 511.569 605.71 509.913 606.315 508.02C606.997 505.895 607.356 503.465 607.585 501.137C608.017 496.731 609.668 494.015 609.668 494.015C608.752 498.788 608.25 503.404 608.522 505.788C608.709 507.473 609.282 508.042 610.361 506.76C612.464 504.264 614.589 496.01 615.324 492.906C615.349 492.811 615.369 492.716 615.39 492.625C615.417 492.53 615.432 492.446 615.455 492.366C615.552 491.951 615.604 491.714 615.604 491.714L615.609 491.709C616.219 489.123 616.77 486.536 617.577 484.22C618.776 480.779 620.556 477.929 623.983 476.558C631.758 473.437 629.371 457.472 618.473 456.513C615.298 456.234 612.155 457.37 609.664 459.512C608.077 460.876 605.839 462.781 603.574 464.649L603.57 464.654C603.352 464.954 596.265 474.431 594.046 480.335C591.792 486.328 589.881 495.796 589.447 498.512C589.01 501.228 588.84 506.384 589.271 511.54Z" fill="#FAB893"/>
<path d="M417.968 466.922C423.144 474.208 430.284 478.287 435.952 482.457C449.584 492.488 477.244 498.828 475.165 464.273C473.083 429.724 449.331 443.726 466.807 383.04C474.265 357.147 475.165 305.548 475.165 305.548C475.165 305.548 440.36 333.872 417.257 408.104C415.456 413.886 414.094 419.164 413.112 423.99C408.644 445.907 412.006 458.538 417.968 466.922Z" fill="#FB4C47"/>
<path d="M418.183 468.341C426.601 452.11 419.619 436.069 413.357 426.474C408.916 447.847 412.258 460.164 418.183 468.341Z" fill="#B63A37"/>
<path d="M475.116 471.791C475.545 471.791 475.932 471.469 476.023 470.997C476.08 470.709 477.384 463.852 474.793 454.736C472.415 446.367 466.144 434.459 449.781 425.261C449.325 425.005 448.765 425.198 448.527 425.688C448.29 426.179 448.467 426.785 448.923 427.042C464.665 435.889 470.697 447.249 472.987 455.219C475.468 463.859 474.219 470.513 474.206 470.58C474.101 471.121 474.421 471.653 474.922 471.768C474.987 471.784 475.052 471.791 475.116 471.791Z" fill="#B63A37"/>
<path d="M461.021 435.072C461.149 435.086 461.279 435.071 461.409 435.025C461.894 434.848 462.156 434.279 461.994 433.754C458.98 424.073 457.05 419.928 456.969 419.756C456.737 419.262 456.179 419.065 455.72 419.317C455.263 419.567 455.08 420.17 455.312 420.665C455.331 420.704 457.271 424.876 460.232 434.393C460.352 434.779 460.667 435.035 461.021 435.072Z" fill="#B63A37"/>
<path d="M459.969 430.662C460.483 430.662 460.898 430.213 460.898 429.659C460.898 409.936 485.309 365.28 485.555 364.83C485.819 364.353 485.672 363.737 485.23 363.454C484.79 363.172 484.219 363.33 483.958 363.807C482.939 365.658 459.04 409.39 459.04 429.659C459.04 430.213 459.456 430.662 459.969 430.662Z" fill="#B63A37"/>
<path d="M477.248 379.979C477.442 379.979 477.636 379.914 477.803 379.778C480.962 377.229 488.955 374.976 489.035 374.954C489.532 374.816 489.831 374.267 489.702 373.731C489.573 373.195 489.065 372.873 488.57 373.011C488.228 373.106 480.142 375.386 476.69 378.172C476.28 378.502 476.196 379.132 476.502 379.577C476.685 379.839 476.964 379.979 477.248 379.979Z" fill="#B63A37"/>
<path d="M488.625 520.832C488.474 522.614 488.333 524.476 488.131 525.976C487.75 528.814 487.15 530.369 485.845 527.67C485.553 527.06 485.318 526.286 485.126 525.392C484.001 520.185 484.37 511.02 483.85 509.025C483.261 506.753 480.809 500.3 480.596 499.935C480.705 500.204 481.811 504.151 481.938 506.586C482.06 508.868 481.938 511.645 481.938 517.268C481.938 519.72 481.856 522.255 481.569 524.099V524.104C481.2 526.488 480.486 527.702 479.163 526.049C478.513 525.235 478.097 523.806 477.825 522.114C477.112 517.722 477.366 511.521 476.993 509.491C476.486 506.77 474.441 502.374 474.31 502.099C475.086 504.899 475.086 504.623 475.518 508.301C475.821 510.869 476.378 517.705 475.789 520.77C475.54 522.092 475.07 522.715 474.279 521.991C473.045 520.861 472.186 519.207 471.582 517.314C470.899 515.189 470.541 512.759 470.311 510.431C469.878 506.023 468.229 503.307 468.229 503.307C469.145 508.081 469.645 512.697 469.374 515.08C469.186 516.767 468.614 517.334 467.535 516.052C465.431 513.557 463.307 505.302 462.574 502.2C462.547 502.105 462.526 502.008 462.506 501.919C462.479 501.822 462.465 501.739 462.443 501.66C462.345 501.245 462.293 501.008 462.293 501.008L462.287 501.001C461.678 498.416 461.126 495.83 460.318 493.514C459.121 490.073 457.341 487.222 453.914 485.85C446.137 482.731 448.525 466.765 459.423 465.805C462.599 465.526 465.742 466.662 468.234 468.804C469.82 470.169 472.056 472.075 474.321 473.943L474.326 473.948C474.545 474.246 481.632 483.725 483.85 489.628C486.105 495.622 488.016 505.09 488.448 507.805C488.885 510.52 489.057 515.677 488.625 520.832Z" fill="#FAB893"/>
</svg>
