<svg width="857" height="613" viewBox="0 0 857 613" fill="none" xmlns="http://www.w3.org/2000/svg">
<g opacity="0.67">
<path d="M233.768 276.269L220.563 280.832L233.522 272.387C233.416 271.098 233.286 269.799 233.128 268.49L226.155 269.88L232.754 265.645C231.244 255.553 227.884 242.887 223.274 229.959L197.573 240.244L222.133 226.818C215.684 209.448 207.067 191.951 197.716 179.884L183.902 189.993L194.916 176.458C186.407 166.645 177.42 161.65 168.989 165.512C158.745 170.205 155.809 192.961 158.963 220.401L165.882 220.274L159.117 221.676C160.572 233.685 163.179 246.538 166.837 259.141L193.222 249.908L168.03 263.129C173.603 281.142 181.324 298.38 190.897 311.59L201.3 300.804L192.848 314.193C200.908 324.578 210.197 332.108 220.563 334.949C220.563 334.949 235.23 309.393 233.768 276.269" fill="#03673D"/>
<path d="M222.074 334.949C222.074 334.949 236.742 309.393 235.279 276.269L222.074 280.832L235.033 272.387C234.928 271.098 234.797 269.799 234.639 268.49L227.666 269.88L234.266 265.645C232.756 255.553 229.396 242.887 224.786 229.96L199.084 240.244L223.644 226.819C217.195 209.448 208.578 191.951 199.228 179.884L185.413 189.994L196.428 176.458C187.918 166.645 178.932 161.65 170.5 165.512C170.5 165.512 208.854 260.31 221.329 334.723C221.578 334.796 221.825 334.88 222.074 334.949Z" fill="#04AD66"/>
<path d="M213.826 355.778L204.055 358.142L212.979 353.129C212.061 350.41 210.965 347.575 209.647 344.612C206.933 338.518 203.051 331.545 198.553 324.801L189.763 331.727L195.955 321.028C182.321 301.867 164.399 286.375 155.588 301.448C151.967 307.643 151.728 317.504 154.228 328.59L174.228 327.863L154.947 331.527C156.944 339.092 160.148 347.108 164.373 354.848L171.122 351.7L165.307 356.523C169.759 364.36 175.255 371.848 181.592 378.217L195.355 362.652L183.495 380.072C191.831 387.945 201.515 393.852 212.132 396.153C212.132 396.153 221.797 382.099 213.826 355.778" fill="#10794D"/>
<path d="M211.345 395.964C211.609 396.026 211.87 396.095 212.135 396.152C212.135 396.152 221.799 382.098 213.829 355.778L204.056 358.142L212.981 353.13C212.063 350.411 210.967 347.576 209.648 344.613C206.936 338.518 203.053 331.545 198.555 324.8L189.765 331.728L195.956 321.028C183.106 302.965 166.447 288.176 157.197 299.163C164.605 309.521 195.822 354.392 211.345 395.964Z" fill="#04AD66"/>
<path d="M183.737 384.715C178.282 379.372 168.548 372.814 157.248 366.785C152.348 374.291 146.877 382.769 145.936 384.626C145.801 384.958 145.751 385.071 145.812 384.901C145.833 384.838 145.876 384.744 145.936 384.626C146.728 382.679 150.563 372.877 153.671 364.922C146.892 361.473 139.675 358.269 132.556 355.655L128.681 374.717L130.466 354.904C108.266 347.096 87.5665 345.409 84.9301 360.528C84.2014 364.707 85.6146 369.349 88.6433 374.209C97.1524 373.693 109.461 372.864 109.461 372.864L91.5159 378.271C98.0975 386.68 108.91 395.517 121.447 403.593L132.216 381.921L123.413 404.84C136.618 413.146 151.524 420.555 165.309 425.736C166.478 420.391 167.333 416.519 167.333 416.519L167.506 426.545C170.16 427.506 172.764 428.377 175.3 429.154L176.44 424.532L177.188 429.717C189.814 433.388 200.55 434.533 206.702 431.87C206.702 431.87 211.593 411.998 183.737 384.715" fill="#007248"/>
<path d="M260.199 242.026C273.502 208.05 291.698 200.958 299.133 201.659C311.463 199.977 312.111 222.263 310.894 233.616H292.238L310.894 237.401C310.569 255.566 305.892 274.965 303.594 282.394L280.476 277.768L303.594 285.758C297.754 308.633 288.993 329.769 285.343 337.478L261.821 326.125L284.127 340.001L281.288 345.047L274.799 343.786L280.476 346.729C270.418 367.922 251.681 376.584 243.57 378.266C236.757 369.856 234.783 353.738 234.648 346.729L246.815 343.786H234.648C233.35 331.676 237.351 310.707 239.514 301.736L248.842 305.941L239.92 299.634L241.137 295.429L261.009 301.736L242.759 289.963C244.706 278.189 254.115 255.062 258.576 244.97L271.148 246.652L260.199 242.026Z" fill="#096B42"/>
<path d="M280.672 347.442C270.404 368.42 251.731 377.318 243.678 379.145C255.758 292.726 287.719 224.937 302.189 201.845C312.155 203.724 312.382 224.285 311.249 234.33L292.752 233.548L311.249 237.07C310.041 257.735 306.216 276.209 304.454 282.863L279.54 277.383L303.322 285.602C297.584 311.278 288.851 331.004 285.202 337.657L262.175 325.916L284.447 340.006L281.427 345.485L275.01 343.919L280.672 347.442Z" fill="#0EA867"/>
<path fill-rule="evenodd" clip-rule="evenodd" d="M231.437 499.917C231.437 499.918 231.437 499.919 230.772 499.876L231.437 499.919C231.414 500.27 231.122 500.544 230.77 500.542C230.417 500.541 230.127 500.266 230.106 499.914C227.986 463.028 212.345 435.975 193.135 416.328C180.982 404.21 167.531 394.53 154.005 386.805C138.915 378.309 125.521 373.251 118.327 370.535C116.374 369.797 114.878 369.232 113.929 368.818C113.828 368.774 113.744 368.709 113.679 368.629C103.156 365.072 93.4859 362.571 85.4304 360.828C85.44 360.749 85.4471 360.669 85.4543 360.59C85.4658 360.462 85.4773 360.334 85.4992 360.208C88.1118 345.629 108.715 347.275 130.817 354.826L129.115 373.315C129.137 373.324 129.159 373.333 129.181 373.342L132.897 355.551C139.985 358.08 147.17 361.176 153.922 364.507C151.449 370.65 148.517 377.927 147.043 381.547C147.287 381.672 147.531 381.798 147.777 381.924C149.872 378.557 154.096 372.163 157.968 366.352C169.361 372.306 179.174 378.78 184.675 384.053C212.763 410.981 207.845 430.577 207.845 430.577C207.627 430.669 207.4 430.756 207.168 430.837C218.698 446.685 227.517 466.194 230.546 490.11C230.691 485.935 230.834 480.51 230.907 474.026C231.091 457.798 230.841 434.933 229.105 408.389C225.634 355.291 216.221 287.518 192.478 228.709C192.34 228.368 192.505 227.979 192.846 227.841C193.188 227.703 193.576 227.868 193.714 228.21C217.535 287.209 226.96 355.145 230.436 408.302C232.174 434.886 232.424 457.786 232.24 474.041C232.148 482.169 231.948 488.636 231.77 493.072C231.681 495.29 231.598 497.001 231.537 498.157C231.507 498.735 231.482 499.175 231.464 499.471C231.456 499.618 231.449 499.73 231.444 499.805L231.439 499.89L231.438 499.911L231.437 499.917Z" fill="#128E5A"/>
<path d="M177.334 328.506C177.334 328.506 230.771 405.815 230.771 499.875C238.85 335.593 279.917 246.072 279.917 246.072" stroke="#014D2D" stroke-miterlimit="10" stroke-linecap="round" stroke-linejoin="round"/>
<path d="M248.224 473.861H205.363C205.363 473.861 193.822 568.593 230.915 579.589C268.006 590.584 248.224 473.861 248.224 473.861Z" fill="#F52D29"/>
<path d="M255.759 473.861H215.573C215.573 473.861 206.48 568.593 235.705 579.589C282.184 585.016 255.759 473.861 255.759 473.861Z" fill="#F80700"/>
</g>
<g opacity="0.76">
<path d="M264.878 30.3318H251.015V86.8918H264.878V30.3318Z" fill="#FF1F55"/>
<path d="M281.308 30.3318H267.446V86.8918H281.308V30.3318Z" fill="#FFC702"/>
<path d="M291.554 31.3439L279.812 38.9866L308.848 86.8929L320.59 79.2502L291.554 31.3439Z" fill="#3D99EE"/>
<path d="M399.722 99.3602H250.128C246.937 99.3602 243.876 98.0466 241.62 95.7083C239.364 93.37 238.096 90.1987 238.096 86.8918H411.752C411.752 90.1984 410.485 93.3695 408.229 95.7077C405.973 98.046 402.913 99.3598 399.722 99.3602V99.3602Z" fill="#6F2A1A"/>
<path d="M402.567 32.4263H336.338V86.8914H402.567V32.4263Z" fill="#BDD8F5"/>
<path d="M398.14 37.7764H340.77V81.5309H398.14V37.7764Z" fill="#FB4C47"/>
<path d="M369.454 73.6933C376.934 73.6933 382.997 67.4099 382.997 59.659C382.997 51.9081 376.934 45.6248 369.454 45.6248C361.975 45.6248 355.911 51.9081 355.911 59.659C355.911 67.4099 361.975 73.6933 369.454 73.6933Z" fill="#FFC700"/>
<path d="M385.8 81.5311H340.77V60.5803C348.543 60.2753 360.025 61.255 370.873 67.7176C376.72 71.1991 381.803 75.9034 385.8 81.5311V81.5311Z" fill="#1DB776"/>
<path d="M398.138 52.7549V81.5313H362.035C364.348 76.5245 367.322 71.8755 370.871 67.7178C377.034 60.5354 385.827 54.348 398.138 52.7549Z" fill="#11915B"/>
<path d="M273.217 110.185H262.422L263.913 86.8918H271.726L273.217 110.185Z" fill="#592A3C"/>
<path d="M387.429 110.184H376.634L378.125 86.8914H385.938L387.429 110.184Z" fill="#592A3C"/>
<path d="M614.473 74.6709H460.524V0H614.473V74.6709ZM467.125 67.8319H607.873V6.84088H467.123L467.125 67.8319Z" fill="#925C50"/>
<path d="M607.873 6.84106H467.124V67.8321H607.873V6.84106Z" fill="white"/>
<path d="M498.422 51.9525C510.282 49.0729 517.644 36.7749 514.866 24.4841C512.087 12.1934 500.22 4.56412 488.359 7.44373C476.499 10.3233 469.137 22.6213 471.915 34.9121C474.694 47.2029 486.562 54.8321 498.422 51.9525Z" fill="#FFC700"/>
<path d="M467.124 48.5764L508.965 29.2132C512.298 27.6702 515.975 27.0999 519.598 27.5637C523.221 28.0275 526.653 29.5078 529.524 31.845L573.742 67.8313H467.125L467.124 48.5764Z" fill="#11915B"/>
<path d="M540.177 40.516L571.693 29.7183C575.064 28.5636 578.669 28.3567 582.142 29.1188C585.614 29.8809 588.829 31.5846 591.458 34.0558L607.872 49.4843V67.8358H573.741L540.177 40.516Z" fill="#1DB776"/>
</g>
<path opacity="0.89" d="M385.156 179.989C383.721 179.945 382.481 181.092 382.13 182.669C379.903 182.849 377.363 182.91 374.574 182.727C373.016 182.623 371.541 182.454 370.158 182.245C370.166 181.969 370.171 181.69 370.171 181.412C370.171 180.055 370.079 178.723 369.901 177.419C370.604 176.859 371.484 176.27 372.548 175.764C374.396 174.882 376.128 174.568 377.459 174.478C378.115 176.026 379.614 176.925 381.056 176.534C382.677 176.092 383.602 174.185 383.125 172.271C382.647 170.358 380.947 169.161 379.327 169.603C377.85 170.006 376.949 171.627 377.162 173.36C375.994 174.051 374.26 174.8 372.113 174.856C371.049 174.884 370.121 174.736 369.369 174.545C368.892 172.521 368.204 170.581 367.33 168.752C368.256 167.881 369.349 166.958 370.631 166.066C372.486 164.771 374.275 163.845 375.846 163.18C376.87 164.429 378.506 164.844 379.765 164.083C381.212 163.212 381.623 161.113 380.678 159.4C379.73 157.686 377.783 157.007 376.336 157.881C375.074 158.639 374.604 160.323 375.124 161.874C373.775 162.965 372.115 164.118 370.124 165.146C368.768 165.849 367.471 166.383 366.299 166.789C365.341 165.114 364.216 163.552 362.956 162.126C363.441 160.291 364.26 158.148 365.655 156C366.964 153.99 368.421 152.524 369.658 151.493C371.019 152.373 372.731 152.236 373.706 151.078C374.814 149.766 374.56 147.643 373.137 146.337C371.717 145.027 369.666 145.03 368.562 146.342C367.583 147.501 367.664 149.287 368.676 150.59C367.877 151.967 366.67 153.674 364.893 155.3C362.936 157.094 360.967 158.169 359.47 158.808C357.768 157.445 355.91 156.29 353.924 155.375C354.213 154.542 354.594 153.703 355.094 152.878C355.495 152.225 355.925 151.65 356.363 151.148C357.877 151.79 359.567 151.327 360.329 149.983C361.187 148.482 360.561 146.444 358.931 145.433C357.303 144.423 355.289 144.821 354.433 146.325C353.684 147.646 354.079 149.382 355.289 150.468C355.037 151.165 354.73 151.888 354.366 152.625C353.951 153.473 353.496 154.255 353.018 154.978C352.818 154.893 352.615 154.812 352.414 154.737C350.047 153.813 347.528 153.23 344.903 153.032C344.473 151.819 344.097 150.474 343.834 148.996C343.298 145.982 343.397 143.358 343.644 141.388C345.188 141.079 346.346 139.813 346.346 138.296C346.346 136.549 344.809 135.132 342.914 135.132C341.021 135.132 339.485 136.549 339.485 138.296C339.485 139.84 340.685 141.123 342.266 141.403C342.61 143.345 342.835 146.063 342.303 149.214C342.068 150.601 341.722 151.865 341.316 153.009C338.8 153.157 336.378 153.665 334.089 154.482C333.77 153.954 333.486 153.4 333.231 152.747C332.724 151.453 332.503 150.24 332.417 149.23C333.896 148.425 334.661 146.738 334.136 145.245C333.565 143.603 331.655 142.822 329.876 143.501C328.097 144.179 327.12 146.06 327.694 147.702C328.189 149.119 329.678 149.892 331.222 149.642C331.672 150.608 332.103 151.723 332.444 152.989C332.622 153.659 332.758 154.315 332.862 154.956C330.786 155.815 328.837 156.934 327.048 158.274C326.105 157.564 325.143 156.738 324.193 155.771C322.004 153.545 320.541 151.261 319.581 149.432C320.645 148.204 320.831 146.446 319.94 145.234C318.918 143.849 316.875 143.702 315.373 144.908C313.871 146.113 313.48 148.214 314.502 149.599C315.403 150.824 317.105 151.079 318.523 150.29C319.91 151.586 321.709 153.631 323.104 156.57C323.74 157.914 324.186 159.221 324.495 160.441C324.208 160.716 323.921 161 323.644 161.29C322.244 162.752 320.997 164.372 319.925 166.124C319.294 165.934 318.641 165.705 317.973 165.424C315.794 164.509 314.106 163.343 312.884 162.327C313.404 160.747 312.899 159.041 311.605 158.302C310.138 157.462 308.211 158.187 307.3 159.921C306.39 161.656 306.84 163.743 308.31 164.583C309.601 165.322 311.244 164.85 312.243 163.546C313.728 164.082 315.574 164.942 317.483 166.353C318.052 166.775 318.577 167.208 319.062 167.645C317.55 170.486 316.496 173.627 315.994 176.962C314.688 177.078 313.28 177.134 311.771 177.085C309.616 177.016 307.669 176.752 305.969 176.409C305.93 174.665 304.811 173.205 303.295 173.039C301.632 172.857 300.121 174.303 299.925 176.27C299.725 178.237 300.917 179.98 302.58 180.162C304.062 180.324 305.418 179.195 305.838 177.559C307.585 177.596 309.544 177.758 311.667 178.14C313.134 178.403 314.497 178.74 315.752 179.114C315.692 179.871 315.663 180.637 315.663 181.412C315.663 183.251 315.828 185.05 316.15 186.794C314.708 187.791 312.714 188.923 310.18 189.717C307.958 190.414 305.957 190.651 304.364 190.702C303.792 189.151 302.37 188.184 300.927 188.474C299.284 188.806 298.24 190.649 298.602 192.591C298.96 194.533 300.583 195.838 302.229 195.507C303.649 195.22 304.616 193.804 304.621 192.171C306.254 191.617 308.179 191.097 310.371 190.758C312.892 190.369 315.15 190.314 317.051 190.4C317.815 192.806 318.884 195.067 320.202 197.136C319.581 197.651 318.884 198.159 318.107 198.634C316.61 199.543 315.175 200.109 313.931 200.474C313.085 199.07 311.511 198.41 310.153 198.984C308.602 199.64 307.916 201.658 308.631 203.49C309.077 204.64 309.967 205.447 310.952 205.723C311.533 205.889 312.149 205.868 312.726 205.624C312.899 205.552 313.06 205.462 313.208 205.354C314.344 204.571 314.824 202.947 314.344 201.397C315.522 200.763 316.897 200.135 318.485 199.616C319.502 199.284 320.475 199.042 321.39 198.861C322.224 199.987 323.139 201.043 324.124 202.018C324.218 202.111 324.309 202.204 324.403 202.291C323.738 203.842 322.736 205.726 321.224 207.637C319.745 209.506 318.206 210.868 316.912 211.829C315.613 210.868 313.913 210.888 312.867 211.966C311.677 213.194 311.791 215.331 313.124 216.739C314.453 218.145 316.501 218.29 317.691 217.061C318.723 215.996 318.775 214.242 317.894 212.88C318.913 211.495 320.242 209.933 321.939 208.391C323.76 206.736 325.559 205.511 327.125 204.608C329.198 206.147 331.489 207.393 333.936 208.284C333.837 209.245 333.671 210.282 333.401 211.37C332.815 213.743 331.932 215.645 331.13 217.044C329.562 216.716 328.01 217.465 327.479 218.899C326.875 220.528 327.818 222.427 329.584 223.141C331.35 223.856 333.273 223.113 333.876 221.481C334.403 220.064 333.758 218.444 332.419 217.579C332.798 215.891 333.394 213.897 334.344 211.754C334.809 210.709 335.304 209.756 335.811 208.888C337.694 209.419 339.658 209.745 341.682 209.835C342.014 211.49 342.281 213.342 342.409 215.366C342.602 218.377 342.447 221.042 342.172 223.243C340.633 223.555 339.485 224.821 339.485 226.333C339.485 228.08 341.021 229.498 342.917 229.498C344.812 229.498 346.346 228.08 346.346 226.333C346.346 224.826 345.203 223.563 343.674 223.246C343.416 220.996 343.275 218.336 343.421 215.366C343.523 213.362 343.74 211.513 344.018 209.84C346.133 209.756 348.186 209.416 350.148 208.85C350.316 209.152 350.485 209.466 350.643 209.788C351.707 211.916 352.281 213.911 352.593 215.508C351.227 216.336 350.534 217.944 351.022 219.378C351.586 221.025 353.486 221.821 355.274 221.158C357.058 220.494 358.048 218.621 357.486 216.974C356.989 215.514 355.433 214.724 353.842 215.026C353.112 213.717 352.264 211.739 351.969 209.207C351.932 208.894 351.905 208.586 351.887 208.284C354.074 207.494 356.13 206.417 358.021 205.099C359.243 206.135 360.529 207.372 361.808 208.842C363.773 211.101 365.2 213.328 366.232 215.22C365.185 216.446 365.002 218.191 365.89 219.396C366.912 220.781 368.953 220.926 370.458 219.721C371.959 218.516 372.353 216.417 371.331 215.029C370.448 213.833 368.8 213.56 367.4 214.289C365.893 212.695 364.223 210.677 362.612 208.197C361.571 206.594 360.712 205.038 360.002 203.577C360.764 202.936 361.494 202.253 362.184 201.531C363.32 200.346 364.357 199.059 365.272 197.683C366.964 198.177 368.921 198.9 370.994 199.986C372.993 201.028 374.658 202.175 376.002 203.243C375.492 204.794 375.977 206.472 377.236 207.221C378.691 208.09 380.628 207.398 381.571 205.683C382.511 203.964 382.093 201.87 380.638 201.002C379.367 200.244 377.724 200.677 376.702 201.948C375.203 201.353 373.384 200.45 371.499 199.065C369.54 197.628 368.063 196.086 366.989 194.756C367.714 193.339 368.325 191.85 368.812 190.299C369.626 190.329 370.482 190.404 371.375 190.543C373.664 190.904 375.571 191.58 377.039 192.254C376.912 193.908 377.808 195.424 379.231 195.804C380.849 196.24 382.548 195.041 383.021 193.124C383.491 191.208 382.558 189.304 380.94 188.868C379.51 188.485 378.023 189.368 377.368 190.892C375.806 190.758 373.812 190.401 371.63 189.518C370.799 189.182 370.035 188.807 369.337 188.415C369.686 186.978 369.931 185.5 370.057 183.984C371.467 183.865 372.969 183.79 374.545 183.787C377.333 183.778 379.861 183.987 382.083 184.295C382.35 185.889 383.525 187.103 384.96 187.149C386.633 187.198 388.036 185.636 388.088 183.659C388.142 181.682 386.831 180.038 385.156 179.989" fill="#FA5752" fill-opacity="0.82"/>
<path opacity="0.93" d="M133.108 101.721C130.903 101.654 128.998 103.425 128.458 105.859C125.037 106.137 121.133 106.231 116.848 105.949C114.453 105.788 112.188 105.527 110.063 105.204C110.074 104.779 110.082 104.348 110.082 103.918C110.082 101.824 109.941 99.7665 109.667 97.7536C110.747 96.8886 112.1 95.9785 113.735 95.198C116.575 93.8356 119.236 93.351 121.281 93.2122C122.288 95.602 124.592 96.9911 126.809 96.3865C129.299 95.7049 130.72 92.7596 129.987 89.8051C129.253 86.851 126.641 85.0036 124.151 85.6852C121.882 86.3082 120.498 88.81 120.825 91.4861C119.031 92.5534 116.366 93.71 113.066 93.7953C111.431 93.84 110.006 93.6111 108.85 93.3151C108.116 90.1907 107.059 87.1956 105.717 84.3715C107.139 83.0267 108.82 81.6009 110.789 80.2245C113.64 78.2252 116.388 76.795 118.802 75.7689C120.376 77.696 122.889 78.3373 124.824 77.1624C127.048 75.8179 127.679 72.5763 126.227 69.9317C124.771 67.2863 121.779 66.2374 119.555 67.5866C117.616 68.7567 116.894 71.3575 117.692 73.7512C115.621 75.437 113.07 77.2166 110.009 78.8039C107.926 79.8887 105.934 80.7135 104.132 81.3408C102.661 78.7541 100.931 76.3424 98.9963 74.1413C99.7414 71.308 101 67.999 103.144 64.6819C105.155 61.5795 107.394 59.3158 109.295 57.7236C111.386 59.0824 114.016 58.8715 115.514 57.0827C117.217 55.0567 116.826 51.7796 114.64 49.7619C112.458 47.7403 109.306 47.7447 107.611 49.7707C106.105 51.5598 106.231 54.3169 107.785 56.3298C106.558 58.4547 104.702 61.0905 101.973 63.6011C98.9658 66.3722 95.9398 68.0309 93.6398 69.0172C91.0243 66.9142 88.1694 65.1298 85.1167 63.718C85.5615 62.4314 86.147 61.1356 86.9149 59.8626C87.5307 58.8539 88.1922 57.9657 88.8651 57.1908C91.1916 58.1815 93.7881 57.468 94.959 55.3925C96.2781 53.075 95.3163 49.9278 92.8111 48.3676C90.3097 46.8074 87.2152 47.4216 85.8998 49.744C84.748 51.784 85.3562 54.4645 87.2152 56.1411C86.8274 57.2172 86.356 58.3339 85.7972 59.4721C85.1585 60.7815 84.459 61.9875 83.7253 63.1038C83.4174 62.9738 83.1057 62.8482 82.7978 62.7321C79.1597 61.3063 75.2897 60.4053 71.2562 60.0998C70.5947 58.2262 70.0169 56.1495 69.6139 53.8686C68.789 49.2144 68.9411 45.1635 69.3212 42.1212C71.6934 41.6447 73.4725 39.69 73.4725 37.3481C73.4725 34.6497 71.1118 32.4617 68.1997 32.4617C65.2915 32.4617 62.9307 34.6497 62.9307 37.3481C62.9307 39.7307 64.7745 41.7121 67.2037 42.1448C67.7321 45.1424 68.0781 49.3396 67.2607 54.2044C66.8996 56.3461 66.3674 58.298 65.7439 60.0644C61.8777 60.2933 58.156 61.0766 54.6395 62.3389C54.1491 61.5241 53.7119 60.6686 53.3204 59.6595C52.5411 57.6618 52.2027 55.7882 52.0697 54.2292C54.343 52.9872 55.5177 50.3817 54.7117 48.0765C53.8336 45.5412 50.8988 44.3355 48.1655 45.3832C45.4321 46.4309 43.9305 49.3352 44.8125 51.8701C45.5728 54.0581 47.8613 55.2517 50.2335 54.8657C50.9254 56.3577 51.5869 58.0786 52.1115 60.0329C52.3852 61.0682 52.5943 62.08 52.7539 63.0699C49.5644 64.396 46.5688 66.1249 43.8202 68.194C42.3718 67.0968 40.8931 65.8226 39.4332 64.329C36.0689 60.8915 33.8221 57.3659 32.3471 54.5414C33.9818 52.645 34.2669 49.9306 32.8983 48.0602C31.3283 45.9205 28.1882 45.6943 25.8807 47.5556C23.5731 49.4166 22.9724 52.6602 24.5425 54.7995C25.9263 56.6907 28.5417 57.084 30.72 55.866C32.8527 57.8669 35.6165 61.0243 37.7606 65.5622C38.7376 67.6376 39.4219 69.6561 39.897 71.5385C39.4561 71.9637 39.0151 72.4024 38.5893 72.8499C36.4376 75.108 34.5216 77.6082 32.8755 80.3143C31.9061 80.0207 30.9025 79.667 29.8761 79.2326C26.5269 77.82 23.9342 76.0197 22.0562 74.4512C22.8546 72.0112 22.0791 69.3781 20.0909 68.2371C17.8365 66.9401 14.8751 68.0592 13.4761 70.7369C12.0772 73.415 12.769 76.6375 15.0272 77.9341C17.0116 79.0751 19.5358 78.3461 21.0717 76.334C23.3526 77.1612 26.1886 78.4884 29.1234 80.6676C29.9977 81.3185 30.8037 81.9881 31.5488 82.6617C29.226 87.0492 27.6066 91.8985 26.8348 97.0469C24.8276 97.2272 22.6645 97.3125 20.3455 97.238C17.0344 97.1307 14.0425 96.7235 11.4309 96.1934C11.37 93.501 9.65174 91.2468 7.32138 90.9904C4.76672 90.7088 2.44395 92.9422 2.14363 95.9797C1.8357 99.0163 3.66805 101.707 6.22271 101.988C8.49985 102.239 10.5831 100.496 11.2294 97.969C13.9133 98.026 16.9242 98.2773 20.1859 98.866C22.4402 99.2732 24.5349 99.7932 26.4623 100.37C26.371 101.54 26.3254 102.722 26.3254 103.918C26.3254 106.758 26.5801 109.536 27.0743 112.228C24.858 113.768 21.7939 115.515 17.9011 116.741C14.4873 117.817 11.4119 118.183 8.96366 118.262C8.0855 115.868 5.89958 114.375 3.68326 114.823C1.15902 115.335 -0.445242 118.18 0.109788 121.178C0.661016 124.177 3.15487 126.193 5.68291 125.681C7.86501 125.239 9.3514 123.052 9.359 120.531C11.868 119.675 14.8257 118.872 18.1939 118.349C22.0677 117.748 25.5385 117.663 28.4581 117.796C29.6328 121.511 31.2751 125.002 33.3013 128.197C32.3471 128.991 31.2751 129.776 30.0814 130.509C27.7814 131.913 25.5765 132.786 23.6643 133.35C22.3642 131.182 19.9464 130.163 17.8593 131.049C15.4758 132.063 14.4227 135.179 15.5214 138.007C16.2057 139.783 17.5742 141.029 19.0872 141.455C19.9806 141.71 20.9272 141.679 21.813 141.302C22.0791 141.19 22.3262 141.051 22.5543 140.885C24.2992 139.676 25.0367 137.168 24.2992 134.776C26.1087 133.796 28.2224 132.826 30.663 132.026C32.2255 131.513 33.7195 131.139 35.1261 130.86C36.4072 132.598 37.8138 134.229 39.3268 135.735C39.4713 135.878 39.6119 136.021 39.7564 136.156C38.7338 138.55 37.1941 141.459 34.8714 144.409C32.598 147.296 30.2335 149.399 28.2452 150.883C26.2494 149.399 23.6377 149.43 22.0297 151.093C20.2011 152.99 20.376 156.289 22.425 158.464C24.4665 160.633 27.6142 160.858 29.4427 158.961C31.028 157.316 31.1078 154.608 29.7544 152.505C31.3207 150.367 33.3621 147.955 35.97 145.575C38.768 143.019 41.5317 141.127 43.9381 139.733C47.1238 142.109 50.6441 144.032 54.4038 145.409C54.2518 146.893 53.9971 148.493 53.5827 150.174C52.6817 153.837 51.3245 156.774 50.0928 158.934C47.6826 158.428 45.2991 159.584 44.4817 161.799C43.5541 164.314 45.0025 167.246 47.7169 168.349C50.4312 169.453 53.385 168.304 54.3126 165.785C55.1223 163.597 54.1301 161.095 52.0735 159.76C52.6551 157.155 53.5713 154.075 55.0311 150.767C55.7458 149.153 56.5061 147.682 57.2854 146.341C60.1784 147.162 63.1969 147.664 66.3065 147.803C66.8159 150.358 67.2265 153.219 67.4242 156.343C67.7207 160.992 67.4812 165.107 67.0593 168.506C64.6947 168.987 62.9307 170.942 62.9307 173.276C62.9307 175.973 65.2915 178.163 68.2035 178.163C71.1155 178.163 73.4725 175.973 73.4725 173.276C73.4725 170.95 71.7162 168.999 69.3668 168.51C68.9714 165.036 68.7548 160.929 68.9791 156.343C69.1349 153.25 69.4695 150.394 69.8952 147.812C73.1456 147.682 76.3009 147.157 79.3155 146.283C79.574 146.749 79.8325 147.233 80.0758 147.731C81.7105 151.017 82.5925 154.098 83.0715 156.563C80.973 157.841 79.9086 160.324 80.6575 162.539C81.5242 165.081 84.4438 166.31 87.1924 165.287C89.9333 164.26 91.454 161.369 90.591 158.826C89.8269 156.572 87.4357 155.353 84.9913 155.819C83.8698 153.797 82.5659 150.744 82.1135 146.834C82.0565 146.35 82.0146 145.875 81.988 145.409C85.3486 144.19 88.5077 142.526 91.4121 140.491C93.2901 142.091 95.2669 144.001 97.2323 146.27C100.251 149.758 102.444 153.196 104.03 156.119C102.421 158.011 102.14 160.705 103.505 162.566C105.075 164.704 108.211 164.928 110.523 163.068C112.83 161.207 113.435 157.966 111.865 155.823C110.507 153.976 107.976 153.555 105.824 154.68C103.509 152.219 100.943 149.103 98.4678 145.274C96.8674 142.8 95.5482 140.397 94.4572 138.142C95.628 137.151 96.7495 136.097 97.8102 134.981C99.5551 133.152 101.148 131.166 102.555 129.041C105.155 129.803 108.162 130.919 111.348 132.596C114.419 134.206 116.978 135.976 119.042 137.626C118.259 140.02 119.004 142.611 120.939 143.768C123.174 145.109 126.151 144.042 127.599 141.392C129.044 138.738 128.401 135.506 126.166 134.166C124.212 132.995 121.688 133.663 120.118 135.627C117.814 134.708 115.02 133.314 112.123 131.175C109.112 128.956 106.843 126.575 105.193 124.522C106.307 122.334 107.246 120.035 107.995 117.641C109.245 117.686 110.561 117.802 111.933 118.017C115.449 118.573 118.38 119.618 120.635 120.658C120.441 123.213 121.817 125.553 124.003 126.14C126.489 126.813 129.101 124.961 129.827 122.003C130.549 119.044 129.116 116.103 126.63 115.431C124.433 114.838 122.148 116.202 121.14 118.555C118.742 118.349 115.678 117.798 112.325 116.435C111.047 115.915 109.873 115.336 108.801 114.731C109.337 112.512 109.713 110.23 109.907 107.89C112.074 107.706 114.381 107.59 116.803 107.585C121.087 107.572 124.972 107.894 128.386 108.37C128.797 110.831 130.603 112.705 132.807 112.777C135.377 112.853 137.533 110.441 137.613 107.388C137.696 104.335 135.681 101.797 133.108 101.721Z" fill="#FA5752" fill-opacity="0.9"/>
<path d="M761.834 47.2704C760.515 47.2296 759.377 48.3031 759.054 49.7789C757.008 49.9474 754.674 50.0044 752.112 49.8333C750.681 49.7356 749.326 49.5777 748.055 49.3821C748.062 49.1239 748.067 48.863 748.067 48.6021C748.067 47.3328 747.983 46.0855 747.819 44.8653C748.465 44.3409 749.274 43.7891 750.251 43.316C751.949 42.4901 753.54 42.1963 754.763 42.1122C755.365 43.5609 756.742 44.403 758.067 44.0365C759.556 43.6233 760.406 41.8378 759.968 40.0467C759.529 38.2559 757.967 37.136 756.479 37.5492C755.122 37.9268 754.294 39.4435 754.49 41.0658C753.417 41.7128 751.824 42.4139 749.851 42.4657C748.874 42.4927 748.021 42.354 747.33 42.1746C746.892 40.2805 746.26 38.4648 745.457 36.7528C746.308 35.9375 747.312 35.0732 748.49 34.2388C750.194 33.0268 751.837 32.1598 753.281 31.5377C754.222 32.706 755.724 33.0947 756.881 32.3825C758.211 31.5675 758.588 29.6023 757.72 27.9991C756.849 26.3954 755.06 25.7595 753.731 26.5775C752.572 27.2868 752.14 28.8634 752.617 30.3146C751.378 31.3366 749.853 32.4153 748.024 33.3776C746.778 34.0352 745.587 34.5352 744.51 34.9155C743.63 33.3474 742.596 31.8854 741.439 30.551C741.884 28.8335 742.637 26.8275 743.919 24.8166C745.121 22.9359 746.46 21.5635 747.596 20.5984C748.846 21.4221 750.419 21.2942 751.315 20.2099C752.333 18.9816 752.099 16.995 750.792 15.7718C749.487 14.5463 747.603 14.549 746.589 15.7772C745.689 16.8618 745.764 18.5332 746.694 19.7534C745.96 21.0416 744.851 22.6394 743.219 24.1614C741.421 25.8413 739.612 26.8468 738.236 27.4447C736.673 26.1698 734.966 25.0881 733.141 24.2323C733.407 23.4523 733.757 22.6668 734.216 21.895C734.584 21.2836 734.979 20.7451 735.382 20.2754C736.773 20.8759 738.325 20.4434 739.025 19.1852C739.814 17.7803 739.239 15.8724 737.741 14.9266C736.245 13.9808 734.395 14.3531 733.609 15.761C732.92 16.9977 733.284 18.6226 734.395 19.639C734.163 20.2913 733.882 20.9683 733.547 21.6583C733.166 22.4521 732.747 23.1832 732.309 23.8599C732.125 23.7811 731.938 23.7049 731.754 23.6346C729.579 22.7702 727.265 22.2241 724.854 22.0389C724.458 20.903 724.113 19.6441 723.872 18.2614C723.379 15.4399 723.469 12.9842 723.697 11.1399C725.115 10.851 726.179 9.66609 726.179 8.24639C726.179 6.61054 724.767 5.28417 723.026 5.28417C721.287 5.28417 719.876 6.61054 719.876 8.24639C719.876 9.69075 720.978 10.8919 722.431 11.1542C722.747 12.9714 722.954 15.5158 722.465 18.465C722.249 19.7633 721.931 20.9466 721.558 22.0174C719.246 22.1561 717.021 22.631 714.919 23.3962C714.626 22.9023 714.364 22.3836 714.13 21.772C713.664 20.5609 713.462 19.4251 713.382 18.48C714.742 17.7271 715.444 16.1476 714.962 14.7501C714.437 13.2132 712.682 12.4823 711.048 13.1174C709.414 13.7525 708.516 15.5131 709.043 17.0499C709.498 18.3762 710.866 19.0999 712.285 18.8658C712.698 19.7703 713.094 20.8136 713.407 21.9983C713.571 22.6259 713.696 23.2393 713.791 23.8394C711.884 24.6433 710.093 25.6914 708.45 26.9457C707.584 26.2806 706.7 25.5081 705.827 24.6027C703.816 22.5188 702.472 20.3815 701.591 18.6693C702.568 17.5196 702.738 15.8741 701.92 14.7402C700.981 13.4431 699.104 13.306 697.724 14.4344C696.345 15.5625 695.986 17.5288 696.924 18.8257C697.752 19.9722 699.315 20.2106 700.618 19.4722C701.893 20.6852 703.545 22.5993 704.827 25.3502C705.411 26.6084 705.82 27.832 706.105 28.9732C705.841 29.2309 705.577 29.4969 705.323 29.7682C704.036 31.1371 702.891 32.6528 701.906 34.2932C701.327 34.1153 700.727 33.9008 700.113 33.6375C698.111 32.7812 696.561 31.6898 695.438 30.7389C695.915 29.2597 695.451 27.6635 694.263 26.9718C692.915 26.1856 691.144 26.864 690.308 28.4872C689.471 30.1108 689.885 32.0643 691.235 32.8503C692.422 33.542 693.931 33.1001 694.849 31.8803C696.213 32.3817 697.908 33.1864 699.663 34.5074C700.186 34.902 700.668 35.3079 701.113 35.7163C699.724 38.3761 698.756 41.3158 698.295 44.4368C697.095 44.5461 695.801 44.5979 694.415 44.5527C692.435 44.4876 690.647 44.2408 689.085 43.9195C689.049 42.2872 688.021 40.9207 686.628 40.7653C685.101 40.5946 683.712 41.9485 683.532 43.7899C683.348 45.6307 684.444 47.2617 685.971 47.4324C687.333 47.5843 688.578 46.5275 688.965 44.9958C690.569 45.0304 692.369 45.1827 694.32 45.5396C695.667 45.7864 696.92 46.1017 698.072 46.4516C698.018 47.1604 697.99 47.8773 697.99 48.6021C697.99 50.3238 698.143 52.0078 698.438 53.6397C697.113 54.5732 695.281 55.6324 692.954 56.3759C690.912 57.0282 689.074 57.2502 687.61 57.2978C687.085 55.8464 685.778 54.9412 684.453 55.213C682.944 55.5234 681.985 57.248 682.316 59.0656C682.646 60.8835 684.137 62.1055 685.648 61.795C686.953 61.5272 687.842 60.2015 687.846 58.673C689.346 58.1542 691.115 57.6677 693.129 57.3503C695.445 56.9864 697.52 56.9344 699.265 57.0152C699.968 59.2673 700.95 61.3835 702.161 63.3206C701.591 63.802 700.95 64.2776 700.236 64.722C698.861 65.573 697.543 66.1025 696.399 66.4446C695.622 65.1301 694.176 64.5126 692.929 65.0498C691.503 65.6642 690.874 67.5529 691.531 69.2678C691.94 70.3439 692.758 71.0995 693.663 71.3577C694.197 71.5127 694.763 71.4936 695.292 71.2651C695.451 71.1974 695.599 71.113 695.736 71.0124C696.779 70.2791 697.22 68.7591 696.779 67.3087C697.861 66.7149 699.124 66.1269 700.584 65.6419C701.518 65.3307 702.411 65.104 703.252 64.9347C704.018 65.9886 704.859 66.9772 705.764 67.8902C705.85 67.9767 705.934 68.0638 706.02 68.1452C705.409 69.5966 704.488 71.3604 703.1 73.1488C701.741 74.8987 700.327 76.1736 699.138 77.073C697.945 76.1736 696.383 76.1925 695.422 77.2007C694.329 78.3505 694.433 80.3507 695.658 81.6689C696.879 82.9841 698.761 83.12 699.854 81.9704C700.802 80.9731 700.85 79.3317 700.04 78.0568C700.977 76.7606 702.197 75.2984 703.757 73.8552C705.429 72.3062 707.082 71.1592 708.521 70.3142C710.425 71.7544 712.53 72.9203 714.778 73.7549C714.687 74.6543 714.535 75.6245 714.287 76.6436C713.748 78.8641 712.937 80.6442 712.2 81.9542C710.759 81.6471 709.334 82.348 708.846 83.6906C708.291 85.2155 709.157 86.9928 710.78 87.6613C712.403 88.3305 714.169 87.6344 714.723 86.1069C715.207 84.7808 714.614 83.2641 713.385 82.4544C713.732 80.8751 714.28 79.0082 715.153 77.0026C715.58 76.0242 716.035 75.1328 716.501 74.3199C718.23 74.8172 720.035 75.1219 721.894 75.206C722.199 76.7551 722.444 78.4891 722.563 80.3834C722.74 83.2015 722.597 85.6964 722.344 87.7568C720.931 88.0483 719.876 89.2333 719.876 90.6481C719.876 92.2835 721.287 93.6106 723.029 93.6106C724.77 93.6106 726.179 92.2835 726.179 90.6481C726.179 89.2381 725.129 88.0556 723.724 87.7592C723.488 85.6528 723.358 83.1635 723.492 80.3834C723.585 78.5079 723.785 76.7771 724.04 75.2116C725.983 75.1328 727.87 74.8146 729.672 74.2848C729.827 74.5672 729.981 74.8608 730.127 75.1625C731.104 77.1547 731.631 79.0219 731.918 80.5166C730.663 81.291 730.027 82.7965 730.475 84.1391C730.993 85.6802 732.738 86.4251 734.382 85.8052C736.02 85.1828 736.93 83.4297 736.414 81.8887C735.957 80.5221 734.527 79.7828 733.066 80.0654C732.395 78.8396 731.616 76.9889 731.345 74.6187C731.311 74.3255 731.286 74.0373 731.27 73.7549C733.279 73.0155 735.168 72.0073 736.905 70.7733C738.027 71.7436 739.209 72.9014 740.384 74.2766C742.189 76.3909 743.501 78.4755 744.448 80.2473C743.487 81.3945 743.319 83.0277 744.135 84.1555C745.073 85.4517 746.948 85.5878 748.33 84.4599C749.71 83.3318 750.071 81.3672 749.133 80.0679C748.321 78.9484 746.808 78.6929 745.521 79.3752C744.137 77.8829 742.603 75.9942 741.123 73.6732C740.166 72.173 739.377 70.7165 738.725 69.3493C739.425 68.7487 740.096 68.1099 740.73 67.4335C741.773 66.3244 742.725 65.1204 743.566 63.8325C745.121 64.2943 746.919 64.971 748.824 65.9874C750.66 66.9632 752.19 68.0364 753.424 69.0367C752.956 70.488 753.401 72.0588 754.558 72.76C755.895 73.5728 757.674 72.9258 758.54 71.3197C759.404 69.711 759.02 67.7511 757.683 66.9388C756.515 66.2294 755.006 66.6344 754.067 67.8246C752.69 67.2674 751.019 66.4224 749.287 65.126C747.487 63.7807 746.13 62.3376 745.144 61.0927C745.81 59.7666 746.371 58.3725 746.819 56.9211C747.567 56.9484 748.353 57.019 749.174 57.1493C751.276 57.4866 753.028 58.1198 754.376 58.7504C754.26 60.2992 755.083 61.7179 756.39 62.0738C757.877 62.4814 759.438 61.3591 759.872 59.5654C760.304 57.7717 759.447 55.9891 757.961 55.5814C756.647 55.2224 755.281 56.049 754.679 57.4755C753.244 57.3505 751.412 57.0164 749.408 56.19C748.644 55.8749 747.942 55.5241 747.301 55.1574C747.621 53.8121 747.846 52.4285 747.962 51.0102C749.258 50.8988 750.637 50.8282 752.085 50.8253C754.647 50.817 756.97 51.0126 759.011 51.3008C759.256 52.7931 760.336 53.9289 761.654 53.9724C763.191 54.0186 764.479 52.5564 764.527 50.7056C764.577 48.8548 763.372 47.3166 761.834 47.2704" fill="#FA5752" fill-opacity="0.75"/>
<path d="M850.924 315.177C847.943 315.085 845.374 317.507 844.645 320.837C840.031 321.217 834.759 321.345 828.971 320.959C825.753 320.738 822.693 320.383 819.831 319.942C819.846 319.359 819.854 318.77 819.854 318.182C819.854 315.318 819.656 312.504 819.292 309.75C820.75 308.566 822.574 307.321 824.786 306.254C828.615 304.39 832.198 303.728 834.965 303.538C836.321 306.806 839.436 308.707 842.417 307.879C845.779 306.948 847.705 302.918 846.706 298.877C845.715 294.836 842.195 292.309 838.834 293.241C835.774 294.093 833.903 297.515 834.347 301.177C831.929 302.636 828.329 304.218 823.874 304.334C821.678 304.396 819.751 304.083 818.19 303.679C817.199 299.404 815.779 295.308 813.964 291.445C815.883 289.605 818.15 287.655 820.806 285.772C824.651 283.037 828.361 281.081 831.619 279.676C833.744 282.314 837.129 283.191 839.746 281.584C842.75 279.744 843.591 275.31 841.632 271.692C839.674 268.074 835.639 266.639 832.634 268.485C830.026 270.085 829.043 273.642 830.121 276.917C827.322 279.222 823.882 281.657 819.751 283.828C816.945 285.312 814.257 286.44 811.823 287.299C809.834 283.761 807.511 280.461 804.894 277.45C805.901 273.575 807.598 269.049 810.492 264.511C813.211 260.268 816.223 257.171 818.784 254.993C821.606 256.852 825.158 256.564 827.18 254.117C829.479 251.345 828.956 246.862 825.999 244.103C823.057 241.338 818.808 241.343 816.517 244.115C814.495 246.562 814.654 250.334 816.755 253.086C815.098 255.993 812.592 259.599 808.914 263.034C804.855 266.823 800.78 269.092 797.672 270.441C794.136 267.565 790.283 265.124 786.169 263.193C786.763 261.432 787.556 259.661 788.595 257.919C789.427 256.539 790.323 255.325 791.227 254.264C794.358 255.619 797.87 254.644 799.448 251.805C801.224 248.635 799.924 244.329 796.546 242.196C793.169 240.062 788.999 240.902 787.223 244.078C785.669 246.869 786.486 250.535 788.999 252.829C788.476 254.301 787.842 255.828 787.08 257.385C786.216 259.176 785.281 260.826 784.29 262.352C783.87 262.174 783.457 262.003 783.037 261.844C778.138 259.893 772.913 258.661 767.467 258.244C766.571 255.681 765.794 252.84 765.247 249.72C764.137 243.354 764.343 237.813 764.859 233.652C768.061 232.999 770.456 230.326 770.456 227.123C770.456 223.431 767.277 220.438 763.352 220.438C759.42 220.438 756.233 223.431 756.233 227.123C756.233 230.381 758.714 233.091 761.996 233.683C762.71 237.784 763.178 243.525 762.084 250.18C761.592 253.109 760.871 255.779 760.03 258.195C754.806 258.508 749.788 259.58 745.047 261.307C744.389 260.192 743.794 259.022 743.263 257.641C742.216 254.907 741.764 252.346 741.582 250.213C744.65 248.514 746.228 244.95 745.15 241.797C743.961 238.33 740.004 236.68 736.31 238.113C732.624 239.547 730.594 243.519 731.791 246.987C732.822 249.979 735.906 251.612 739.101 251.083C740.036 253.125 740.932 255.478 741.63 258.152C742.01 259.568 742.288 260.953 742.502 262.307C738.197 264.12 734.162 266.486 730.451 269.316C728.501 267.815 726.503 266.072 724.529 264.029C719.987 259.327 716.958 254.504 714.968 250.641C717.172 248.047 717.561 244.333 715.713 241.775C713.597 238.848 709.355 238.539 706.24 241.085C703.132 243.631 702.323 248.067 704.432 250.994C706.311 253.58 709.831 254.118 712.78 252.452C715.65 255.19 719.384 259.508 722.27 265.716C723.594 268.555 724.513 271.316 725.163 273.89C724.569 274.472 723.966 275.072 723.388 275.684C720.494 278.773 717.901 282.193 715.682 285.894C714.374 285.494 713.018 285.009 711.63 284.415C707.12 282.483 703.623 280.02 701.086 277.874C702.165 274.537 701.11 270.936 698.431 269.375C695.394 267.6 691.398 269.131 689.512 272.795C687.617 276.457 688.552 280.865 691.605 282.639C694.276 284.199 697.685 283.203 699.754 280.45C702.831 281.582 706.668 283.397 710.624 286.378C711.805 287.269 712.883 288.184 713.89 289.105C710.758 295.107 708.57 301.741 707.532 308.783C704.828 309.029 701.911 309.147 698.779 309.044C694.308 308.898 690.273 308.341 686.745 307.615C686.665 303.932 684.351 300.849 681.211 300.499C677.755 300.112 674.623 303.168 674.211 307.323C673.806 311.477 676.272 315.157 679.721 315.542C682.797 315.885 685.603 313.5 686.483 310.044C690.098 310.121 694.157 310.465 698.557 311.271C701.61 311.828 704.424 312.539 707.032 313.329C706.905 314.929 706.85 316.546 706.85 318.182C706.85 322.066 707.191 325.865 707.857 329.548C704.86 331.656 700.738 334.045 695.481 335.723C690.875 337.195 686.729 337.696 683.423 337.803C682.234 334.528 679.285 332.485 676.296 333.098C672.895 333.798 670.73 337.69 671.476 341.791C672.221 345.893 675.59 348.651 678.991 347.951C681.94 347.345 683.946 344.354 683.954 340.906C687.339 339.735 691.335 338.637 695.878 337.922C701.094 337.1 705.78 336.982 709.728 337.164C711.305 342.247 713.525 347.022 716.26 351.392C714.968 352.479 713.533 353.551 711.908 354.554C708.808 356.475 705.835 357.67 703.251 358.442C701.507 355.475 698.24 354.082 695.418 355.294C692.207 356.681 690.788 360.942 692.263 364.812C693.19 367.24 695.037 368.945 697.083 369.528C698.288 369.877 699.564 369.835 700.761 369.32C701.11 369.166 701.451 368.976 701.76 368.749C704.107 367.094 705.106 363.664 704.115 360.392C706.557 359.052 709.411 357.725 712.693 356.63C714.81 355.928 716.823 355.416 718.718 355.035C720.446 357.413 722.349 359.644 724.387 361.703C724.577 361.899 724.775 362.096 724.965 362.279C723.586 365.554 721.509 369.534 718.377 373.569C715.309 377.518 712.122 380.394 709.434 382.425C706.747 380.394 703.219 380.437 701.055 382.712C698.581 385.306 698.819 389.82 701.586 392.794C704.337 395.761 708.586 396.069 711.052 393.474C713.2 391.223 713.303 387.52 711.48 384.644C713.589 381.718 716.34 378.42 719.852 375.163C723.633 371.668 727.36 369.08 730.61 367.173C734.907 370.423 739.656 373.053 744.722 374.936C744.523 376.966 744.182 379.155 743.62 381.455C742.399 386.466 740.575 390.482 738.918 393.438C735.66 392.744 732.441 394.327 731.339 397.357C730.095 400.797 732.053 404.807 735.715 406.316C739.37 407.824 743.35 406.254 744.611 402.808C745.697 399.815 744.365 396.394 741.582 394.566C742.367 391.003 743.612 386.789 745.578 382.264C746.545 380.057 747.568 378.045 748.614 376.212C752.523 377.334 756.59 378.022 760.791 378.211C761.473 381.707 762.028 385.619 762.298 389.893C762.702 396.252 762.377 401.882 761.806 406.53C758.619 407.187 756.233 409.86 756.233 413.056C756.233 416.747 759.412 419.739 763.352 419.739C767.277 419.739 770.456 416.747 770.456 413.056C770.456 409.873 768.085 407.205 764.914 406.536C764.383 401.784 764.097 396.167 764.399 389.893C764.605 385.661 765.057 381.755 765.627 378.223C770.02 378.045 774.277 377.328 778.344 376.132C778.693 376.769 779.034 377.432 779.367 378.114C781.578 382.608 782.768 386.821 783.41 390.193C780.58 391.941 779.137 395.339 780.159 398.368C781.317 401.845 785.265 403.526 788.967 402.127C792.662 400.723 794.723 396.767 793.558 393.291C792.527 390.206 789.3 388.537 786.002 389.176C784.488 386.41 782.728 382.234 782.118 376.887C782.038 376.224 781.983 375.575 781.951 374.936C786.478 373.268 790.743 370.993 794.667 368.209C797.196 370.398 799.86 373.01 802.508 376.113C806.583 380.884 809.548 385.589 811.689 389.586C809.516 392.174 809.144 395.86 810.975 398.405C813.1 401.33 817.333 401.637 820.449 399.091C823.557 396.547 824.365 392.113 822.257 389.182C820.425 386.655 817.008 386.079 814.107 387.618C810.983 384.251 807.519 379.99 804.181 374.752C802.025 371.367 800.241 368.081 798.774 364.996C800.352 363.641 801.858 362.199 803.301 360.672C805.648 358.171 807.796 355.454 809.699 352.547C813.211 353.59 817.262 355.117 821.559 357.41C825.705 359.612 829.162 362.034 831.944 364.291C830.89 367.566 831.889 371.11 834.505 372.692C837.518 374.526 841.537 373.066 843.488 369.442C845.438 365.812 844.566 361.39 841.553 359.556C838.921 357.956 835.504 358.87 833.395 361.556C830.288 360.298 826.514 358.391 822.605 355.466C818.546 352.431 815.478 349.174 813.258 346.366C814.757 343.374 816.025 340.228 817.04 336.953C818.721 337.014 820.505 337.174 822.344 337.468C827.093 338.228 831.049 339.657 834.093 341.079C833.831 344.575 835.686 347.776 838.628 348.58C841.989 349.5 845.509 346.967 846.492 342.92C847.467 338.873 845.541 334.85 842.171 333.93C839.222 333.119 836.138 334.985 834.767 338.203C831.54 337.921 827.394 337.167 822.867 335.303C821.155 334.592 819.569 333.801 818.126 332.973C818.848 329.938 819.355 326.815 819.617 323.615C822.542 323.363 825.65 323.204 828.924 323.197C834.695 323.179 839.944 323.621 844.55 324.271C845.105 327.638 847.539 330.201 850.512 330.3C853.984 330.403 856.894 327.104 856.997 322.928C857.108 318.753 854.388 315.281 850.924 315.177" fill="#FA5752" fill-opacity="0.92"/>
<path d="M648.283 216.512V527.62" stroke="#925D51" stroke-width="5.81" stroke-miterlimit="10"/>
<path d="M589.749 215.405C589.749 215.405 640.817 237.853 706.29 212.764L670.933 129.575L618.559 128.254L589.749 215.405Z" fill="#AC6352"/>
<path d="M684.794 162.188C664.216 186.351 630.797 196.526 595.73 197.311L589.749 215.405C589.749 215.405 640.817 237.853 706.291 212.764L684.794 162.188Z" fill="#984B39"/>
<rect x="194.192" y="575.459" width="528.897" height="12.7877" rx="6.39386" fill="#925D51"/>
<path fill-rule="evenodd" clip-rule="evenodd" d="M459.101 297.181C458.513 297.086 457.915 297.04 457.311 297.04H322.898H322.781C313.496 297.039 305.99 297.039 305.99 332.397V521.924C305.99 517.16 308.363 518.495 312.092 520.593C315.022 522.241 318.788 524.36 322.898 524.36H457.311C458.599 524.36 459.853 524.151 461.058 523.815H592.747C598.459 523.815 603.695 521.702 607.768 520.059C612.951 517.968 616.25 516.636 616.25 521.385V332.432C616.25 297.18 605.815 297.181 592.909 297.181H592.747H459.101Z" fill="#F5C827"/>
<g opacity="0.699997">
<g opacity="0.699997">
<path d="M316.795 395.761V521.577C316.795 512.535 323.592 524.167 331.977 524.167H452.673C458.783 524.167 464.046 518 466.455 518.146V521.577C466.455 519.857 466.7 518.888 467.152 518.442C467.608 518.888 467.855 519.857 467.855 521.577V518.144C470.248 518.023 475.453 524.167 481.494 524.167H601.051C609.358 524.167 616.091 512.535 616.091 521.577V320.144C616.091 318.129 616.068 316.243 616.03 314.438L316.795 395.761Z" fill="#DCB21D"/>
</g>
</g>
<path d="M330.212 489.276C330.212 502.045 323.171 512.397 314.485 512.397H279.887C271.202 512.397 264.16 502.045 264.16 489.276V406.042C264.16 393.272 271.202 382.921 279.887 382.921H314.485C323.171 382.921 330.212 393.272 330.212 406.042V489.276Z" fill="#EBAFB2"/>
<path d="M344.596 498.498C344.596 512.386 334.38 523.645 321.778 523.645H271.579C258.977 523.645 248.761 512.386 248.761 498.498V407.968C248.761 394.08 258.977 382.821 271.579 382.821H321.778C334.38 382.821 344.596 394.08 344.596 407.968V498.498Z" fill="#CAA41E"/>
<path d="M696.887 498.713C696.887 512.645 686.813 523.939 674.385 523.939H624.881C612.454 523.939 602.379 512.645 602.379 498.713V407.9C602.379 393.968 612.454 382.674 624.881 382.674H674.385C686.813 382.674 696.887 393.968 696.887 407.9V498.713Z" fill="#CAA41E"/>
<path d="M285.992 605.006C285.992 609.421 283.214 613 279.787 613C276.36 613 273.581 609.421 273.581 605.006V577.388C273.581 572.974 276.36 569.395 279.787 569.395C283.214 569.395 285.992 572.974 285.992 577.388V605.006Z" fill="#925D51"/>
<path d="M671.398 603.577C671.398 607.991 668.62 611.57 665.192 611.57C661.766 611.57 658.988 607.991 658.988 603.577V575.959C658.988 571.544 661.766 567.965 665.192 567.965C668.62 567.965 671.398 571.544 671.398 575.959V603.577Z" fill="#925D51"/>
<path d="M681.783 382.821H664.383C655.647 382.821 648.566 393.177 648.566 405.953V521.613H295.039V405.953C295.039 393.177 287.957 382.821 279.221 382.821H261.822C253.086 382.821 246.005 393.177 246.005 405.953V564.407C246.005 571.094 247.956 577.099 251.058 581.323C253.944 585.849 258.047 588.695 262.614 588.695L681.783 587.539C690.519 587.539 697.601 577.183 697.601 564.407V405.953C697.601 393.177 690.519 382.821 681.783 382.821Z" fill="#F5C827"/>
<path d="M385.142 394.973H320.764C318.315 394.973 316.33 397.375 316.33 400.337V478.209C316.33 481.172 318.315 483.573 320.764 483.573H385.142C387.591 483.573 389.576 481.172 389.576 478.209V400.337C389.576 397.375 387.591 394.973 385.142 394.973Z" fill="white"/>
<path d="M634.266 403.438L575.723 392.844C573.496 392.441 571.291 394.485 570.798 397.409L557.845 474.28C557.352 477.205 558.758 479.902 560.985 480.305L619.528 490.899C621.756 491.302 623.961 489.258 624.453 486.334L637.407 409.462C637.899 406.538 636.493 403.841 634.266 403.438Z" fill="white"/>
<path fill-rule="evenodd" clip-rule="evenodd" d="M627.614 539.283C639.501 539.283 649.137 528.134 649.137 514.382V491.971C649.137 478.218 639.501 467.07 627.614 467.07H461.387C460.193 466.578 458.944 466.317 457.657 466.317H309.921C301.466 466.317 294.612 477.582 294.612 491.478V514.122C294.612 528.018 301.466 539.283 309.921 539.283H423.085C423.106 539.283 423.127 539.283 423.148 539.283H627.614Z" fill="#FFE792"/>
<path d="M420.663 259.707C418.458 259.524 416.403 258.48 414.894 256.803C410.95 252.417 405.302 242.217 413.391 224.102C428.452 190.368 483.532 195.429 496.669 219.941C506.016 237.38 515.315 240.84 510.298 246.086C505.457 251.15 448.091 262.003 420.663 259.707Z" fill="#FF504A"/>
<path d="M517.743 462.38C517.683 462.388 517.619 462.397 517.56 462.406C505.648 464.205 493.569 465.857 481.455 466.828C480.761 466.881 480.066 466.937 479.369 466.981C466.55 467.926 453.697 468.068 440.976 466.77C436.804 466.345 432.642 465.758 428.526 464.977C419.321 463.234 413.117 454.215 414.607 444.64C416.011 435.65 416.928 427.133 417.532 419.128C417.622 417.937 417.709 416.761 417.781 415.597C418.392 406.252 418.59 397.646 418.655 389.828C418.658 389.163 418.663 388.506 418.666 387.855C418.666 387.561 418.671 387.268 418.671 386.981C418.674 386.534 418.674 386.092 418.674 385.656C418.68 385.357 418.68 385.063 418.68 384.776C418.68 384.166 418.683 383.571 418.68 382.977C418.688 381.149 418.683 379.373 418.688 377.65V377.192C418.691 371.226 418.714 365.885 418.946 361.203C418.954 360.99 418.962 360.781 418.979 360.572C419.03 359.6 419.077 358.635 419.123 357.684C419.163 356.763 419.207 355.849 419.239 354.946C419.335 352.411 419.4 349.967 419.439 347.634C419.462 345.671 419.462 343.791 419.433 342.006C419.397 340.026 419.329 338.171 419.221 336.452C419.18 335.884 419.142 335.297 419.098 334.694C419.03 333.78 418.957 332.833 418.881 331.859C418.835 331.268 418.786 330.672 418.728 330.066C418.703 329.802 418.683 329.534 418.658 329.262C418.655 329.195 418.647 329.13 418.642 329.068C418.609 328.694 418.576 328.32 418.544 327.94C418.508 327.571 418.472 327.202 418.437 326.829C418.381 326.178 418.318 325.515 418.249 324.846C417.953 321.724 417.608 318.448 417.258 315.09C417.143 314.037 417.03 312.969 416.917 311.9C416.736 310.243 416.553 308.567 416.375 306.9C416.254 305.823 416.136 304.747 416.02 303.671C414.243 287.477 412.571 271.973 413.166 267.052C414.194 258.532 453.993 236.044 453.993 236.044L477.882 235.266C477.882 235.266 511.414 249.27 517.6 257.724C517.633 257.766 517.661 257.809 517.691 257.848C519.094 259.839 519.978 262.606 520.483 266.026C520.936 269.032 521.097 272.54 521.063 276.474C521.048 279.273 520.93 282.291 520.756 285.492C520.572 288.884 520.321 292.485 520.046 296.256C519.967 297.352 519.884 298.464 519.8 299.588C519.715 300.731 519.633 301.884 519.548 303.051C519.494 303.805 519.44 304.566 519.386 305.33C519.241 307.344 519.098 309.396 518.97 311.475C518.928 312.145 518.882 312.823 518.841 313.502C518.813 313.93 518.79 314.365 518.767 314.795C518.741 315.236 518.716 315.676 518.693 316.119V316.128C518.67 316.536 518.646 316.939 518.628 317.345C518.598 317.788 518.579 318.231 518.558 318.676C518.518 319.492 518.477 320.309 518.445 321.133C518.412 321.812 518.385 322.498 518.36 323.183C518.351 323.304 518.346 323.432 518.346 323.555C518.324 323.997 518.308 324.441 518.297 324.88L518.29 325.111L518.284 325.222C518.268 325.801 518.248 326.389 518.233 326.972C518.211 327.673 518.194 328.372 518.177 329.068C518.171 329.39 518.168 329.722 518.162 330.049C518.154 330.338 518.151 330.636 518.146 330.929C518.146 331.078 518.143 331.222 518.143 331.374C518.135 331.778 518.129 332.181 518.125 332.596C518.119 333.284 518.118 333.98 518.118 334.694V335.822C518.119 337.796 518.14 339.859 518.177 342.006C518.191 342.892 518.211 343.791 518.23 344.702C518.251 345.669 518.276 346.645 518.299 347.634C518.36 349.713 518.425 351.837 518.507 353.999C518.515 354.315 518.525 354.628 518.539 354.946C518.544 355.076 518.547 355.203 518.553 355.333C518.578 356.038 518.604 356.745 518.636 357.462C518.679 358.491 518.724 359.532 518.765 360.572C518.81 361.697 518.885 362.89 518.981 364.148C519.098 365.722 519.249 367.39 519.432 369.153C519.472 369.565 519.518 369.983 519.566 370.402C519.641 371.079 519.715 371.768 519.806 372.467C519.856 372.906 519.906 373.343 519.962 373.789C519.997 374.071 520.032 374.354 520.069 374.638C520.201 375.697 520.343 376.787 520.494 377.896C520.511 378.019 520.527 378.141 520.543 378.265C520.62 378.826 520.705 379.39 520.779 379.964C520.933 381.059 521.099 382.176 521.267 383.307C521.317 383.624 521.362 383.947 521.411 384.267C521.702 386.194 522.015 388.17 522.342 390.19C522.398 390.542 522.461 390.904 522.519 391.264C522.649 392.059 522.783 392.86 522.918 393.667C523.388 396.479 523.887 399.354 524.408 402.276C525.016 405.654 525.648 409.092 526.305 412.555C526.842 415.403 527.399 418.268 527.961 421.132C529.276 427.833 530.645 434.53 531.995 440.993C534.101 451.055 527.569 460.894 517.743 462.38Z" fill="white"/>
<path d="M520.485 266.026C503.033 269.904 486.842 271.011 474.054 271.011C471.73 271.011 469.52 270.975 467.433 270.913C447.676 270.315 434.826 267.345 434.287 267.222L435.217 262.958L436.145 258.695H436.148C436.4 258.754 449.004 261.63 467.904 262.183C480.669 262.554 498.308 261.892 517.602 257.724C517.634 257.766 517.663 257.808 517.692 257.848C519.095 259.839 519.98 262.606 520.485 266.026Z" fill="#1DB776" fill-opacity="0.56"/>
<path d="M521.063 276.474C521.046 279.273 520.929 282.291 520.754 285.492C503.685 289.253 487.771 290.362 474.961 290.362C471.788 290.362 468.807 290.294 466.044 290.181C446.3 289.38 433.483 286.279 432.947 286.146L434.888 277.638C435.014 277.67 447.614 280.703 466.598 281.453C480.391 282.001 499.891 281.397 521.063 276.474Z" fill="#1DB776" fill-opacity="0.56"/>
<path d="M520.047 296.256C519.968 297.353 519.885 298.464 519.802 299.588C519.716 300.731 519.634 301.884 519.55 303.051C519.496 303.805 519.442 304.566 519.386 305.33C503.305 308.699 488.266 309.732 475.884 309.732C471.839 309.732 468.083 309.623 464.661 309.45C444.932 308.444 432.147 305.209 431.611 305.074L433.634 296.586C433.759 296.616 446.328 299.78 465.298 300.728C479.136 301.419 498.735 301.012 520.047 296.256Z" fill="#1DB776" fill-opacity="0.56"/>
<path d="M518.695 316.119V316.128C518.673 316.537 518.649 316.939 518.63 317.345C518.602 317.789 518.583 318.231 518.56 318.676C518.52 319.492 518.48 320.309 518.447 321.133C518.415 321.812 518.387 322.498 518.364 323.183C518.354 323.304 518.349 323.432 518.349 323.555C518.326 323.997 518.311 324.441 518.3 324.88L518.292 325.111C503.072 328.159 488.796 329.127 476.805 329.127C471.878 329.127 467.34 328.966 463.276 328.715C443.561 327.506 430.807 324.138 430.274 323.997L432.379 315.532H432.381C432.496 315.564 435.681 316.395 441.197 317.363C446.713 318.33 454.556 319.433 463.996 320.003C477.808 320.837 497.375 320.635 518.695 316.119Z" fill="#1DB776" fill-opacity="0.56"/>
<path d="M431.123 334.48L430.032 338.701L431.126 334.48H431.123ZM518.181 342.006C518.144 339.859 518.123 337.796 518.12 335.822C496.489 340.254 476.648 340.266 462.697 339.276C443.83 337.943 431.354 334.541 431.126 334.48L430.032 338.701L428.939 342.922C429.47 343.068 442.187 346.569 461.89 347.981C466.579 348.32 471.901 348.547 477.726 348.547C489.572 348.547 503.472 347.604 518.233 344.702C518.215 343.79 518.195 342.892 518.181 342.006Z" fill="#1DB776" fill-opacity="0.56"/>
<path d="M518.983 364.148C504.363 367.032 490.542 367.991 478.643 367.991C471.911 367.991 465.797 367.684 460.502 367.25C440.816 365.628 428.131 361.998 427.6 361.846L428.735 357.637L429.866 353.427H429.868C430.07 353.486 442.518 357.019 461.394 358.554C475.7 359.716 496.218 359.889 518.555 355.332C518.58 356.039 518.607 356.746 518.638 357.461C518.681 358.491 518.726 359.532 518.768 360.573C518.814 361.697 518.888 362.89 518.983 364.148Z" fill="#1DB776" fill-opacity="0.56"/>
<path d="M521.269 383.307C506.218 386.419 491.917 387.457 479.551 387.457C471.907 387.457 465.005 387.06 459.117 386.515C439.442 384.691 426.792 380.929 426.262 380.771L428.612 372.376V372.373C428.734 372.411 441.169 376.093 460.091 377.828C474.973 379.194 496.609 379.559 520.071 374.637C520.203 375.698 520.345 376.787 520.496 377.895C520.513 378.019 520.529 378.141 520.546 378.264C520.622 378.826 520.707 379.39 520.781 379.964C520.935 381.06 521.101 382.175 521.269 383.307Z" fill="#1DB776" fill-opacity="0.56"/>
<path d="M524.409 402.276C508.616 405.78 493.523 406.945 480.447 406.945C471.89 406.945 464.196 406.447 457.728 405.78C438.067 403.75 425.45 399.859 424.922 399.693L427.354 391.324C427.476 391.36 439.878 395.173 458.786 397.104C474.524 398.712 497.83 399.278 522.919 393.667C523.39 396.478 523.887 399.354 524.409 402.276Z" fill="#1DB776" fill-opacity="0.56"/>
<path d="M527.961 421.133C511.276 425.134 495.243 426.459 481.335 426.459C471.859 426.459 463.374 425.845 456.34 425.044C436.696 422.81 424.111 418.787 423.586 418.617L424.843 414.444L426.097 410.271L426.099 410.274C426.295 410.334 438.648 414.257 457.483 416.38C474.172 418.26 499.399 419.055 526.305 412.554C526.842 415.403 527.399 418.267 527.961 421.133Z" fill="#1DB776" fill-opacity="0.56"/>
<path d="M463.716 450.62C464.523 414.578 458.572 372.641 458.621 336.59C458.667 304.265 460.945 272.173 460.92 239.848C453.483 240.428 450.288 241.745 450.288 241.745C450.288 241.745 443.176 248.036 420.033 255.856C398.21 263.228 402.266 346.798 403.593 393.572C404.918 440.347 404.392 470.003 447.293 475.687C451.322 476.221 455.28 476.692 459.156 477.087C459.221 466.391 463.476 461.342 463.716 450.62Z" fill="#FB4C47"/>
<path d="M417.176 355.586C416.714 355.586 416.299 355.252 416.199 354.763C416.083 354.205 416.428 353.654 416.968 353.533C417.515 353.411 430.392 350.372 434.832 334.386C434.982 333.834 435.538 333.519 436.07 333.675C436.6 333.833 436.907 334.409 436.754 334.959C431.973 352.179 417.977 355.433 417.383 355.563C417.314 355.579 417.243 355.586 417.176 355.586Z" fill="#B63A37"/>
<path d="M454.627 443.52C454.212 443.52 453.863 443.184 453.839 442.748C450.386 378.209 447.638 315.122 451.898 252.853C451.93 252.402 452.309 252.065 452.741 252.095C453.177 252.127 453.504 252.518 453.474 252.969C449.218 315.142 451.964 378.173 455.417 442.656C455.44 443.108 455.106 443.494 454.672 443.519C454.656 443.52 454.643 443.52 454.627 443.52Z" fill="#B63A37"/>
<path d="M538.18 288.59C539.215 255.293 523.747 246.505 492.879 241.705C492.758 241.686 492.64 241.668 492.52 241.65C492.024 247.151 492.206 252.737 492.552 258.229C493.106 267.012 494.089 275.744 494.43 284.541C495.856 321.25 499.321 346.183 496.476 394.365C494.337 430.577 499.92 449.584 500.898 477.024C518.421 474.249 532.212 466.854 540.705 451.849C556.637 423.698 537.147 321.886 538.18 288.59Z" fill="#FB4C47"/>
<path d="M534.555 354.463C534.48 354.463 534.407 354.456 534.331 354.437C534.124 354.388 513.601 349.167 510.132 318.219C510.068 317.65 510.461 317.135 511.011 317.07C511.564 317 512.056 317.412 512.119 317.981C515.427 347.488 534.584 352.37 534.778 352.414C535.317 352.542 535.653 353.099 535.53 353.658C535.425 354.137 535.012 354.463 534.555 354.463Z" fill="#B63A37"/>
<path d="M503.253 437.599C502.873 437.599 502.538 437.315 502.474 436.913C501.027 427.802 501.583 403.356 502.121 379.718C502.53 361.735 502.916 344.75 502.465 334.518C500.94 299.876 496.375 251.494 496.329 251.01C496.286 250.56 496.603 250.16 497.036 250.115C497.467 250.072 497.858 250.399 497.899 250.849C497.945 251.334 502.515 299.756 504.042 334.441C504.495 344.732 504.109 361.744 503.699 379.757C503.163 403.32 502.609 427.687 504.032 436.647C504.103 437.092 503.812 437.514 503.382 437.588C503.339 437.595 503.296 437.599 503.253 437.599Z" fill="#B63A37"/>
<path d="M475.188 165.34L460.01 171.055C460.01 171.055 455.457 177.565 449.487 176.223C447.093 175.683 444.471 173.881 441.822 169.894C432.569 155.956 454.888 136.645 468.302 139.889C474.881 141.48 476.665 147.637 476.771 153.496C476.883 159.579 475.188 165.34 475.188 165.34Z" fill="#002014"/>
<path d="M475.188 165.34L460.009 171.055C460.009 171.055 455.456 177.565 449.486 176.223C449.486 169.004 459.253 155.805 476.771 153.496C476.883 159.579 475.188 165.34 475.188 165.34Z" fill="#FFD339"/>
<path d="M474.936 137.495C474.661 137.495 474.364 137.528 474.041 137.594C473.255 137.758 472.745 138.154 472.439 138.842C471.075 141.903 473.951 149.194 476.006 153.501C477.276 148.723 478.798 140.736 476.647 138.219C476.233 137.735 475.67 137.495 474.936 137.495ZM476.246 157.096C475.904 157.096 475.584 156.905 475.415 156.589C474.688 155.238 468.384 143.24 470.711 138.015C471.27 136.759 472.293 135.943 473.669 135.659C476.012 135.175 477.358 136.072 478.072 136.909C481.808 141.283 477.639 154.882 477.151 156.419C477.032 156.79 476.714 157.055 476.337 157.092C476.307 157.095 476.276 157.096 476.246 157.096Z" fill="#FFD339"/>
<path d="M487.77 142.351C487.68 142.351 487.589 142.356 487.497 142.371C484.281 142.814 480.393 149.888 478.338 154.364C482.61 152.498 489.386 148.936 490.286 145.697C490.488 144.968 490.353 144.323 489.861 143.666C489.199 142.783 488.514 142.351 487.77 142.351ZM476.512 157.159C476.256 157.159 476.005 157.053 475.824 156.855C475.562 156.57 475.487 156.154 475.633 155.792C476.234 154.3 481.659 141.186 487.245 140.414C488.316 140.266 489.899 140.498 491.364 142.454C492.225 143.603 492.485 144.913 492.116 146.243C490.579 151.772 478.239 156.57 476.837 157.1C476.731 157.14 476.621 157.159 476.512 157.159Z" fill="#FFD339"/>
<path d="M448.339 178.272C445.024 177.758 441.296 175.926 438.956 170.865C433.429 158.918 446.647 148.836 446.781 148.735C447.051 148.533 447.428 148.598 447.623 148.876C447.818 149.156 447.757 149.548 447.487 149.751C447.361 149.845 434.955 159.323 440.043 170.323C444.583 180.138 454.58 176.685 455.003 176.532C455.32 176.42 455.662 176.593 455.771 176.919C455.879 177.245 455.713 177.601 455.397 177.715C455.338 177.736 452.104 178.855 448.339 178.272Z" fill="#002014"/>
<path d="M492.316 179.748C492.316 179.748 498.24 205.539 490.012 222.232C481.785 238.926 473.518 243.473 485.333 248.659C497.147 253.843 510.59 243.967 519.61 249.104C530.5 255.305 518.289 203.259 512.847 181.233C507.276 158.696 480.821 156.173 480.821 156.173L492.316 179.748Z" fill="#002014"/>
<path d="M507.975 198.28C507.975 198.28 518.56 173.144 498.714 161.312C478.866 149.48 458.818 158.416 453.477 172.038C448.136 185.661 456.315 194.621 456.315 194.621L507.975 198.28Z" fill="#002014"/>
<path d="M473.959 251.353C479.688 253.003 481.98 250.37 483.739 248.411L484.923 237.762L485.615 231.551L485.759 230.637L483.125 230.334L463.691 224.522L461.063 237.316L459.814 243.382C462.312 245.827 465.631 248.955 473.959 251.353Z" fill="#FBB990"/>
<path d="M484.921 237.762C478.899 240.577 467.022 239.298 461.061 237.315C461.041 237.312 461.025 237.305 461.005 237.298L463.69 224.521L483.124 230.333L485.758 230.636L485.614 231.551L484.921 237.762Z" fill="#181818"/>
<path d="M500.79 198.435C500.79 198.435 512.329 194.957 510.065 205.527C507.571 217.166 498.384 213.862 496.803 213.108L500.79 198.435Z" fill="#FB9476"/>
<path d="M492.498 217.766C491.86 222.193 494.815 226.334 499.086 226.996C503.358 227.658 507.352 224.594 507.99 220.165C508.534 216.387 506.458 212.827 503.189 211.448C503.183 211.455 503.178 211.464 503.172 211.477C502.623 211.626 502.508 212.066 502.456 212.544C505.356 213.613 507.221 216.7 506.751 219.974C506.215 223.691 502.861 226.267 499.271 225.711C495.686 225.155 493.202 221.675 493.738 217.958C493.979 216.278 494.796 214.834 495.949 213.807C496.248 213.543 496.57 213.305 496.909 213.098C496.607 212.815 496.32 212.486 496.067 212.11C495.755 212.311 495.451 212.539 495.171 212.789C493.778 214.014 492.788 215.748 492.498 217.766Z" fill="white"/>
<path d="M502.08 209.653C502.058 209.65 502.035 209.644 502.013 209.639C501.68 209.548 501.477 209.194 501.565 208.846C502.848 203.716 506.492 201.939 506.645 201.865C506.96 201.718 507.332 201.86 507.476 202.187C507.619 202.513 507.482 202.898 507.169 203.047C507.032 203.113 503.905 204.668 502.778 209.173C502.696 209.498 502.393 209.702 502.08 209.653Z" fill="#FA7764"/>
<path d="M506.209 207.494C506.032 207.467 505.867 207.362 505.767 207.191C505.749 207.162 504.978 205.893 503.874 205.879C503.529 205.877 503.251 205.581 503.254 205.223C503.259 204.864 503.542 204.576 503.888 204.581C505.687 204.599 506.79 206.436 506.836 206.513C507.016 206.821 506.922 207.22 506.627 207.406C506.497 207.488 506.349 207.515 506.209 207.494Z" fill="#FA7764"/>
<path d="M507.117 196.985C506.4 201.189 505.295 205.274 503.92 209.104C503.301 210.84 502.619 212.521 501.898 214.138C496.813 225.532 489.504 233.742 483.666 234.453C474.422 235.58 463.93 230.898 458.786 218.399C457.945 216.358 457.064 213.891 456.643 210.985C456.587 210.582 456.531 210.168 456.484 209.746C454.976 196.761 458.153 178.25 458.153 178.25C465.729 166.523 482.017 169.648 491.465 171.261C500.92 172.876 510.409 177.747 507.117 196.985Z" fill="#FFC29C"/>
<path d="M481.109 227.742C479.102 227.432 477.917 226.488 477.866 226.448C477.593 226.227 477.543 225.819 477.756 225.537C477.968 225.254 478.36 225.202 478.633 225.422C478.654 225.437 479.716 226.259 481.487 226.484C483.293 226.712 484.503 226.28 484.514 226.276C484.839 226.157 485.198 226.333 485.314 226.669C485.431 227.005 485.263 227.377 484.939 227.498C484.88 227.521 483.456 228.042 481.336 227.773C481.258 227.765 481.184 227.753 481.109 227.742Z" fill="#FB9476"/>
<path d="M445.927 352.368C445.525 352.368 445.151 352.103 445.021 351.685C443.66 347.339 442.721 342.436 442.681 342.229C442.58 341.694 442.915 341.175 443.431 341.069C443.945 340.964 444.448 341.312 444.549 341.847C444.558 341.897 445.507 346.844 446.832 351.076C446.994 351.595 446.72 352.152 446.22 352.32C446.123 352.353 446.024 352.368 445.927 352.368Z" fill="#108A57"/>
<path d="M451.01 350.6C450.613 350.6 450.243 350.341 450.109 349.929C448.692 345.603 447.691 340.716 447.649 340.511C447.54 339.977 447.869 339.453 448.384 339.341C448.898 339.227 449.402 339.569 449.512 340.102C449.521 340.152 450.532 345.082 451.911 349.295C452.08 349.812 451.813 350.372 451.316 350.547C451.214 350.583 451.111 350.6 451.01 350.6Z" fill="#108A57"/>
<path d="M456.097 348.831C455.705 348.831 455.338 348.578 455.2 348.173C453.729 343.868 452.666 338.996 452.621 338.791C452.506 338.26 452.828 337.731 453.341 337.612C453.852 337.493 454.363 337.826 454.478 338.359C454.489 338.407 455.563 343.322 456.994 347.514C457.17 348.028 456.91 348.591 456.416 348.774C456.31 348.812 456.202 348.831 456.097 348.831Z" fill="#108A57"/>
<path d="M461.178 347.063C460.791 347.063 460.428 346.816 460.285 346.417C458.759 342.132 457.635 337.277 457.588 337.071C457.464 336.542 457.78 336.009 458.293 335.883C458.804 335.756 459.316 336.084 459.439 336.613C459.45 336.662 460.586 341.561 462.072 345.733C462.253 346.244 462.001 346.813 461.508 347.001C461.4 347.043 461.288 347.063 461.178 347.063Z" fill="#108A57"/>
<path d="M466.264 345.294C465.882 345.294 465.521 345.053 465.375 344.661C463.795 340.397 462.607 335.557 462.559 335.353C462.429 334.825 462.737 334.288 463.247 334.154C463.757 334.021 464.274 334.341 464.403 334.869C464.416 334.917 465.614 339.801 467.152 343.953C467.34 344.461 467.097 345.033 466.605 345.228C466.493 345.273 466.378 345.294 466.264 345.294Z" fill="#108A57"/>
<path d="M471.346 343.526C470.968 343.526 470.611 343.291 470.463 342.904C468.827 338.662 467.578 333.836 467.526 333.632C467.39 333.107 467.692 332.566 468.2 332.425C468.708 332.284 469.229 332.597 469.365 333.124C469.377 333.173 470.639 338.042 472.23 342.172C472.425 342.679 472.187 343.253 471.699 343.456C471.583 343.503 471.464 343.526 471.346 343.526Z" fill="#108A57"/>
<path d="M476.43 341.757C476.056 341.757 475.703 341.528 475.551 341.149C473.861 336.926 472.55 332.116 472.495 331.914C472.352 331.39 472.647 330.844 473.154 330.696C473.659 330.548 474.185 330.854 474.327 331.38C474.341 331.428 475.663 336.281 477.31 340.392C477.51 340.894 477.28 341.473 476.794 341.681C476.675 341.733 476.552 341.757 476.43 341.757Z" fill="#108A57"/>
<path d="M503.822 236.54C503.628 239.114 503.167 241.684 502.321 244.086C502.107 244.701 501.864 245.303 501.593 245.891V245.894C500.229 248.886 498.165 251.522 495.133 253.45C495.133 253.45 480.345 259.967 462.924 251.969H462.921C461.933 251.514 460.934 251.01 459.928 250.457C459.048 249.974 458.168 249.453 457.284 248.892C449.718 244.086 446.718 237.61 445.898 231.442C445.825 230.892 445.768 230.348 445.728 229.801C445.407 225.452 446.084 221.354 446.894 218.231C446.949 218.025 447.003 217.821 447.057 217.624C447.934 214.442 448.894 212.418 448.894 212.418C448.894 212.418 452.81 210.653 457.947 209.844C459.901 209.536 462.032 209.367 464.193 209.486C466.645 209.618 469.136 210.124 471.449 211.218C487.967 219.031 496.332 222.52 501.125 215.814C501.125 215.814 501.957 218.309 502.716 222.068C502.824 222.602 502.928 223.157 503.032 223.737C503.311 225.331 503.562 227.09 503.727 228.944C503.944 231.371 504.019 233.954 503.822 236.54Z" fill="#0CAD69"/>
<path d="M503.032 223.737C502.812 224.09 502.564 224.448 502.293 224.804C500.2 227.545 496.135 230.7 488.503 230.7C488.035 230.7 487.556 230.689 487.062 230.663C479.661 230.297 473.892 227.13 468.312 224.067C461.651 220.413 455.357 216.959 447.007 218.782L446.895 218.231L446.784 217.68C446.877 217.661 446.969 217.641 447.06 217.624C455.653 215.848 462.053 219.358 468.82 223.072C474.295 226.074 479.958 229.183 487.113 229.535C493.598 229.859 498.406 228.044 501.408 224.146C501.947 223.447 502.376 222.739 502.717 222.067C502.826 222.6 502.928 223.157 503.032 223.737Z" fill="#108E59"/>
<path d="M502.319 244.086C502.104 244.7 501.862 245.302 501.591 245.891V245.894C498.824 247.54 495.509 248.669 491.674 249.266C489.495 249.608 487.147 249.776 484.642 249.776C481.381 249.776 477.854 249.489 474.09 248.914C462.797 247.183 453.143 243.404 453.044 243.364L453.434 242.31C453.529 242.349 463.088 246.09 474.268 247.8C483.161 249.156 494.685 249.441 502.319 244.086Z" fill="#108E59"/>
<path d="M476.209 334.428L442.725 345.764C442.725 345.764 442.282 343.741 441.597 340.301C441.445 339.535 441.278 338.695 441.105 337.792C440.632 335.349 440.087 332.436 439.513 329.186C439.369 328.362 439.223 327.519 439.077 326.653C438.611 323.934 438.135 321.025 437.672 317.984C437.545 317.141 437.416 316.29 437.292 315.427C436.876 312.584 436.473 309.652 436.106 306.676C436 305.813 435.894 304.947 435.793 304.077C435.45 301.132 435.145 298.163 434.893 295.219C434.814 294.337 434.744 293.457 434.679 292.58C434.447 289.511 434.278 286.486 434.194 283.562C434.169 282.661 434.15 281.771 434.14 280.891C434.101 277.615 434.18 274.491 434.406 271.606C434.479 270.66 434.569 269.744 434.676 268.857C434.749 268.213 434.836 267.585 434.928 266.973C435.365 264.116 435.972 261.524 436.704 259.172C437.009 258.185 437.339 257.241 437.686 256.338C443.885 240.198 456.058 237.016 456.058 237.016C465.074 237.943 469.038 247.932 469.038 247.932C467.147 249.8 465.782 252.366 464.846 255.444C464.604 256.242 464.389 257.075 464.205 257.938C463.703 260.249 463.399 262.788 463.258 265.488C463.212 266.327 463.184 267.181 463.17 268.047C463.13 270.571 463.215 273.21 463.402 275.922C463.458 276.769 463.526 277.621 463.602 278.478C463.836 281.089 464.155 283.754 464.538 286.429C464.662 287.282 464.789 288.13 464.922 288.982C465.34 291.644 465.817 294.308 466.333 296.937C466.497 297.783 466.668 298.623 466.84 299.461C467.397 302.165 467.989 304.818 468.596 307.379C468.793 308.214 468.991 309.036 469.193 309.849C469.863 312.598 470.547 315.222 471.205 317.658C471.431 318.495 471.656 319.313 471.876 320.105C472.689 323.026 473.451 325.618 474.102 327.767C474.37 328.653 474.618 329.461 474.844 330.189C475.685 332.88 476.209 334.428 476.209 334.428Z" fill="#0CAD69"/>
<path d="M464.843 255.444C464.6 256.243 464.386 257.074 464.202 257.937C458.275 257.179 447.509 256.474 436.701 259.173C437.006 258.185 437.336 257.241 437.683 256.339C443.055 255.134 448.214 254.734 452.473 254.689C457.499 254.633 461.824 255.038 464.843 255.444Z" fill="#108E59"/>
<path d="M463.255 265.489C463.209 266.326 463.182 267.181 463.168 268.046C456.094 267.732 444.984 268.028 434.403 271.606C434.477 270.661 434.567 269.745 434.673 268.856C441.687 266.621 448.68 265.771 454.171 265.504C457.593 265.337 460.685 265.373 463.255 265.489Z" fill="#108E59"/>
<path d="M463.6 278.478C456.05 278.61 444.713 279.589 434.191 283.563C434.166 282.663 434.147 281.771 434.136 280.891C441.882 278.077 449.799 276.842 455.867 276.318C458.628 276.078 461.174 275.965 463.397 275.923C463.456 276.769 463.524 277.62 463.6 278.478Z" fill="#108E59"/>
<path d="M464.922 288.982C457.125 289.526 445.516 291.048 434.892 295.219C434.815 294.336 434.744 293.457 434.679 292.58C445.364 288.477 456.755 286.972 464.539 286.429C464.662 287.281 464.789 288.131 464.922 288.982Z" fill="#108E59"/>
<path d="M466.837 299.461C458.913 300.391 446.953 302.401 436.103 306.677C435.997 305.814 435.891 304.948 435.79 304.077C446.691 299.85 458.424 297.861 466.33 296.937C466.494 297.784 466.665 298.624 466.837 299.461Z" fill="#108E59"/>
<path d="M469.191 309.849C461.247 311.149 448.857 313.664 437.671 317.984C437.544 317.142 437.416 316.29 437.29 315.427C448.439 311.183 460.643 308.689 468.596 307.378C468.791 308.214 468.989 309.037 469.191 309.849Z" fill="#108E59"/>
<path d="M471.88 320.105C464.023 321.764 451.136 324.832 439.516 329.185C439.372 328.362 439.226 327.52 439.079 326.654C450.647 322.358 463.346 319.324 471.208 317.657C471.434 318.494 471.66 319.313 471.88 320.105Z" fill="#108E59"/>
<path d="M474.843 330.189C467.233 332.175 453.765 335.898 441.597 340.301C441.443 339.535 441.278 338.695 441.104 337.792C453.201 333.433 466.486 329.759 474.101 327.767C474.371 328.653 474.617 329.461 474.843 330.189Z" fill="#108E59"/>
<path d="M462.924 251.969H462.921C462.673 251.954 462.419 251.924 462.154 251.872C461.35 251.715 460.61 251.219 459.926 250.457C454.169 244.019 452.686 218.612 452.686 218.612C452.686 218.612 454.844 213.083 457.947 209.845C459.9 209.538 462.032 209.368 464.193 209.487C464.64 214.259 466.188 229.469 467.988 233.654C470.058 238.461 469.794 252.349 462.924 251.969Z" fill="#128E5A"/>
<path d="M503.823 236.54C495.411 243.308 477.051 239.411 460.287 234.29C454.56 232.54 449.788 231.723 445.898 231.443C445.827 230.893 445.769 230.347 445.729 229.802C453.016 230.274 462.778 232.398 474.872 235.246C492.807 239.469 500.977 232.342 503.729 228.945C503.946 231.373 504.02 233.957 503.823 236.54Z" fill="#108E59"/>
<path d="M491.667 202.11C491.39 203.945 491.963 205.563 492.949 205.724C493.94 205.886 494.967 204.527 495.244 202.69C495.353 201.967 495.33 201.281 495.202 200.7C496.961 201.065 497.716 200.017 497.716 200.017C496.548 199.998 495.06 199.496 494.358 199.235C494.11 199.138 493.958 199.077 493.958 199.077C492.972 198.914 491.945 200.271 491.667 202.11Z" fill="#181818"/>
<path d="M493.959 199.076C493.959 199.076 494.11 199.138 494.36 199.234C494.236 199.154 494.103 199.099 493.959 199.076Z" fill="#181818"/>
<path d="M503.922 209.104C503.302 210.84 502.622 212.521 501.901 214.138C501.106 214.145 500.253 214.088 499.373 213.958C495.445 213.383 492.441 211.599 492.664 209.977C492.887 208.356 496.252 207.51 500.177 208.085C501.577 208.29 502.86 208.649 503.922 209.104Z" fill="#FD9B7E"/>
<path d="M475.088 206.794C474.863 208.433 471.465 209.287 467.496 208.705C463.527 208.12 460.492 206.32 460.718 204.68C460.941 203.042 464.34 202.186 468.308 202.769C472.276 203.353 475.312 205.154 475.088 206.794Z" fill="#FD9B7E"/>
<path d="M458.704 196.428C458.919 194.876 458.282 193.337 457.06 192.415C454.032 190.131 449.976 188.837 447.967 192.989C444.236 200.696 451.015 211.025 456.878 209.664L458.704 196.428Z" fill="#FBB990"/>
<path d="M459.934 209.158C459.82 209.267 459.708 209.372 459.593 209.468C459.256 209.757 458.913 210.002 458.563 210.206C457.92 210.584 457.269 210.829 456.646 210.986C456.587 210.58 456.533 210.167 456.488 209.745C456.934 209.635 457.393 209.474 457.845 209.237C458.212 209.058 458.579 208.829 458.928 208.546C459.067 208.433 459.208 208.31 459.34 208.182C459.558 207.961 459.871 208.01 460.035 208.285C460.198 208.555 460.158 208.951 459.934 209.158Z" fill="#FB9476"/>
<path d="M454.259 204.306C453.952 204.259 453.717 203.979 453.726 203.649C453.848 198.445 450.664 195.667 450.632 195.64C450.366 195.412 450.326 195.004 450.545 194.727C450.764 194.448 451.157 194.407 451.426 194.634C451.575 194.761 455.116 197.817 454.979 203.679C454.971 204.038 454.683 204.322 454.338 204.312C454.31 204.312 454.285 204.309 454.259 204.306Z" fill="#FB9476"/>
<path d="M450.258 200.661C450.114 200.638 449.979 200.565 449.878 200.443C449.652 200.172 449.679 199.764 449.941 199.528C450.015 199.462 451.775 197.907 453.751 198.45C454.084 198.542 454.284 198.898 454.195 199.245C454.105 199.592 453.76 199.795 453.428 199.706C452.099 199.342 450.773 200.5 450.76 200.512C450.616 200.64 450.431 200.688 450.258 200.661Z" fill="#FB9476"/>
<path d="M487.088 209.058H487.092H487.088ZM483.943 212.337C483.69 212.299 483.465 212.1 483.414 211.795C483.366 211.507 483.528 211.226 483.782 211.1C485.324 210.342 486.81 209.367 487.069 208.955C486.855 207.77 486.009 203.064 485.7 201.341C485.637 200.988 485.861 200.652 486.202 200.586C486.541 200.52 486.868 200.751 486.931 201.102C487.251 202.883 488.142 207.838 488.319 208.818C488.381 209.157 488.567 210.187 484.303 212.281C484.187 212.339 484.061 212.356 483.943 212.337" fill="#FB9476"/>
<path d="M475.988 199.682C475.734 201.521 474.73 202.894 473.742 202.75C472.75 202.605 472.15 200.993 472.402 199.152C472.502 198.429 472.718 197.778 473.003 197.263C471.219 197.079 470.792 195.847 470.792 195.847C471.914 196.183 473.48 196.154 474.225 196.117C474.489 196.1 474.651 196.085 474.651 196.085C475.64 196.23 476.241 197.838 475.988 199.682Z" fill="#181818"/>
<path d="M474.656 196.086C474.656 196.086 474.493 196.1 474.228 196.116C474.369 196.077 474.512 196.062 474.656 196.086Z" fill="#181818"/>
<path d="M500.717 199.174C500.358 198.406 499.888 197.641 499.379 196.952C498.867 196.258 498.291 195.628 497.675 195.074C497.063 194.511 496.39 194.05 495.693 193.681C495.006 193.288 494.256 193.072 493.531 192.879L493.457 192.86C492.669 192.65 492.195 191.818 492.397 191.002C492.598 190.185 493.401 189.693 494.188 189.902C494.279 189.927 494.372 189.963 494.454 190.003C495.369 190.454 496.257 190.949 497.014 191.609C497.781 192.247 498.467 192.966 499.04 193.754C499.62 194.535 500.113 195.364 500.52 196.227C500.926 197.095 501.254 197.967 501.487 198.916C501.542 199.141 501.412 199.37 501.195 199.427C501.005 199.477 500.813 199.38 500.731 199.203L500.717 199.174Z" fill="#111111"/>
<path d="M466.968 193.604C467.598 192.709 468.299 191.933 469.078 191.197C469.857 190.468 470.711 189.812 471.636 189.245C472.554 188.668 473.562 188.212 474.62 187.879C475.678 187.515 476.803 187.381 477.937 187.305C478.747 187.251 479.446 187.888 479.499 188.728C479.55 189.568 478.937 190.293 478.126 190.347C478.046 190.353 477.966 190.35 477.888 190.343L477.794 190.333C476.927 190.24 476.029 190.164 475.131 190.306C474.232 190.415 473.325 190.635 472.449 190.988C471.57 191.33 470.708 191.769 469.888 192.3C469.077 192.83 468.279 193.454 467.597 194.134L467.574 194.155C467.414 194.316 467.158 194.309 467.003 194.142C466.864 193.993 466.854 193.765 466.968 193.604Z" fill="#111111"/>
<path d="M466.257 176.791C466.257 176.791 477.875 193.232 505.019 192.428C519.623 191.996 506.94 168.352 485.171 167.022C463.401 165.694 466.257 176.791 466.257 176.791Z" fill="#002014"/>
<path d="M505.089 189.855C505.089 189.855 506.721 202.393 503.922 209.104C503.922 209.104 509.17 197.88 507.533 190.786C505.897 183.692 505.089 189.855 505.089 189.855Z" fill="#181818"/>
<path d="M473.535 176.84C473.535 176.84 460.597 199.708 463.763 218.167C466.926 236.625 471.547 251.32 458.786 252.698C446.157 254.064 437.78 248.921 426.472 253.557H426.469C426.352 253.607 426.235 253.655 426.115 253.706C425.819 253.833 425.553 253.909 425.308 253.943C423.35 254.205 422.974 251.554 423.708 247.032C423.97 245.432 424.367 243.603 424.881 241.583C427.263 232.229 432.162 218.846 437.484 205.985C441.665 195.884 446.106 186.104 449.796 178.85C451.141 176.209 452.387 173.906 453.482 172.038C465.162 152.174 491.173 157.775 491.173 157.775L473.535 176.84Z" fill="#002014"/>
<path d="M450.572 179.72C450.453 179.945 443.864 192.508 437.482 205.984C432.274 216.979 427.204 228.585 425.89 234.601C425.325 237.193 425.013 239.519 424.878 241.583C424.448 248.185 425.825 252.118 426.466 253.556C426.35 253.606 426.232 253.655 426.113 253.705C425.816 253.833 425.549 253.909 425.304 253.942C424.796 252.778 424.008 250.497 423.706 247.031C423.424 243.827 423.559 239.609 424.711 234.324C427.671 220.766 448.622 180.814 449.511 179.119C449.576 178.994 449.678 178.905 449.794 178.851C449.96 178.772 450.158 178.772 450.33 178.871C450.623 179.035 450.733 179.415 450.572 179.72Z" fill="#002014"/>
<g opacity="0.399994">
<g opacity="0.399994">
<g opacity="0.399994">
<g opacity="0.399994">
<g opacity="0.399994">
<g opacity="0.399994">
<path opacity="0.399994" d="M488.891 192.462C488.891 192.462 474.796 188.024 470.782 204.09C466.766 220.155 480.66 227.368 489.472 225.602C498.286 223.835 504.084 195.187 488.891 192.462Z" fill="#FFC29C"/>
</g>
</g>
</g>
</g>
</g>
</g>
<path d="M474.833 190.756C469.562 190.756 465.274 195.202 465.274 200.668C465.274 206.133 469.562 210.579 474.833 210.579C480.105 210.579 484.393 206.133 484.393 200.668C484.393 195.202 480.105 190.756 474.833 190.756ZM474.833 211.943C468.836 211.943 463.957 206.885 463.957 200.668C463.957 194.45 468.836 189.392 474.833 189.392C480.831 189.392 485.709 194.45 485.709 200.668C485.709 206.885 480.831 211.943 474.833 211.943Z" fill="white"/>
<path d="M498.927 195.822C493.655 195.822 489.368 200.268 489.368 205.733C489.368 211.199 493.655 215.645 498.927 215.645C504.199 215.645 508.486 211.199 508.486 205.733C508.486 200.268 504.199 195.822 498.927 195.822ZM498.927 217.009C492.93 217.009 488.051 211.951 488.051 205.733C488.051 199.516 492.93 194.458 498.927 194.458C504.925 194.458 509.803 199.516 509.803 205.733C509.803 211.951 504.925 217.009 498.927 217.009Z" fill="white"/>
<path d="M488.671 202.805C487.512 200.953 485.377 201.737 485.285 201.771L484.834 200.491C485.94 200.071 488.396 199.86 489.775 202.061L488.671 202.805Z" fill="white"/>
<path d="M505.966 461.798C502.924 464.062 498.778 470.827 491.577 473.202C450.672 486.697 412.499 460.506 412.499 460.506C410.232 448.89 411.635 435.693 415.408 430.862C414.222 429.146 415.007 427.094 415.007 427.094L396.994 392.471C397.43 392.755 425.25 410.989 445.865 423.907H445.873C451.814 427.627 457.155 430.906 461.069 433.185C467.041 436.661 474.664 437.001 482.134 435.934C496.692 433.848 510.659 426.411 510.659 426.411C510.659 426.411 545.493 405.114 554.285 405.849C561.12 406.418 536.387 445.496 505.966 461.798Z" fill="#108E59"/>
<path d="M428.922 496.83C428.922 496.83 426.721 497.257 423.142 498.018C422.123 498.235 420.993 498.475 419.773 498.743C418.153 499.098 416.372 499.494 414.472 499.932C413.389 500.181 412.268 500.442 411.114 500.713C396.773 504.1 377.784 509.252 370.137 514.288C369.601 514.642 369.081 514.992 368.581 515.344C356.929 523.466 354.546 530.479 352.384 529.057C350.129 527.575 349.623 521.493 353.304 517.494C355.852 514.723 357.635 510.682 361.057 506.313C361.982 505.131 363.026 503.925 364.238 502.713C369.59 497.367 378.155 491.84 382.938 487.592C383.247 487.319 383.539 487.049 383.815 486.786C387.752 483.022 389.287 475.275 396.472 472.92C399.982 471.771 404.189 472.219 408.248 473.329C408.969 473.526 409.687 473.745 410.391 473.978C411.448 474.328 412.481 474.713 413.477 475.111C414.852 475.669 416.156 476.257 417.346 476.832C418.485 477.384 419.524 477.924 420.419 478.409C422.577 479.582 423.912 480.453 423.912 480.453L428.922 496.83Z" fill="white"/>
<path d="M408.244 473.329C403.998 479.091 394.22 490.104 382.934 487.593C383.243 487.319 383.535 487.05 383.811 486.786C387.748 483.022 389.285 475.274 396.468 472.92C399.978 471.771 404.185 472.22 408.244 473.329Z" fill="#80D7B2"/>
<path d="M368.58 515.343C356.929 523.465 354.545 530.479 352.385 529.057C350.128 527.575 349.624 521.492 353.303 517.494C355.853 514.723 357.636 510.682 361.057 506.313C363.94 508.434 367.006 511.44 368.58 515.343Z" fill="#80D7B2"/>
<path d="M423.139 498.018C422.12 498.234 420.991 498.475 419.77 498.743C417.648 494.726 416.583 489.827 416.648 484.239C416.682 481.415 416.995 478.85 417.342 476.832C418.483 477.384 419.52 477.924 420.415 478.409C420.162 480.107 419.958 482.129 419.935 484.307C419.886 488.71 420.585 493.753 423.139 498.018Z" fill="#80D7B2"/>
<path d="M413.474 475.111C412.478 474.713 411.445 474.328 410.389 473.978C409.703 476.041 408.721 479.517 408.278 483.605C407.56 490.229 408.535 496.047 411.112 500.713C412.265 500.442 413.387 500.18 414.47 499.932C409.019 491.276 412.017 479.546 413.474 475.111Z" fill="#80D7B2"/>
<path d="M600.871 433.973C585.515 453.418 550.988 473.307 514.062 484.848C501.24 488.855 490.233 491.863 480.838 494.117C473.441 495.896 467.04 497.202 461.547 498.157C440.338 501.846 432.543 500.309 432.543 500.309C432.543 500.309 419.455 495.946 425.066 473.904C425.066 473.904 449.876 467.992 469.1 458.14C473.019 456.133 476.708 453.959 479.905 451.637C480.654 451.093 481.399 450.54 482.136 449.979C500.002 436.41 515.279 417.979 555.542 401.318C555.542 401.318 576.6 388.059 593.527 394.005C596.052 394.889 598.442 396.167 600.602 397.93C612.869 407.937 611.239 420.855 600.871 433.973Z" fill="#0CAD69"/>
<path d="M525.664 478.891L517.66 480.031L469.106 458.14C473.025 456.131 476.712 453.959 479.911 451.637C480.659 451.093 481.405 450.54 482.142 449.979L525.664 478.891Z" fill="#108E59"/>
<path d="M480.843 494.117C473.445 495.895 467.045 497.202 461.552 498.157C446.1 493.806 427.6 485.689 427.6 485.689L428.804 475.739L480.843 494.117Z" fill="#108E59"/>
<path d="M600.87 433.974C588.197 416.313 590.714 401.525 593.527 394.004C596.052 394.89 598.441 396.167 600.603 397.93C612.868 407.937 611.238 420.854 600.87 433.974Z" fill="#108E59"/>
<path d="M427.177 480.478C440.09 477.856 466.646 466.619 498.214 450.416C521.825 438.298 549.123 422.683 553.266 417.033C555.504 413.982 556.141 411.433 555.159 409.457C553.69 406.501 549.131 406.001 547.047 405.931C546.51 405.912 546.069 406.364 546.086 406.923C546.101 407.428 546.488 407.836 546.977 407.853C549.025 407.929 552.575 408.45 553.511 410.338C554.29 411.908 553.004 414.212 551.789 415.869C548.447 420.426 525.571 434.229 497.392 448.692C473.128 461.146 441.846 475.54 426.821 478.591L427.177 480.478Z" fill="#108E59"/>
<path d="M429.967 471.158C430.926 482.917 433.413 493.678 439.451 502.112C439.451 502.112 433.829 505.945 428.964 502.802C425.249 500.402 418.658 481.81 421.857 472.182C425.116 470.519 427.888 470.011 429.967 471.158Z" fill="#108E59"/>
<path d="M518.885 501.577C518.885 501.577 521.055 502.151 524.578 503.155C525.581 503.439 526.694 503.758 527.895 504.107C529.488 504.57 531.24 505.087 533.108 505.653C534.173 505.975 535.277 506.311 536.41 506.659C550.507 511.013 569.13 517.442 576.442 522.984C576.956 523.374 577.453 523.759 577.931 524.144C589.044 533.039 590.981 540.197 593.226 538.927C595.571 537.601 596.458 531.565 593.039 527.326C590.669 524.388 589.145 520.234 586.007 515.641C585.158 514.401 584.193 513.126 583.06 511.835C578.057 506.135 569.859 500.042 565.354 495.478C565.063 495.185 564.788 494.896 564.53 494.613C560.84 490.59 559.794 482.757 552.775 479.918C549.345 478.534 545.118 478.695 540.999 479.528C540.265 479.676 539.535 479.845 538.818 480.03C537.74 480.309 536.686 480.622 535.667 480.952C534.26 481.416 532.923 481.914 531.698 482.407C530.526 482.88 529.457 483.348 528.533 483.773C526.305 484.796 524.917 485.574 524.917 485.574L518.885 501.577Z" fill="white"/>
<path d="M540.999 479.528C544.872 485.566 553.936 497.218 565.354 495.477C565.064 495.184 564.79 494.896 564.531 494.614C560.84 490.59 559.795 482.757 552.775 479.918C549.345 478.535 545.12 478.696 540.999 479.528Z" fill="#80D7B2"/>
<path d="M577.929 524.144C589.042 533.038 590.979 540.198 593.224 538.926C595.57 537.601 596.456 531.565 593.037 527.325C590.668 524.388 589.144 520.234 586.005 515.641C582.994 517.562 579.746 520.356 577.929 524.144Z" fill="#80D7B2"/>
<path d="M524.579 503.154C525.581 503.439 526.693 503.757 527.895 504.106C530.265 500.243 531.637 495.426 531.925 489.845C532.069 487.025 531.92 484.444 531.699 482.408C530.526 482.88 529.456 483.348 528.532 483.773C528.681 485.484 528.755 487.515 528.642 489.691C528.412 494.087 527.395 499.071 524.579 503.154Z" fill="#80D7B2"/>
<path d="M533.109 505.653C534.174 505.974 535.276 506.31 536.41 506.659C539.276 502.178 540.616 496.439 540.317 489.779C540.131 485.671 539.371 482.136 538.817 480.03C537.741 480.309 536.687 480.622 535.668 480.952C536.842 485.475 539.093 497.383 533.109 505.653Z" fill="#80D7B2"/>
<path d="M522.993 479.27C527.2 501.648 513.867 505.112 513.867 505.112C513.867 505.112 494 507.646 433.499 484.156C398.616 470.614 366.453 449.449 351.595 429.604C340.684 415.034 339.104 401.169 352.626 391.554C355.742 389.339 359.234 388.069 362.869 387.478C379.61 384.754 399.386 396.436 399.386 396.436C440.128 416.591 429.93 423.517 463.906 445.956C483.337 458.789 522.993 479.27 522.993 479.27Z" fill="#0CAD69"/>
<path d="M362.869 387.478C363.517 395.044 364.628 420.344 351.594 429.604C340.684 415.034 339.104 401.169 352.627 391.554C355.743 389.339 359.234 388.069 362.869 387.478Z" fill="#108E59"/>
<path d="M520.477 485.687C507.756 482.195 481.966 469.18 451.487 450.871C428.692 437.179 402.438 419.746 398.66 413.827C396.619 410.63 396.144 408.043 397.248 406.139C398.901 403.288 403.482 403.099 405.566 403.17C406.104 403.188 406.513 403.669 406.462 404.224C406.415 404.728 406.003 405.108 405.515 405.094C403.466 405.031 399.891 405.309 398.838 407.131C397.961 408.643 399.099 411.029 400.207 412.766C403.254 417.539 425.212 432.866 452.418 449.209C475.844 463.281 506.151 479.766 520.952 483.828L520.477 485.687Z" fill="#108E59"/>
<path d="M518.277 476.197C516.577 487.867 513.417 498.434 506.86 506.44C506.86 506.44 512.229 510.647 517.28 507.842C521.138 505.699 528.887 487.595 526.305 477.77C523.157 475.889 520.424 475.195 518.277 476.197Z" fill="#108E59"/>
<path d="M579.278 387.065C574.761 393.058 568.529 396.41 563.583 399.839C551.686 408.087 527.548 413.302 529.362 384.888C531.179 356.478 551.909 367.991 536.657 318.09C530.147 296.799 525.663 252.911 525.663 252.911C525.663 252.911 559.737 277.66 579.898 338.7C581.47 343.455 582.658 347.796 583.516 351.763C587.416 369.784 584.482 380.17 579.278 387.065Z" fill="#FB4C47"/>
<path d="M579.275 387.065C571.884 373.381 578.014 359.853 583.514 351.763C587.414 369.784 584.479 380.17 579.275 387.065Z" fill="#B63A37"/>
<path d="M529.283 389.974C528.906 389.974 528.567 389.702 528.487 389.305C528.437 389.062 527.292 383.28 529.565 375.593C531.655 368.536 537.161 358.496 551.528 350.742C551.93 350.525 552.421 350.687 552.629 351.101C552.838 351.515 552.682 352.027 552.283 352.242C538.46 359.704 533.163 369.28 531.154 376.001C528.973 383.287 530.071 388.897 530.082 388.953C530.176 389.409 529.894 389.859 529.453 389.955C529.395 389.968 529.338 389.974 529.283 389.974Z" fill="#B63A37"/>
<path d="M541.663 359.014C541.552 359.025 541.436 359.012 541.323 358.974C540.894 358.824 540.664 358.345 540.81 357.903C543.455 349.739 545.15 346.244 545.22 346.099C545.424 345.683 545.914 345.516 546.317 345.729C546.719 345.94 546.879 346.448 546.676 346.864C546.658 346.899 544.956 350.416 542.357 358.441C542.25 358.767 541.973 358.982 541.663 359.014Z" fill="#B63A37"/>
<path d="M542.584 355.295C542.134 355.295 541.769 354.916 541.769 354.45C541.769 337.819 520.335 300.165 520.118 299.786C519.888 299.384 520.015 298.864 520.403 298.626C520.791 298.388 521.291 298.521 521.522 298.922C522.415 300.484 543.4 337.359 543.4 354.45C543.4 354.916 543.036 355.295 542.584 355.295Z" fill="#B63A37"/>
<path d="M527.413 312.558C527.242 312.558 527.071 312.504 526.924 312.39C524.15 310.241 517.132 308.34 517.062 308.321C516.625 308.205 516.364 307.743 516.477 307.292C516.589 306.838 517.035 306.567 517.47 306.685C517.771 306.765 524.87 308.686 527.902 311.035C528.262 311.315 528.336 311.845 528.066 312.22C527.906 312.441 527.661 312.558 527.413 312.558Z" fill="#B63A37"/>
<path d="M517.423 431.326C517.556 432.828 517.681 434.397 517.858 435.663C518.191 438.057 518.718 439.366 519.866 437.091C520.12 436.578 520.327 435.923 520.496 435.171C521.485 430.78 521.159 423.053 521.616 421.369C522.133 419.455 524.286 414.012 524.474 413.705C524.377 413.932 523.407 417.26 523.294 419.313C523.188 421.238 523.294 423.579 523.294 428.32C523.294 430.387 523.368 432.525 523.62 434.08V434.084C523.944 436.094 524.57 437.118 525.732 435.724C526.304 435.037 526.669 433.833 526.907 432.407C527.533 428.704 527.309 423.475 527.638 421.764C528.082 419.47 529.878 415.762 529.993 415.53C529.311 417.89 529.311 417.658 528.933 420.759C528.666 422.925 528.179 428.69 528.695 431.273C528.914 432.387 529.325 432.913 530.02 432.302C531.105 431.35 531.858 429.955 532.39 428.358C532.988 426.567 533.304 424.518 533.504 422.555C533.884 418.839 535.334 416.549 535.334 416.549C534.529 420.574 534.089 424.466 534.327 426.476C534.492 427.897 534.994 428.377 535.942 427.296C537.789 425.191 539.654 418.232 540.299 415.615C540.322 415.534 540.34 415.454 540.358 415.378C540.381 415.297 540.395 415.227 540.414 415.159C540.5 414.809 540.546 414.61 540.546 414.61L540.55 414.605C541.086 412.424 541.569 410.243 542.278 408.291C543.331 405.389 544.894 402.986 547.903 401.83C554.73 399.198 552.634 385.736 543.065 384.928C540.277 384.693 537.517 385.65 535.33 387.457C533.936 388.607 531.971 390.213 529.983 391.788L529.979 391.792C529.788 392.045 523.564 400.037 521.616 405.014C519.637 410.068 517.959 418.051 517.578 420.341C517.194 422.631 517.045 426.979 517.423 431.326Z" fill="#FAB893"/>
<path d="M367.006 393.705C371.551 399.849 377.821 403.288 382.798 406.804C394.768 415.262 419.055 420.608 417.23 391.471C415.402 362.34 394.545 374.146 409.891 322.976C416.44 301.144 417.23 257.635 417.23 257.635C417.23 257.635 386.669 281.518 366.382 344.11C364.801 348.985 363.605 353.436 362.743 357.505C358.819 375.985 361.772 386.635 367.006 393.705Z" fill="#FB4C47"/>
<path d="M367.195 394.901C374.587 381.216 368.457 367.689 362.958 359.599C359.058 377.621 361.992 388.007 367.195 394.901Z" fill="#B63A37"/>
<path d="M417.187 397.81C417.564 397.81 417.903 397.539 417.983 397.141C418.033 396.898 419.178 391.117 416.903 383.43C414.815 376.373 409.309 366.333 394.941 358.577C394.54 358.361 394.049 358.523 393.84 358.937C393.632 359.35 393.787 359.862 394.187 360.078C408.01 367.539 413.307 377.117 415.318 383.837C417.496 391.122 416.399 396.733 416.388 396.789C416.295 397.246 416.576 397.694 417.017 397.791C417.074 397.804 417.13 397.81 417.187 397.81Z" fill="#B63A37"/>
<path d="M404.81 366.849C404.922 366.861 405.037 366.848 405.151 366.809C405.577 366.66 405.807 366.18 405.665 365.738C403.018 357.574 401.323 354.08 401.253 353.935C401.049 353.518 400.559 353.352 400.156 353.564C399.754 353.775 399.594 354.284 399.797 354.702C399.814 354.735 401.517 358.252 404.118 366.277C404.223 366.603 404.5 366.818 404.81 366.849Z" fill="#B63A37"/>
<path d="M403.887 363.131C404.338 363.131 404.702 362.752 404.702 362.285C404.702 345.655 426.137 308.001 426.353 307.622C426.585 307.22 426.456 306.7 426.068 306.462C425.682 306.223 425.18 306.357 424.951 306.759C424.056 308.32 403.071 345.194 403.071 362.285C403.071 362.752 403.437 363.131 403.887 363.131Z" fill="#B63A37"/>
<path d="M419.059 320.395C419.229 320.395 419.4 320.34 419.546 320.225C422.32 318.076 429.338 316.177 429.409 316.158C429.845 316.042 430.108 315.579 429.995 315.127C429.881 314.675 429.435 314.403 429 314.52C428.7 314.6 421.6 316.523 418.569 318.871C418.209 319.15 418.135 319.681 418.404 320.056C418.565 320.277 418.81 320.395 419.059 320.395Z" fill="#B63A37"/>
<path d="M429.049 439.161C428.916 440.664 428.793 442.233 428.615 443.498C428.28 445.892 427.754 447.203 426.607 444.927C426.351 444.413 426.145 443.76 425.976 443.006C424.989 438.615 425.313 430.888 424.856 429.205C424.339 427.29 422.186 421.849 421.999 421.541C422.094 421.768 423.065 425.096 423.177 427.149C423.284 429.073 423.177 431.415 423.177 436.156C423.177 438.223 423.105 440.361 422.853 441.916V441.921C422.529 443.931 421.902 444.954 420.74 443.56C420.17 442.874 419.804 441.669 419.566 440.242C418.94 436.539 419.163 431.31 418.835 429.599C418.39 427.304 416.594 423.597 416.479 423.366C417.161 425.727 417.161 425.494 417.54 428.595C417.806 430.76 418.295 436.525 417.778 439.109C417.559 440.223 417.147 440.749 416.452 440.139C415.369 439.185 414.614 437.791 414.084 436.195C413.484 434.403 413.17 432.354 412.967 430.391C412.588 426.674 411.14 424.384 411.14 424.384C411.944 428.41 412.383 432.302 412.145 434.311C411.98 435.734 411.477 436.212 410.53 435.131C408.683 433.027 406.818 426.067 406.174 423.451C406.15 423.371 406.132 423.289 406.114 423.214C406.091 423.132 406.078 423.062 406.059 422.996C405.973 422.645 405.927 422.446 405.927 422.446L405.922 422.44C405.387 420.261 404.902 418.08 404.193 416.127C403.142 413.225 401.579 410.822 398.57 409.665C391.742 407.034 393.838 393.573 403.407 392.763C406.196 392.528 408.956 393.485 411.144 395.291C412.537 396.443 414.5 398.05 416.489 399.625L416.493 399.629C416.686 399.88 422.909 407.873 424.856 412.851C426.836 417.905 428.514 425.887 428.894 428.177C429.277 430.466 429.428 434.815 429.049 439.161Z" fill="#FAB893"/>
</svg>
